<svg width="952" height="726" viewBox="0 0 952 726" fill="none" xmlns="http://www.w3.org/2000/svg">
<g clip-path="url(#clip0)">
<path d="M762.635 656.143H247.853C111.419 625.929 0.000114955 521.862 0.000114955 366.239C-0.019713 342.698 2.52554 319.225 7.59081 296.236L422.528 229.398L742.626 177.841C765.621 192.885 787.504 209.565 808.104 227.751L501.709 344.628L357.168 399.767L519.49 359.422L856.396 275.687C876.863 298.561 895.465 323.039 912.022 348.884L810.138 425.059L925.248 370.575C925.736 371.415 926.22 372.256 926.703 373.099C998.926 499.128 907.891 656.143 762.635 656.143Z" fill="#F2F2F2"/>
<path d="M680.372 142.468C602.451 158.562 506.65 178.903 408.15 200.048C265.733 230.629 117.68 262.906 9.89258 286.502L9.96413 286.223C14.5835 268.56 24.1272 252.574 37.4831 240.127C119.213 163.113 221.845 111.919 332.531 92.9548H332.541C364.605 87.4882 397.075 84.7464 429.602 84.7589C516.497 84.6363 602.271 104.375 680.372 142.468V142.468Z" fill="#F2F2F2"/>
<path d="M97.2129 0V725.342H807.785V0H97.2129ZM742.143 512.006H164.496V62.3597H742.143V512.006Z" fill="#3F3D56"/>
<path d="M560.131 414.27C615.004 413.632 669.876 413.998 724.745 415.368C729.465 415.485 734.363 415.637 738.532 416.869C742.7 418.101 745.908 420.745 744.767 423.284C723.348 423.909 701.907 424.102 680.443 423.863C675.769 426.12 670.638 429.519 673.51 432.563C675.498 434.669 680.405 435.296 684.696 435.301C692.467 435.31 700.27 434.052 707.927 434.79C715.583 435.528 723.223 439.498 720.98 443.619C719.277 446.748 712.815 448.297 706.935 448.574C701.054 448.851 695.033 448.275 689.285 449.016C683.823 449.721 679.09 451.551 673.978 452.828C665.914 454.843 656.974 455.466 648.179 455.995C580.645 460.062 512.551 460.03 444.619 459.993C417.117 459.978 389.242 459.937 362.685 455.98C347.547 453.724 333.041 450.221 317.711 448.403C299.401 446.231 280.477 446.526 261.752 446.591C228.879 446.706 196.035 446.081 163.217 444.718C160.775 444.616 157.778 444.273 157.119 442.966C156.35 441.442 159.471 440.252 162.11 439.644C177.061 436.233 192.263 433.997 207.573 432.959C215.327 432.422 223.317 432.148 230.448 430.379C237.58 428.61 243.81 424.899 243.743 420.572C243.723 419.252 243.158 417.839 244.275 416.673C245.759 415.125 249.411 414.77 252.562 414.601C287.488 412.729 322.605 411.948 357.69 412.262C370.031 412.372 382.423 412.617 394.677 411.797C404.718 411.126 414.553 409.748 424.448 408.59C437.73 407.037 495.535 398.989 503.968 405.519C510.28 410.407 497.248 411.462 514.178 413.457C528.919 415.193 545.18 414.444 560.131 414.27Z" fill="#F2F2F2"/>
<path d="M346.055 390.957C346.055 390.957 325.622 430.985 343.012 430.985C360.401 430.985 579.51 431.845 585.596 420.655C589.86 412.815 587.509 384.904 585.719 368.895C585.372 365.784 583.833 362.922 581.42 360.899C579.007 358.876 575.903 357.845 572.746 358.019C525.358 360.608 348.328 370.205 349.098 369.007C350.62 366.64 349.533 367.285 349.533 367.285C349.533 367.285 342.577 389.236 346.055 390.957Z" fill="#3F3D56"/>
<path opacity="0.1" d="M585.726 368.976C585.379 365.842 583.845 362.959 581.44 360.921C579.034 358.883 575.939 357.844 572.791 358.019C525.544 360.628 349.04 370.295 349.807 369.089C351.324 366.704 350.241 367.354 350.241 367.354C350.241 367.354 348.693 372.291 347.425 377.682C347.605 377.665 347.739 377.834 347.154 378.864C347.102 379.096 347.051 379.329 347 379.561C354.069 380.26 523.599 370.974 569.757 368.425C572.905 368.251 576 369.289 578.405 371.327C580.811 373.365 582.345 376.248 582.692 379.383C584.019 391.374 585.654 409.991 584.659 422C585.043 421.791 585.367 421.489 585.603 421.121C589.855 413.223 587.511 385.105 585.726 368.976Z" fill="black"/>
<path d="M370.664 330.558C368.407 329.865 365.551 328.969 365.808 327.509C365.945 326.733 366.98 326.128 367.731 325.477C369.177 324.223 369.567 322.457 368.013 321.246C366.46 320.035 362.718 319.873 361.347 321.154C360.642 321.814 360.685 322.641 360.321 323.385C359.185 325.708 354.591 326.728 350.687 327.631C346.784 328.533 342.417 330.212 342.784 332.616C343.184 335.237 349.206 337.563 346.783 339.799C345.904 340.609 344.056 341.062 343.663 341.989C343.386 342.641 343.942 343.305 344.481 343.901L348.316 348.136C349.841 349.822 351.413 351.655 350.902 353.531C349.89 357.249 341.658 358.672 335.133 358.254C332.744 358.101 329.935 357.892 328.293 358.898C327.028 359.674 327.03 360.883 327.451 361.917C328.533 364.579 331.996 366.885 336.428 367.894C331.461 368.876 329.51 373.018 332.94 375.3C330.977 375.977 328.855 376.038 326.857 375.475C325.161 377.041 326.158 379.189 328.309 380.559C330.461 381.929 333.508 382.699 336.459 383.431L333.698 386.02C335.696 387.585 340.012 387.033 342.923 386.044C345.833 385.055 348.991 383.727 352.252 384.245C355.311 384.73 357.624 386.775 360.738 386.425C363.151 386.154 364.299 384.599 365.051 383.256L368.247 377.551C372.797 378.265 377.581 375.139 375.753 372.646C380.845 373.194 385.856 369.879 384.184 367.069C386.896 369.166 388.805 371.601 389.739 374.156C390.156 375.297 390.41 376.504 391.547 377.471C392.29 378.026 393.151 378.4 394.062 378.565C394.973 378.731 395.91 378.682 396.8 378.424C395.872 380.229 395.12 382.335 397.028 383.867C398.935 385.398 404.441 384.964 404.198 383.087C407.107 384.341 410.367 385.519 414.003 385.612C417.639 385.706 421.618 384.318 421.949 382.241C427.073 383.935 432.433 384.8 437.829 384.804C438.288 383.413 441.493 382.964 443.889 383.303C446.286 383.643 448.509 384.46 450.977 384.461C453.446 384.462 456.101 382.973 454.837 381.757C460.035 382.848 465.371 383.118 470.653 382.557C475.634 382.027 480.356 380.767 485.401 380.495C490.518 380.183 495.642 380.994 500.414 382.872C502.068 383.568 504.124 384.443 505.941 383.898C506.971 383.588 507.472 382.92 508.172 382.388C511.186 380.095 517.347 380.535 522.101 381.436C526.855 382.337 532.385 383.422 536.55 381.829C538.122 381.228 539.28 380.3 540.952 379.795C546.941 377.988 554.109 382.619 560.465 381.287C562.535 380.853 564.215 379.814 566.408 379.686C570.297 379.459 572.867 382.102 576.649 382.671C580.573 383.261 584.826 380.867 583.869 378.607C587.64 378.691 591.401 378.167 595.006 377.055L593.225 373.841C597.663 373.769 600.929 370.578 598.872 368.323C603.323 367.473 606.843 365.185 607.758 362.548C608.673 359.91 606.947 357.025 603.402 355.263C601.309 354.224 598.562 353.493 597.365 352.061C596.504 351.03 596.63 349.831 596.295 348.704C595.561 346.238 592.383 344.061 588.278 343.212C586.494 342.843 584.543 342.703 582.929 342.133C581.314 341.564 580.148 340.33 581.08 339.384C581.573 338.883 582.523 338.588 583.137 338.134C585.627 336.29 581.358 333.956 577.712 332.921L586.417 332.636L588.286 324.138C584.842 326.947 575.908 326.356 573.67 323.172C576.467 324.092 580.217 322.915 581.584 321.242C582.951 319.568 582.615 317.621 582.25 315.785C582.216 315.329 582.064 314.89 581.81 314.51C581.556 314.13 581.208 313.823 580.8 313.618C579.948 313.211 578.59 313.041 578.311 312.426C578.026 311.798 579.128 311.243 579.291 310.602C579.605 309.37 576.781 308.827 574.873 308.231C570.373 306.825 568.194 302.875 563.074 303.003C557.993 303.13 556.574 307.02 556.57 309.935C556.567 312.849 554.847 316.747 549.763 316.694C547.733 316.673 545.962 315.941 544.341 315.24L529.779 308.943C527.855 308.046 525.854 307.326 523.799 306.793C520.862 306.106 517.617 306.025 514.447 305.953L494.076 305.489C493.039 305.407 491.995 305.497 490.987 305.755C489.917 306.113 489.397 306.819 488.752 307.426C485.916 310.096 479.247 311.142 474.434 309.671C473.158 309.282 472.014 308.744 470.662 308.45C466.403 307.525 461.933 309.237 457.508 309.856C450.253 310.87 441.239 309.124 436.009 312.179C434.265 313.198 433.34 314.59 431.724 315.676C430.109 316.761 427.193 317.498 425.155 316.678C425.411 318.67 425.644 320.749 424.299 322.591C422.954 324.434 419.505 325.938 416.116 325.473C414.317 324.997 414.459 323.481 415.309 322.455C416.16 321.429 417.465 320.381 417.041 319.271C416.62 318.17 414.694 317.53 413.255 316.763C411.815 315.996 410.855 314.541 412.384 313.833C411.353 312.505 407.65 312.667 406.02 313.781C404.391 314.894 404.228 316.463 404.051 317.912C403.873 319.362 403.486 320.95 401.598 321.92C398.381 323.574 392.205 322.716 390.071 324.87C389.394 325.554 389.354 326.379 388.966 327.134C387.235 330.503 379.763 331.375 373.655 331.65C373.527 332.351 373.498 333.067 373.57 333.776C375.659 332.869 372.178 331.024 370.664 330.558Z" fill="#61AB43"/>
<path opacity="0.1" d="M582.28 327.371C582.626 329.064 582.944 330.858 581.648 332.401C581.456 332.624 581.239 332.825 581 333C582.743 332.944 584.486 332.889 586.229 332.833C586.819 330.222 587.41 327.611 588 325C586.648 326.073 584.403 326.606 582.086 326.656C582.168 326.889 582.233 327.128 582.28 327.371V327.371Z" fill="black"/>
<path opacity="0.1" d="M583 335.868C582.808 334.821 581.139 333.759 579.271 333C577.626 333.808 575.756 333.978 574 333.478C575.364 335.479 579.541 336.356 583 335.868Z" fill="black"/>
<path opacity="0.1" d="M586.764 343C586.716 343.22 586.669 343.441 586.622 343.661C583.748 343.758 580.874 343.855 578 343.951C581.611 345.005 585.84 347.379 583.373 349.255C582.765 349.717 581.824 350.018 581.336 350.527C580.413 351.49 581.568 352.745 583.167 353.324C584.766 353.903 586.699 354.046 588.465 354.421C592.531 355.285 595.679 357.5 596.406 360.009C596.738 361.156 596.613 362.376 597.466 363.425C598.651 364.881 601.373 365.625 603.446 366.682C603.645 366.784 603.837 366.891 604.025 367C605.899 365.909 607.246 364.501 607.76 362.978C608.666 360.294 606.957 357.359 603.446 355.567C601.373 354.509 598.651 353.766 597.466 352.309C596.613 351.261 596.738 350.04 596.406 348.894C595.679 346.385 592.531 344.17 588.465 343.306C587.909 343.188 587.337 343.093 586.764 343Z" fill="black"/>
<path opacity="0.1" d="M331.305 382C331.955 380.678 333.614 379.505 336 379.055C333.721 378.603 331.573 377.678 329.71 376.345C328.734 376.372 327.76 376.256 326.822 376C325.195 377.43 326.152 379.394 328.215 380.645C329.188 381.207 330.224 381.662 331.305 382V382Z" fill="black"/>
<path opacity="0.1" d="M347.11 339.657C348.346 339.192 349.611 338.813 350.898 338.522C354.788 337.621 359.368 336.602 360.499 334.281C360.862 333.537 360.82 332.711 361.522 332.052C362.888 330.772 366.618 330.934 368.166 332.143C369.714 333.353 369.325 335.118 367.884 336.371C367.136 337.021 366.104 337.626 365.968 338.401C365.711 339.86 368.558 340.754 370.807 341.447C371.866 341.79 372.857 342.315 373.736 343C373.755 342.845 373.774 342.691 373.789 342.538C379.876 342.263 387.323 341.392 389.048 338.026C389.434 337.272 389.474 336.447 390.149 335.764C392.276 333.612 398.431 334.469 401.637 332.817C403.518 331.848 403.904 330.262 404.081 328.813C404.258 327.365 404.421 325.798 406.044 324.685C407.668 323.573 411.359 323.411 412.386 324.738C410.862 325.445 411.819 326.898 413.254 327.665C414.689 328.431 416.608 329.071 417.027 330.171C417.45 331.279 416.15 332.326 415.302 333.351C414.454 334.376 414.313 335.891 416.105 336.367C419.483 336.831 422.921 335.329 424.261 333.488C425.602 331.647 425.37 329.57 425.114 327.58C427.145 328.399 430.051 327.663 431.661 326.579C433.272 325.494 434.194 324.103 435.931 323.085C441.143 320.033 450.128 321.777 457.358 320.764C461.768 320.146 466.223 318.435 470.467 319.36C471.815 319.653 472.955 320.191 474.226 320.58C479.023 322.049 485.67 321.005 488.496 318.337C489.139 317.731 489.657 317.025 490.723 316.667C491.728 316.409 492.769 316.32 493.803 316.401C500.57 316.556 507.337 316.71 514.104 316.865C517.264 316.937 520.498 317.018 523.425 317.705C525.472 318.237 527.467 318.956 529.385 319.852C534.223 321.949 539.06 324.046 543.898 326.143C545.513 326.844 547.277 327.575 549.301 327.596C554.368 327.649 556.082 323.755 556.085 320.843C556.089 317.931 557.504 314.045 562.567 313.918C567.67 313.79 569.842 317.736 574.326 319.141C576.227 319.736 579.042 320.279 578.729 321.509C578.584 322.081 577.699 322.583 577.708 323.129C578.971 322.831 580.12 322.169 581.015 321.224C582.377 319.552 582.042 317.608 581.679 315.773C581.644 315.317 581.493 314.878 581.239 314.499C580.986 314.12 580.639 313.813 580.233 313.608C579.384 313.201 578.031 313.032 577.752 312.417C577.468 311.79 578.566 311.236 578.729 310.595C579.042 309.364 576.227 308.821 574.326 308.226C569.842 306.822 567.67 302.875 562.567 303.003C557.504 303.13 556.089 307.016 556.085 309.928C556.082 312.84 554.368 316.734 549.301 316.681C547.277 316.66 545.513 315.929 543.898 315.228C539.06 313.131 534.223 311.034 529.385 308.937C527.467 308.041 525.473 307.322 523.425 306.79C520.498 306.103 517.264 306.022 514.104 305.95C507.337 305.795 500.57 305.641 493.803 305.486C492.769 305.405 491.728 305.494 490.723 305.752C489.657 306.11 489.139 306.816 488.496 307.422C485.67 310.09 479.023 311.134 474.226 309.665C472.955 309.276 471.815 308.739 470.467 308.445C466.223 307.52 461.768 309.231 457.358 309.849C450.128 310.862 441.143 309.118 435.931 312.171C434.194 313.188 433.272 314.579 431.661 315.664C430.051 316.748 427.145 317.484 425.114 316.665C425.37 318.655 425.602 320.732 424.261 322.573C422.921 324.414 419.483 325.916 416.105 325.452C414.313 324.976 414.454 323.461 415.302 322.436C416.15 321.412 417.45 320.364 417.027 319.256C416.608 318.156 414.689 317.516 413.254 316.75C411.819 315.983 410.862 314.53 412.386 313.823C411.359 312.496 407.668 312.658 406.044 313.771C404.421 314.883 404.258 316.45 404.081 317.898C403.904 319.346 403.518 320.933 401.637 321.902C398.431 323.554 392.276 322.697 390.149 324.849C389.474 325.533 389.434 326.357 389.048 327.111C387.323 330.477 379.876 331.348 373.789 331.623C373.774 331.776 373.755 331.93 373.736 332.085C372.857 331.4 371.866 330.875 370.807 330.532C368.558 329.84 365.711 328.945 365.968 327.486C366.104 326.711 367.136 326.106 367.884 325.456C369.325 324.203 369.714 322.439 368.166 321.229C366.618 320.019 362.888 319.857 361.522 321.137C360.82 321.796 360.862 322.622 360.499 323.366C359.368 325.687 354.788 326.706 350.898 327.607C347.008 328.509 342.656 330.187 343.022 332.588C343.414 335.165 349.226 337.456 347.11 339.657Z" fill="black"/>
<path opacity="0.1" d="M336.306 367.668C335.224 367.863 334.19 368.258 333.26 368.833C333.849 368.858 334.436 368.896 335 368.931C341.579 369.341 349.88 367.944 350.901 364.293C351.416 362.451 349.831 360.65 348.293 358.996C347.674 358.33 347.056 357.665 346.438 357C343.219 358.068 338.821 358.441 335 358.202C332.591 358.052 329.759 357.847 328.104 358.835C326.828 359.597 326.83 360.784 327.254 361.799C328.346 364.413 331.837 366.677 336.306 367.668Z" fill="black"/>
<path d="M469.5 351C505.675 351 535 331.748 535 308C535 284.252 505.675 265 469.5 265C433.325 265 404 284.252 404 308C404 331.748 433.325 351 469.5 351Z" fill="#EA565C"/>
<path opacity="0.2" d="M447.408 304.684C447.408 304.684 417.925 307.663 426.596 295.322C435.268 282.981 446.107 278.726 451.31 282.13C456.513 285.535 458.681 294.897 457.814 294.897C456.947 294.897 444.373 287.662 440.037 293.194C435.702 298.727 447.408 304.684 447.408 304.684Z" fill="white"/>
<path opacity="0.2" d="M472.507 306C472.507 306 497.126 323.371 482.191 327.371C467.255 331.37 456.083 327.494 454.376 321.306C452.669 315.118 457.289 306.229 457.954 306.81C458.62 307.39 463.411 321.555 470.45 320.063C477.49 318.57 472.507 306 472.507 306Z" fill="white"/>
<path opacity="0.2" d="M478 295.924C478 295.924 479.922 266.791 490.876 277.277C501.83 287.763 504.299 299.003 500.011 303.486C495.723 307.97 485.955 308.51 486.1 307.667C486.244 306.825 495.609 295.823 490.773 290.687C485.938 285.551 478 295.924 478 295.924Z" fill="white"/>
<path d="M390.5 347C426.122 347 455 327.972 455 304.5C455 281.028 426.122 262 390.5 262C354.878 262 326 281.028 326 304.5C326 327.972 354.878 347 390.5 347Z" fill="#EA565C"/>
<path opacity="0.2" d="M368.729 301.684C368.729 301.684 340.139 304.663 348.548 292.322C356.957 279.981 367.468 275.726 372.513 279.13C377.558 282.535 379.661 291.897 378.82 291.897C377.979 291.897 365.786 284.662 361.582 290.194C357.377 295.727 368.729 301.684 368.729 301.684Z" fill="white"/>
<path opacity="0.2" d="M394.507 303C394.507 303 419.126 320.371 404.191 324.371C389.255 328.37 378.083 324.494 376.376 318.306C374.669 312.118 379.289 303.229 379.954 303.81C380.62 304.39 385.411 318.555 392.45 317.063C399.49 315.57 394.507 303 394.507 303Z" fill="white"/>
<path opacity="0.2" d="M400 292.558C400 292.558 401.922 262.542 412.876 273.346C423.83 284.15 426.299 295.73 422.011 300.35C417.723 304.969 407.955 305.525 408.1 304.657C408.244 303.79 417.609 292.454 412.773 287.162C407.938 281.87 400 292.558 400 292.558Z" fill="white"/>
<path opacity="0.1" d="M424.564 268C438.743 275.808 447.755 287.499 447.755 300.568C447.755 324.075 418.61 343.131 382.659 343.131C370.34 343.131 358.822 340.893 349 337.006C360.324 343.241 374.942 347 390.905 347C426.856 347 456 327.944 456 304.437C456 288.985 443.406 275.457 424.564 268Z" fill="black"/>
<path opacity="0.1" d="M503.564 271C517.743 278.906 526.755 290.746 526.755 303.98C526.755 327.785 497.61 347.082 461.659 347.082C449.34 347.082 437.822 344.815 428 340.879C439.324 347.193 453.942 351 469.905 351C505.856 351 535 331.703 535 307.899C535 292.251 522.406 278.552 503.564 271Z" fill="black"/>
<path d="M351.946 295.978C351.946 295.978 407.514 236.326 543.633 260.965C651.236 280.442 562.875 313.966 521.131 327.157C509.02 330.982 496.474 333.249 483.794 333.903C436.7 336.336 318.246 338.512 351.946 295.978Z" fill="#714B4F"/>
<path opacity="0.1" d="M521.133 314.22C509.021 318.04 496.475 320.303 483.794 320.956C445.642 322.924 360.662 324.722 347.678 302.755C331.284 338.262 439.336 336.198 483.794 333.904C496.475 333.252 509.021 330.988 521.133 327.168C551.731 317.514 607.372 296.952 592.531 279C582.538 293.088 544.521 306.84 521.133 314.22Z" fill="black"/>
<path opacity="0.1" d="M471 262L486 292" stroke="black" stroke-width="2" stroke-miterlimit="10"/>
<path opacity="0.1" d="M424 272L437 297" stroke="black" stroke-width="2" stroke-miterlimit="10"/>
<path opacity="0.1" d="M498 262L518 292" stroke="black" stroke-width="2" stroke-miterlimit="10"/>
<path opacity="0.1" d="M424 300L561 283" stroke="black" stroke-width="2" stroke-miterlimit="10"/>
<path opacity="0.1" d="M555 267L565 281" stroke="black" stroke-width="2" stroke-miterlimit="10"/>
<path opacity="0.1" d="M397 283L403 295" stroke="black" stroke-width="2" stroke-miterlimit="10"/>
<path d="M417.284 242.354C417.284 242.354 541.785 241.794 542.927 240.673C544.069 239.553 570.34 238.959 575.48 246.242C580.62 253.525 582.333 256.886 575.48 258.007C568.627 259.127 343.041 373.973 343.041 373.973C343.041 373.973 330.477 375.094 336.759 362.769C343.041 350.444 417.284 242.354 417.284 242.354Z" fill="#F6C964"/>
<path d="M469 294.058C469 298.407 446.838 309 419.5 309C392.162 309 370 298.407 370 294.058C370 289.708 392.162 288 419.5 288C446.838 288 469 289.708 469 294.058Z" fill="#61AB43"/>
<path d="M419.5 302C446.838 302 469 298.194 469 293.5C469 288.806 446.838 285 419.5 285C392.162 285 370 288.806 370 293.5C370 298.194 392.162 302 419.5 302Z" fill="#61AB43"/>
<path d="M530 285.635C530 290.398 507.614 302 480 302C452.386 302 430 290.398 430 285.635C430 280.871 452.386 279 480 279C507.614 279 530 280.871 530 285.635Z" fill="#61AB43"/>
<path d="M480 294C507.614 294 530 290.194 530 285.5C530 280.806 507.614 277 480 277C452.386 277 430 280.806 430 285.5C430 290.194 452.386 294 480 294Z" fill="#61AB43"/>
<path d="M591 277.635C591 282.398 568.39 294 540.5 294C512.61 294 490 282.398 490 277.635C490 272.871 512.61 271 540.5 271C568.39 271 591 272.871 591 277.635Z" fill="#61AB43"/>
<path d="M540.5 287C568.39 287 591 282.971 591 278C591 273.029 568.39 269 540.5 269C512.61 269 490 273.029 490 278C490 282.971 512.61 287 540.5 287Z" fill="#61AB43"/>
<path d="M356.085 280.159C356.085 280.159 335.449 276.782 346.007 259.9C356.565 243.018 360.116 224.094 364.724 219.866C369.874 215.139 476.19 132.265 559.015 223.97C567.79 233.802 574.922 244.996 580.137 257.119C581.139 259.411 582.243 261.468 583.323 262.553C586.682 265.93 589.562 275.576 583.323 280.4C577.084 285.223 393.278 304.034 356.085 280.159Z" fill="#3F3D56"/>
<path d="M452 211C450.675 211.614 449.113 211.961 447.5 212C445.015 212 443 211.552 443 211C443 210.448 445.015 210 447.5 210C449.113 210.039 450.675 210.386 452 211V211Z" fill="#F2F2F2"/>
<path d="M418 201.5C416.822 202.421 415.434 202.942 414 203C411.791 203 410 202.328 410 201.5C410 200.672 411.791 200 414 200C415.434 200.058 416.822 200.579 418 201.5V201.5Z" fill="#F2F2F2"/>
<path d="M512 214.686C510.57 215.079 509.041 215.104 507.595 214.757C505.392 214.155 503.792 213.146 504.022 212.503C504.252 211.861 506.224 211.829 508.427 212.432C509.841 212.868 511.081 213.65 512 214.686Z" fill="#F2F2F2"/>
<path d="M448 190.581C446.57 191.105 445.041 191.138 443.595 190.677C441.392 189.873 439.792 188.527 440.022 187.671C440.252 186.815 442.224 186.772 444.427 187.576C445.841 188.157 447.081 189.2 448 190.581V190.581Z" fill="#F2F2F2"/>
<path d="M517 199.476C515.749 200.131 514.411 200.173 513.146 199.596C511.218 198.591 509.818 196.909 510.019 195.839C510.22 194.769 511.946 194.715 513.874 195.72C515.111 196.446 516.196 197.751 517 199.476V199.476Z" fill="#F2F2F2"/>
<path d="M503 197.5C501.675 198.421 500.113 198.942 498.5 199C496.015 199 494 198.328 494 197.5C494 196.672 496.015 196 498.5 196C500.113 196.058 501.675 196.579 503 197.5V197.5Z" fill="#F2F2F2"/>
<path d="M462 189C460.675 189.614 459.113 189.961 457.5 190C455.015 190 453 189.552 453 189C453 188.448 455.015 188 457.5 188C459.113 188.039 460.675 188.386 462 189V189Z" fill="#F2F2F2"/>
<path d="M494 189C492.822 189.614 491.434 189.961 490 190C487.791 190 486 189.552 486 189C486 188.448 487.791 188 490 188C491.434 188.039 492.822 188.386 494 189V189Z" fill="#F2F2F2"/>
<path d="M481 208C479.822 209.229 478.434 209.923 477 210C474.791 210 473 209.105 473 208C473 206.895 474.791 206 477 206C478.434 206.077 479.822 206.771 481 208V208Z" fill="#F2F2F2"/>
<path d="M447 204C447.328 202.733 448.044 201.58 449.063 200.679C450.684 199.343 452.39 198.665 452.872 199.164C453.354 199.663 452.431 201.15 450.809 202.485C449.723 203.317 448.401 203.843 447 204Z" fill="#F2F2F2"/>
<path d="M425 199C425.328 197.48 426.044 196.096 427.063 195.014C428.684 193.412 430.39 192.598 430.872 193.197C431.354 193.795 430.431 195.58 428.809 197.182C427.723 198.181 426.401 198.811 425 199V199Z" fill="#F2F2F2"/>
<path d="M388 225C388.383 223.48 389.218 222.096 390.407 221.014C392.298 219.412 394.288 218.598 394.851 219.197C395.413 219.795 394.336 221.58 392.444 223.182C391.177 224.181 389.634 224.811 388 225Z" fill="#F2F2F2"/>
<path d="M471 196C471.328 194.48 472.044 193.096 473.063 192.014C474.684 190.412 476.39 189.598 476.872 190.197C477.354 190.795 476.431 192.58 474.809 194.182C473.723 195.181 472.401 195.811 471 196Z" fill="#F2F2F2"/>
<path d="M462 214C462.383 212.226 463.218 210.612 464.407 209.35C466.298 207.48 468.288 206.531 468.851 207.23C469.413 207.928 468.336 210.01 466.444 211.879C465.177 213.044 463.634 213.78 462 214Z" fill="#F2F2F2"/>
<path d="M622.094 402C622.094 402 615.318 403.91 611.93 407.731C611.93 407.731 605.832 410.279 602.105 409.642C598.379 409.005 591.603 415.373 597.024 417.283C602.444 419.194 635.645 424.288 636.322 422.696C637 421.104 637 404.866 637 404.866L622.094 402Z" fill="#575A89"/>
<path d="M673.685 398C673.685 398 667.534 401.172 664.964 405.774C664.964 405.774 659.574 409.5 655.893 409.469C652.211 409.438 646.847 417.301 652.376 418.382C657.904 419.463 690.6 419.132 690.967 417.34C691.335 415.549 688.467 398.46 688.467 398.46L673.685 398Z" fill="#575A89"/>
<path d="M632.5 176C640.508 176 647 169.508 647 161.5C647 153.492 640.508 147 632.5 147C624.492 147 618 153.492 618 161.5C618 169.508 624.492 176 632.5 176Z" fill="#FFB9B9"/>
<path d="M644.618 164C644.618 164 646.293 174.419 649.307 175.645C651.404 176.59 653.325 177.831 655 179.323L646.628 183L630.218 182.081C630.218 182.081 631.558 175.339 629.213 171.968C626.869 168.597 644.618 164 644.618 164Z" fill="#FFB9B9"/>
<path d="M675.336 216C675.336 216 683.58 235.775 675.336 254.879C667.093 273.984 663.509 277 663.509 277L661 251.863L663.885 249.415C663.885 249.415 665.632 241.789 664.212 237.274C662.792 232.758 664.942 218.681 664.942 218.681L675.336 216Z" fill="#FFB9B9"/>
<path d="M617.761 258.21C617.761 258.21 608.07 279.989 609.073 290.549C610.075 301.109 617.761 345.657 617.761 345.657C617.761 345.657 616.758 403.076 619.766 403.076C622.773 403.076 637.142 408.356 637.142 404.726C637.142 401.096 640.15 313.978 640.15 313.978C640.15 313.978 657.192 352.257 658.863 355.227C660.534 358.197 671.227 404.726 674.903 404.726C678.579 404.726 689.94 401.426 688.938 399.116C687.935 396.806 676.574 345.327 670.225 332.128C663.875 318.928 665.212 269.099 665.212 269.099L654.519 246L617.761 258.21Z" fill="#3F3D56"/>
<path d="M628.409 154.44C628.409 154.44 619.162 153.781 618.501 151.474C617.841 149.167 616.519 147.19 617.18 147.19C617.841 147.19 618.171 145.542 618.171 145.542C618.171 145.542 618.831 145.213 619.162 145.542C619.492 145.872 619.822 143.236 619.822 143.236C619.822 143.236 620.152 142.247 620.483 142.906C620.813 143.565 620.813 143.236 621.143 142.247C621.473 141.258 623.125 140.599 623.125 140.599C623.125 140.599 629.4 140.929 630.39 139.611C631.381 138.293 642.61 139.281 644.922 140.929C647.234 142.577 657.472 148.508 655.821 153.451C654.169 158.394 648.225 169.269 648.225 170.917C648.225 172.564 645.913 172.235 645.252 170.587C644.592 168.94 639.308 166.962 639.308 165.974C639.308 164.985 636.335 155.758 634.684 156.417C633.033 157.076 631.051 162.349 630.391 161.36C629.73 160.372 628.409 154.44 628.409 154.44Z" fill="#3F3D56"/>
<path d="M673 199.585C673 199.585 659.723 179.651 655.837 178.654C651.951 177.658 643.208 175 643.208 175C643.208 175 634.464 176.329 631.874 177.658C629.283 178.987 619.568 181.312 619.245 185.299C618.921 189.286 621.835 227.492 620.216 231.146C618.597 234.801 613.092 269.684 615.682 269.02C618.273 268.355 616.33 259.718 627.664 259.385C638.998 259.053 645.151 252.076 649.361 260.382C653.57 268.688 665.552 275 665.552 275C665.853 272.322 666.285 269.66 666.847 267.027C667.819 262.375 664.257 251.08 664.257 251.08C664.257 251.08 664.58 224.834 665.876 221.844C667.171 218.854 673 199.585 673 199.585Z" fill="#34D1D1"/>
<path d="M668.51 199L673.372 199.658C673.372 199.658 673.048 206.233 674.344 208.205C675.641 210.178 677.909 220.37 676.613 220.699C675.316 221.027 663.648 223 663.648 223L663 207.877L668.51 199Z" fill="#34D1D1"/>
<path d="M615.171 211C615.171 211 611.935 232.39 610.317 235.023C608.698 237.655 600.608 274.512 600.608 274.512C600.608 274.512 587.303 293.325 593.776 292.996C600.248 292.667 607.08 275.828 607.08 275.828C607.08 275.828 627.146 238.642 627.146 234.693C627.146 230.745 632 211 632 211L615.171 211Z" fill="#FFB9B9"/>
<path d="M624.546 181L618.885 183.347C618.885 183.347 611.651 210.836 613.224 213.183C614.796 215.53 633.667 212.177 633.982 211.171C634.296 210.166 630.522 181 624.546 181Z" fill="#34D1D1"/>
<path d="M209 360C209 392.059 229.574 418 255 418Z" fill="#46455B"/>
<path d="M255 418C255 385.389 277.363 359 305 359Z" fill="#34D1D1"/>
<path d="M225 362C225 392.953 238.418 418 255 418Z" fill="#34D1D1"/>
<path d="M255 418C255 376.545 280.494 343 312 343Z" fill="#46455B"/>
<path d="M245 418.718C245 418.718 251.45 418.506 253.394 417.029C255.338 415.553 263.315 413.79 263.798 416.158C264.28 418.526 273.49 427.935 266.209 427.998C258.927 428.06 249.289 426.788 247.349 425.527C245.408 424.267 245 418.718 245 418.718Z" fill="#A8A8A8"/>
<path opacity="0.2" d="M266.34 427.199C259.058 427.26 249.419 426.027 247.479 424.806C246.001 423.876 245.412 420.539 245.215 419C245.079 419.006 245 419.009 245 419.009C245 419.009 245.409 424.384 247.349 425.605C249.289 426.826 258.928 428.059 266.21 427.998C268.312 427.98 269.038 427.208 268.998 426.063C268.706 426.755 267.905 427.186 266.34 427.199Z" fill="black"/>
</g>
<defs>
<clipPath id="clip0">
<rect width="952" height="725.342" fill="white"/>
</clipPath>
</defs>
</svg>
