<svg width="398" height="321" viewBox="0 0 398 321" fill="none" xmlns="http://www.w3.org/2000/svg">
<g clip-path="url(#clip0)">
<path d="M382.233 0.000556163H262.762C256.997 0.00027411 251.403 1.95948 246.901 5.55609C242.398 9.15271 239.254 14.1727 237.986 19.7908L177.621 287.266C176.962 290.183 176.951 293.209 177.587 296.132C178.223 299.054 179.491 301.802 181.303 304.183C183.114 306.564 185.426 308.52 188.074 309.915C190.723 311.309 193.644 312.108 196.635 312.255L319.452 318.3C326.028 318.623 332.498 316.546 337.654 312.454C342.809 308.363 346.299 302.538 347.471 296.065L381.716 106.958L384.264 107.685L390.818 71.8422L388.195 71.1875L397.754 18.4005C398.164 16.1395 398.069 13.816 397.476 11.5958C396.884 9.37554 395.808 7.3132 394.327 5.55579C392.845 3.79839 390.993 2.38921 388.903 1.42872C386.814 0.468224 384.538 -0.0199263 382.238 -0.000931009L382.233 0.000556163Z" fill="#3F3D56"/>
<path d="M278.489 5.76648H264.544C260.539 5.76652 256.655 7.13477 253.536 9.6441C250.417 12.1534 248.25 15.6529 247.396 19.5616L189.452 284.854C189.119 286.382 189.119 287.963 189.453 289.49C189.787 291.018 190.448 292.455 191.389 293.704C192.33 294.953 193.53 295.984 194.907 296.728C196.284 297.471 197.806 297.908 199.367 298.01L321.786 306.025C325.239 306.252 328.655 305.199 331.382 303.07C334.109 300.941 335.955 297.883 336.568 294.48L386.012 20.2744C386.332 18.4996 386.258 16.6763 385.796 14.9332C385.333 13.1901 384.494 11.5695 383.336 10.186C382.178 8.80245 380.73 7.68959 379.095 6.92596C377.46 6.16232 375.676 5.76652 373.871 5.76648H360.642C359.362 5.76644 358.117 6.18807 357.101 6.96609C356.084 7.74412 355.353 8.83514 355.02 10.0702C354.726 11.161 354.08 12.1245 353.183 12.8114C352.285 13.4984 351.186 13.8705 350.055 13.8701H287.251C285.037 13.87 282.905 13.0354 281.281 11.533C279.656 10.0307 278.659 7.97131 278.489 5.76648Z" fill="white"/>
<path d="M346.162 191.228C346.4 191.237 346.633 191.159 346.819 191.01C347.004 190.861 347.13 190.65 347.173 190.416L374.245 41.1623C374.271 41.0204 374.265 40.8747 374.23 40.735C374.194 40.5953 374.128 40.4649 374.038 40.3528C373.948 40.2416 373.834 40.1515 373.706 40.089C373.577 40.0265 373.436 39.9932 373.293 39.9912L250.126 38.538H250.115C249.891 38.5399 249.675 38.6175 249.501 38.7583C249.327 38.899 249.207 39.0945 249.159 39.3127L217.244 183.722C217.213 183.863 217.213 184.009 217.243 184.15C217.274 184.291 217.334 184.424 217.421 184.539C217.507 184.654 217.617 184.748 217.743 184.816C217.87 184.883 218.009 184.922 218.152 184.929L346.162 191.228Z" fill="#E6E6E6"/>
<path d="M239.278 200.879C239.166 200.879 239.058 200.917 238.97 200.986C238.882 201.056 238.821 201.153 238.795 201.262L237.642 206.2C237.626 206.27 237.625 206.342 237.639 206.413C237.653 206.483 237.683 206.549 237.725 206.607C237.768 206.664 237.822 206.712 237.885 206.747C237.948 206.782 238.017 206.802 238.089 206.808L303.247 211.434C303.368 211.442 303.488 211.405 303.584 211.332C303.68 211.258 303.746 211.152 303.77 211.034L304.88 205.32C304.893 205.251 304.891 205.179 304.875 205.111C304.859 205.042 304.828 204.978 304.784 204.922C304.741 204.866 304.686 204.82 304.624 204.787C304.561 204.754 304.492 204.735 304.422 204.731L239.309 200.88L239.278 200.879Z" fill="#E6E6E6"/>
<path d="M318.442 229.776C318.559 229.786 318.676 229.753 318.772 229.684C318.868 229.615 318.936 229.515 318.964 229.4L320.376 223.675C320.393 223.605 320.395 223.532 320.381 223.461C320.367 223.39 320.338 223.323 320.295 223.265C320.253 223.206 320.198 223.158 320.135 223.123C320.071 223.088 320.001 223.067 319.929 223.062L236.717 217.248C236.604 217.239 236.492 217.269 236.399 217.334C236.306 217.398 236.238 217.493 236.206 217.602L234.739 222.549C234.718 222.62 234.713 222.694 234.725 222.767C234.736 222.84 234.764 222.909 234.806 222.97C234.848 223.031 234.902 223.082 234.966 223.119C235.03 223.156 235.101 223.178 235.175 223.184L318.442 229.776Z" fill="#E6E6E6"/>
<path d="M313.973 248.128C314.091 248.138 314.208 248.105 314.303 248.036C314.399 247.967 314.467 247.867 314.495 247.752L315.907 242.027C315.924 241.957 315.926 241.884 315.912 241.813C315.898 241.742 315.869 241.675 315.827 241.616C315.784 241.558 315.729 241.509 315.666 241.474C315.603 241.439 315.532 241.419 315.46 241.413L232.248 235.6C232.136 235.591 232.023 235.621 231.93 235.686C231.837 235.75 231.769 235.845 231.738 235.953L230.27 240.901C230.249 240.972 230.245 241.046 230.256 241.119C230.268 241.192 230.295 241.261 230.337 241.322C230.379 241.383 230.434 241.434 230.498 241.471C230.561 241.508 230.633 241.53 230.706 241.536L313.973 248.128Z" fill="#E6E6E6"/>
<path d="M169.7 312.736C169.7 316.887 131.664 317.329 84.8502 320.252C38.0778 323.171 0 316.887 0 312.736C0 308.585 38.2556 300.233 84.8502 305.22C131.664 310.23 169.7 308.585 169.7 312.736Z" fill="#E6E6E6"/>
<path d="M275.65 279.501C275.769 279.513 275.887 279.482 275.985 279.413C276.082 279.344 276.151 279.243 276.178 279.127L279.164 267.198C279.181 267.128 279.184 267.055 279.17 266.985C279.157 266.914 279.128 266.847 279.086 266.789C279.044 266.73 278.99 266.681 278.928 266.646C278.865 266.61 278.796 266.589 278.724 266.583L227.624 262.289C227.505 262.281 227.386 262.316 227.29 262.386C227.194 262.457 227.125 262.56 227.098 262.676L224.551 274.125C224.536 274.194 224.535 274.265 224.549 274.334C224.564 274.403 224.593 274.468 224.634 274.525C224.676 274.581 224.729 274.629 224.79 274.664C224.851 274.699 224.919 274.72 224.989 274.727L275.65 279.501Z" fill="#DAF0F0"/>
<path d="M69.3188 230.89C69.9623 230.449 70.5012 229.873 70.8976 229.202C71.294 228.531 71.5383 227.782 71.6132 227.006C71.6881 226.23 71.5918 225.448 71.3311 224.713C71.0704 223.979 70.6516 223.311 70.1043 222.756L72.1733 176.619L61.6396 177.8L62.2518 222.928C61.3783 223.908 60.895 225.174 60.8936 226.485C60.8922 227.797 61.3728 229.064 62.2442 230.046C63.1157 231.027 64.3174 231.655 65.6215 231.81C66.9256 231.966 68.2414 231.637 69.3193 230.888L69.3188 230.89Z" fill="#A0616A"/>
<path d="M88.5361 308.989L94.5316 310.042L100.457 287.442L92.6017 285.888L88.5361 308.989Z" fill="#A0616A"/>
<path d="M105.117 317.633L86.2747 314.324L87.5545 307.052L99.117 309.083C101.048 309.422 102.765 310.513 103.89 312.117C105.015 313.721 105.457 315.705 105.117 317.634L105.117 317.633Z" fill="#2F2E41"/>
<path d="M72.0801 311.987H78.1675L81.0632 288.532H72.0791L72.0801 311.987Z" fill="#A0616A"/>
<path d="M89.9053 317.634L70.7738 317.635L70.7734 310.251L82.5131 310.251C84.4736 310.25 86.3537 311.028 87.74 312.413C89.1263 313.798 89.9052 315.676 89.9053 317.634Z" fill="#2F2E41"/>
<path d="M97.4766 303.58C97.3817 303.58 97.2868 303.574 97.1926 303.563L90.0278 302.974C89.7016 302.936 89.3866 302.832 89.1019 302.668C88.8172 302.504 88.5688 302.284 88.3718 302.022C88.1747 301.759 88.0332 301.46 87.9557 301.141C87.8782 300.822 87.8664 300.491 87.921 300.167L95.0337 265.11L90.565 241.563C90.5286 241.371 90.4241 241.2 90.2709 241.079C90.1176 240.959 89.926 240.898 89.7313 240.907C89.5365 240.917 89.3519 240.997 89.2113 241.132C89.0708 241.267 88.9839 241.448 88.9667 241.642L82.3823 301.473C82.3209 302.103 82.0167 302.685 81.5341 303.095C81.0515 303.506 80.4281 303.713 79.7954 303.673L73.0452 303.422C72.4537 303.381 71.898 303.124 71.4831 302.701C71.0682 302.277 70.8227 301.717 70.793 301.125L71.3322 228.825L106.328 224.455L108.772 262.171L108.763 262.212L99.8296 301.73C99.7011 302.257 99.3994 302.725 98.9728 303.061C98.5462 303.396 98.0194 303.579 97.4766 303.58Z" fill="#2F2E41"/>
<path d="M82.8728 146.724C89.608 146.724 95.0679 141.27 95.0679 134.542C95.0679 127.814 89.608 122.359 82.8728 122.359C76.1377 122.359 70.6777 127.814 70.6777 134.542C70.6777 141.27 76.1377 146.724 82.8728 146.724Z" fill="#A0616A"/>
<path d="M94.3634 234.327C92.456 234.338 90.5854 233.804 88.9726 232.787C83.064 229.098 76.3555 230.564 72.8818 231.766C72.5371 231.887 72.1695 231.928 71.8066 231.887C71.4436 231.845 71.0948 231.723 70.786 231.528C70.4808 231.336 70.223 231.078 70.0317 230.773C69.8405 230.468 69.7209 230.124 69.6817 229.766L63.3655 173.408C62.3069 163.966 68.001 155.088 76.9047 152.299C77.2393 152.194 77.5794 152.095 77.925 152.001C80.6957 151.251 83.5974 151.116 86.4259 151.606C89.2543 152.097 91.9408 153.2 94.2963 154.84C96.6958 156.497 98.7025 158.659 100.175 161.175C101.648 163.69 102.551 166.497 102.82 169.399L108.138 226.134C108.175 226.502 108.125 226.872 107.993 227.217C107.862 227.562 107.652 227.872 107.38 228.122C105.515 229.844 100.104 234.327 94.3634 234.327Z" fill="#DAF0F0"/>
<path d="M75.1282 185.494L60.878 183.928C60.4725 183.884 60.0814 183.753 59.7313 183.543C59.3811 183.334 59.0803 183.052 58.8491 182.716C58.618 182.381 58.4621 181.999 58.3919 181.598C58.3217 181.196 58.339 180.784 58.4426 180.39L62.0702 166.579C62.177 165.543 62.4882 164.54 62.9858 163.625C63.4833 162.711 64.1573 161.904 64.9688 161.251C65.7803 160.599 66.7132 160.113 67.7137 159.823C68.7141 159.533 69.7623 159.443 70.7975 159.56C71.8327 159.677 72.8345 159.998 73.745 160.503C74.6554 161.009 75.4565 161.69 76.1019 162.507C76.7473 163.324 77.2243 164.261 77.5052 165.263C77.7861 166.265 77.8653 167.313 77.7384 168.346L78.2772 182.568C78.2926 182.976 78.22 183.382 78.0642 183.758C77.9084 184.135 77.6732 184.474 77.3746 184.752C77.0759 185.029 76.7208 185.239 76.3335 185.368C75.9462 185.496 75.5358 185.539 75.1302 185.495L75.1282 185.494Z" fill="#DAF0F0"/>
<path d="M108.081 228.914C108.666 228.4 109.131 227.763 109.444 227.049C109.756 226.335 109.908 225.562 109.889 224.783C109.87 224.004 109.68 223.239 109.332 222.542C108.985 221.844 108.489 221.231 107.879 220.746L104.367 174.697L94.0449 177.018L100.103 221.863C99.3534 222.941 99.0263 224.256 99.1832 225.558C99.34 226.861 99.9699 228.06 100.953 228.93C101.937 229.799 103.206 230.278 104.519 230.275C105.832 230.272 107.099 229.788 108.079 228.914H108.081Z" fill="#A0616A"/>
<path d="M90.0883 182.599C89.7896 182.322 89.5543 181.983 89.3985 181.606C89.2427 181.23 89.1701 180.824 89.1857 180.417L89.7244 166.194C89.6082 165.166 89.6958 164.126 89.9822 163.132C90.2686 162.138 90.7481 161.21 91.3935 160.402C92.0388 159.593 92.8373 158.919 93.7433 158.419C94.6493 157.918 95.6452 157.601 96.6739 157.485C97.7027 157.369 98.7443 157.456 99.7393 157.742C100.734 158.028 101.663 158.507 102.473 159.152C103.282 159.797 103.957 160.594 104.458 161.499C104.959 162.404 105.276 163.399 105.393 164.427L109.02 178.238C109.124 178.633 109.141 179.044 109.071 179.446C109.001 179.847 108.845 180.229 108.614 180.565C108.383 180.901 108.082 181.183 107.732 181.392C107.381 181.601 106.99 181.732 106.585 181.777L92.3346 183.342C91.9289 183.387 91.5184 183.343 91.1311 183.215C90.7438 183.087 90.3888 182.876 90.0903 182.598L90.0883 182.599Z" fill="#DAF0F0"/>
<path d="M82.1479 147.183C81.9306 147.182 81.714 147.157 81.5024 147.108L81.4404 147.093C70.7184 145.456 68.3485 139.25 67.8287 136.659C67.2904 133.977 67.9032 131.388 69.2885 130.382C68.5332 128.001 68.6544 125.888 69.6494 124.102C71.3873 120.987 75.1514 119.935 75.6574 119.805C78.6653 117.588 82.2641 119.067 82.919 119.368C88.7377 117.217 90.9627 119.007 91.3639 119.407C93.9646 119.873 95.55 120.877 96.0763 122.391C97.0649 125.233 93.9388 128.769 93.8053 128.918L93.7357 128.996L89.0784 129.218C88.6364 129.239 88.2038 129.352 87.8087 129.551C87.4136 129.75 87.0647 130.029 86.7847 130.372C86.5046 130.714 86.2998 131.111 86.1833 131.537C86.0668 131.964 86.0414 132.41 86.1086 132.847C86.2346 133.41 86.3938 133.966 86.5853 134.511C87.3798 136.994 87.9756 139.115 87.208 139.922C87.0338 140.078 86.8192 140.182 86.5887 140.221C86.3582 140.261 86.1211 140.236 85.9046 140.147C85.1762 139.953 84.6821 139.994 84.4359 140.269C84.0535 140.695 84.1702 141.774 84.7646 143.307C84.951 143.792 85.0012 144.318 84.9097 144.829C84.8181 145.34 84.5884 145.817 84.2452 146.207C83.9868 146.511 83.6654 146.756 83.3032 146.925C82.9409 147.093 82.5464 147.181 82.1469 147.183H82.1479Z" fill="#2F2E41"/>
<g clip-path="url(#clip1)">
<path d="M309.624 169.902L273.303 170.022C263.668 167.136 255.773 157.111 255.723 142.081C255.713 139.816 255.885 137.555 256.236 135.318L285.491 128.766L308.059 123.712C309.722 125.197 311.271 126.803 312.695 128.517L291.114 139.877L280.934 145.236L292.374 141.301L316.117 133.136C317.598 135.392 318.917 137.75 320.065 140.192L312.901 147.573L321.006 142.284C321.04 142.365 321.075 142.446 321.109 142.527C326.245 154.683 319.873 169.868 309.624 169.902Z" fill="#F2F2F2"/>
<path d="M303.655 120.31C298.163 121.883 291.41 123.87 284.467 125.935C274.428 128.921 263.993 132.073 256.396 134.377L256.4 134.35C256.681 132.734 257.342 131.206 258.327 129.892C263.955 122.597 271.122 117.502 279.097 115.609H279.098C281.341 115.076 283.638 114.803 285.944 114.795C292.289 114.774 298.3 116.758 303.655 120.31Z" fill="#F2F2F2"/>
<path d="M280.118 173C293.77 173 304.837 171.409 304.837 169.446C304.837 167.483 293.77 165.892 280.118 165.892C266.466 165.892 255.398 167.483 255.398 169.446C255.398 171.409 266.466 173 280.118 173Z" fill="#3F3D56"/>
<path d="M271.323 136.274V141.803L275.285 142.276L277.662 139.275L275.76 135.484L271.323 136.274Z" fill="#FBBEBE"/>
<path d="M286.377 159.02L288.437 164.549L292.24 163.285L289.388 158.704L286.377 159.02Z" fill="#FBBEBE"/>
<path d="M281.622 111.948C281.622 111.948 261.023 109.894 261.657 115.581C262.291 121.268 271.323 137.538 271.323 137.538L277.344 136.432C277.344 136.432 273.066 129.797 273.383 127.586C273.7 125.375 272.432 122.373 272.432 122.373L275.443 122.847L277.186 125.533L280.83 144.172L286.376 160.916L290.496 159.81C290.496 159.81 288.278 152.86 288.911 150.648C289.545 148.437 285.901 139.907 285.901 139.907L288.436 125.059C288.436 125.059 293.348 123.637 291.922 118.74C290.496 113.843 281.622 111.948 281.622 111.948Z" fill="#2F2E41"/>
<path d="M273.066 140.065C273.066 140.065 270.69 138.169 270.848 138.959C270.938 139.535 270.938 140.121 270.848 140.697L268.63 145.594C268.63 145.594 263.242 150.49 268.154 150.648C273.066 150.806 275.602 145.752 275.602 145.752C275.602 145.752 282.415 140.697 281.623 139.907C280.831 139.117 276.673 137.303 276.673 137.303C276.673 137.303 275.285 141.171 273.066 140.065Z" fill="#2F2E41"/>
<path d="M288.278 162.022C288.278 162.022 286.059 159.968 285.901 160.916C285.742 161.864 285.584 163.127 285.584 163.127L282.256 166.287C282.256 166.287 277.503 170.867 281.622 171.025C282.813 171.079 284.001 170.866 285.098 170.401C286.195 169.936 287.173 169.232 287.961 168.34C287.961 168.34 293.982 167.076 293.665 166.129C293.348 165.181 291.759 161.514 291.048 161.373C290.338 161.232 290.179 163.285 288.278 162.022Z" fill="#2F2E41"/>
<path d="M280.672 89.2012C283.385 89.2012 285.584 87.0088 285.584 84.3044C285.584 81.6 283.385 79.4076 280.672 79.4076C277.959 79.4076 275.76 81.6 275.76 84.3044C275.76 87.0088 277.959 89.2012 280.672 89.2012Z" fill="#FBBEBE"/>
<path d="M278.453 87.6216C278.453 87.6216 280.513 93.1503 280.355 93.6242C280.196 94.098 286.851 89.6751 286.851 89.6751C286.851 89.6751 283.999 89.0433 283.999 86.5159L278.453 87.6216Z" fill="#FBBEBE"/>
<path d="M296.517 95.6777C296.517 95.6777 299.37 98.521 299.845 99.4688C300.32 100.417 311.095 112.422 311.095 112.422C311.095 112.422 318.226 120.794 315.374 120.952C312.521 121.11 308.877 114.317 308.877 114.317C308.877 114.317 298.736 106.893 298.26 105.155L292.397 99.1529L296.517 95.6777Z" fill="#FBBEBE"/>
<path d="M281.623 92.3605H279.88L277.503 96.1516C277.503 96.1516 275.126 98.2051 276.869 102.47C278.612 106.735 280.038 112.106 280.038 112.106C280.038 112.106 285.109 112.738 286.06 114.317C287.01 115.897 292.398 120.952 292.398 120.952C292.398 120.952 293.349 117.634 293.032 112.738C292.715 107.841 293.032 100.417 293.032 100.417L292.715 90.6229C292.715 90.6229 286.595 89.2088 286.169 89.442C285.743 89.6752 281.623 92.3605 281.623 92.3605Z" fill="#34D1D1"/>
<path d="M290.338 91.0968L292.715 90.6229C292.715 90.6229 295.25 92.2025 297.627 96.7834C297.627 96.7834 292.556 100.101 292.081 99.9426C291.606 99.7847 290.338 91.0968 290.338 91.0968Z" fill="#34D1D1"/>
<path d="M275.759 101.838C275.759 101.838 272.115 107.683 273.224 109.894C274.333 112.106 275.759 111.948 275.759 111.948C275.759 111.948 278.453 111.474 278.453 109.262C278.453 107.051 279.562 106.893 279.562 106.893C279.562 106.893 286.534 101.206 283.84 101.206C281.147 101.206 277.502 105.155 277.502 105.155L277.344 101.522L275.759 101.838Z" fill="#FBBEBE"/>
<path d="M278.137 95.9937C278.137 95.9937 275.76 96.6255 275.285 99.1529C274.809 101.68 274.968 102.944 274.968 102.944L278.137 102.628V95.9937Z" fill="#34D1D1"/>
<path opacity="0.1" d="M273.7 108.631C273.7 108.631 276.236 105.313 276.552 105.787L273.7 108.631Z" fill="black"/>
<path d="M283.167 78.3763C283.167 78.3763 280.562 75.7816 278.054 77.5238C275.546 79.2659 274.378 80.9252 274.658 82.052C274.938 83.1788 275.72 84.7359 275.72 84.7359C275.72 84.7359 275.198 82.4 277.306 82.1711C279.415 81.9423 282.297 80.4723 282.297 80.4723L284.382 84.6246C284.382 84.6246 284.636 83.6432 285.417 83.9024C286.199 84.1617 285.453 78.6286 283.167 78.3763Z" fill="#2F2E41"/>
<path d="M265.342 165.243C265.342 167.546 263.968 168.351 262.274 168.351C262.235 168.351 262.195 168.35 262.156 168.349C262.078 168.348 262 168.344 261.923 168.339C260.394 168.231 259.206 167.385 259.206 165.243C259.206 163.026 262.048 160.229 262.261 160.022L262.262 160.022C262.27 160.014 262.274 160.01 262.274 160.01C262.274 160.01 265.342 162.94 265.342 165.243Z" fill="#DAF0F0"/>
<path d="M262.162 167.998L263.284 166.435L262.159 168.17L262.156 168.349C262.077 168.348 262 168.344 261.923 168.339L262.044 166.034L262.043 166.017L262.045 166.013L262.056 165.796L260.929 164.057L262.06 165.632L262.063 165.679L262.154 163.937L261.189 162.141L262.166 163.632L262.261 160.022L262.261 160.01V160.022L262.245 162.868L263.206 161.74L262.241 163.114L262.216 164.672L263.113 163.176L262.212 164.902L262.198 165.768L263.501 163.686L262.193 166.071L262.162 167.998Z" fill="#3F3D56"/>
<path d="M335.035 83.6987C335.035 83.6987 334.06 86.7205 332.538 91.0623C332.046 92.4726 331.495 94.0208 330.901 95.6504C330.074 97.9195 329.162 100.347 328.208 102.774C327.621 104.268 327.018 105.76 326.408 107.218C323.129 115.031 319.638 121.8 317.35 121.895C312.21 122.108 301.201 87.8258 299.999 84.0378C299.929 83.8163 299.893 83.6987 299.893 83.6987H335.035Z" fill="#3F3D56"/>
<path opacity="0.1" d="M332.539 91.0623C332.047 92.4726 331.496 94.0208 330.902 95.6504L317.287 83.6987H324.15L332.539 91.0623Z" fill="black"/>
<path opacity="0.1" d="M328.208 102.774C327.621 104.268 327.018 105.76 326.408 107.218L299.999 84.0378C299.929 83.8163 299.893 83.6987 299.893 83.6987H306.477L328.208 102.774Z" fill="black"/>
<path d="M318.073 53.3362C316.462 54.6084 313.914 54.1274 312.366 55.4747C311.307 56.3963 311.025 57.9722 311.314 59.3437C311.602 60.7152 312.37 61.9321 313.143 63.1029C313.676 63.911 314.229 64.7254 314.978 65.34C316.026 66.1992 317.37 66.5992 318.688 66.9204C321.557 67.6198 324.487 68.0432 327.438 68.1848C328.754 68.2479 330.244 68.1848 331.13 67.2136C331.646 66.648 331.854 65.8728 332.005 65.1232C332.242 63.9505 332.373 62.688 331.884 61.5957C331.483 60.6979 330.709 60.0249 329.926 59.4274C327.469 57.5534 324.575 56.0018 323.076 53.3044C322.48 52.2323 322.112 50.9898 321.209 50.1579C320.031 49.0737 317.411 48.6303 316.025 49.3546C316.239 49.8414 319.039 52.5736 318.073 53.3362Z" fill="#DAF0F0"/>
<path d="M304.536 65.9799C304.059 67.6311 303.619 69.3781 304.021 71.0491C304.551 73.2523 306.489 74.9023 308.614 75.7044C310.74 76.5064 313.058 76.6 315.329 76.6846L327.221 77.1273C328.716 77.183 330.239 77.244 331.643 77.7562C332.801 78.1783 334.177 78.8733 335.142 78.1089C335.58 77.7622 335.776 77.2009 335.932 76.6655C336.437 74.9235 336.72 73.0105 336.04 71.3284C335.261 69.4009 333.341 68.1343 331.346 67.5288C329.352 66.9234 327.24 66.8644 325.168 66.6358C323.067 66.4038 320.988 65.9937 318.956 65.41C317.258 64.922 315.537 64.278 314.28 63.0382C313.6 62.3677 313.086 61.5498 312.445 60.8421C308.775 56.7878 305.439 62.8597 304.536 65.9799Z" fill="#DAF0F0"/>
<path d="M301.922 73.5657C300.766 74.0821 299.763 74.8876 299.01 75.904C298.257 76.9205 297.781 78.1135 297.626 79.3674C297.472 80.6214 297.645 81.8939 298.128 83.0617C298.612 84.2294 299.39 85.2528 300.387 86.0328C302.198 87.4495 304.567 87.9421 306.863 88.107C309.105 88.268 311.357 88.1573 313.601 88.0464L333.463 87.0657C334.627 87.0082 335.945 86.8747 336.656 85.9536C337.186 85.2662 337.217 84.318 337.091 83.46C336.635 80.3735 334.297 77.641 331.312 76.7056C330.186 76.3528 329 76.2411 327.825 76.1315L319.311 75.3374C318.164 75.2304 317.011 75.1223 315.9 74.8212C312.533 73.9088 309.524 71.245 306.058 71.6394C303.706 71.907 301.769 73.5483 300.061 75.1816" fill="#DAF0F0"/>
<path opacity="0.1" d="M313.043 60.1934C313.043 60.1934 315.822 65.195 330.076 67.2144L313.043 60.1934Z" fill="black"/>
<path opacity="0.1" d="M305.158 73.2933C305.158 73.2933 310.322 78.5004 331.634 78.5004L305.158 73.2933Z" fill="black"/>
<path d="M317.124 57.7072C317.875 57.7072 318.484 57.5048 318.484 57.2551C318.484 57.0055 317.875 56.8031 317.124 56.8031C316.373 56.8031 315.764 57.0055 315.764 57.2551C315.764 57.5048 316.373 57.7072 317.124 57.7072Z" fill="#3F3D56"/>
<path d="M321.658 60.6453C322.409 60.6453 323.019 60.4429 323.019 60.1932C323.019 59.9436 322.409 59.7412 321.658 59.7412C320.907 59.7412 320.298 59.9436 320.298 60.1932C320.298 60.4429 320.907 60.6453 321.658 60.6453Z" fill="#3F3D56"/>
<path d="M326.872 63.8096C327.623 63.8096 328.232 63.6072 328.232 63.3575C328.232 63.1079 327.623 62.9055 326.872 62.9055C326.121 62.9055 325.512 63.1079 325.512 63.3575C325.512 63.6072 326.121 63.8096 326.872 63.8096Z" fill="#3F3D56"/>
<path d="M308.735 65.1657C309.487 65.1657 310.096 64.9633 310.096 64.7136C310.096 64.464 309.487 64.2616 308.735 64.2616C307.984 64.2616 307.375 64.464 307.375 64.7136C307.375 64.9633 307.984 65.1657 308.735 65.1657Z" fill="#3F3D56"/>
<path d="M320.298 69.4598C321.049 69.4598 321.658 69.2575 321.658 69.0078C321.658 68.7582 321.049 68.5558 320.298 68.5558C319.547 68.5558 318.938 68.7582 318.938 69.0078C318.938 69.2575 319.547 69.4598 320.298 69.4598Z" fill="#3F3D56"/>
<path d="M303.974 78.2744C304.725 78.2744 305.334 78.072 305.334 77.8224C305.334 77.5727 304.725 77.3704 303.974 77.3704C303.222 77.3704 302.613 77.5727 302.613 77.8224C302.613 78.072 303.222 78.2744 303.974 78.2744Z" fill="#3F3D56"/>
<path d="M312.589 69.9119C313.34 69.9119 313.949 69.7095 313.949 69.4598C313.949 69.2102 313.34 69.0078 312.589 69.0078C311.838 69.0078 311.229 69.2102 311.229 69.4598C311.229 69.7095 311.838 69.9119 312.589 69.9119Z" fill="#3F3D56"/>
<path d="M307.375 81.6647C308.126 81.6647 308.735 81.4623 308.735 81.2126C308.735 80.963 308.126 80.7606 307.375 80.7606C306.624 80.7606 306.015 80.963 306.015 81.2126C306.015 81.4623 306.624 81.6647 307.375 81.6647Z" fill="#3F3D56"/>
<path d="M316.217 79.6305C316.968 79.6305 317.577 79.4281 317.577 79.1785C317.577 78.9288 316.968 78.7264 316.217 78.7264C315.465 78.7264 314.856 78.9288 314.856 79.1785C314.856 79.4281 315.465 79.6305 316.217 79.6305Z" fill="#3F3D56"/>
<path d="M321.545 90.4792C322.359 90.4792 323.019 89.1131 323.019 87.428C323.019 85.7429 322.359 84.3768 321.545 84.3768C320.731 84.3768 320.071 85.7429 320.071 87.428C320.071 89.1131 320.731 90.4792 321.545 90.4792Z" fill="#DAF0F0"/>
<path d="M323.358 91.6092C324.172 91.6092 324.832 90.2432 324.832 88.558C324.832 86.8729 324.172 85.5068 323.358 85.5068C322.545 85.5068 321.885 86.8729 321.885 88.558C321.885 90.2432 322.545 91.6092 323.358 91.6092Z" fill="#DAF0F0"/>
<path d="M320.335 117.979C320.347 117.919 320.653 116.476 322.251 114.371C323.718 112.439 326.603 109.565 332.019 106.842C342.278 101.684 344.574 91.9917 344.596 91.8943L344.87 91.956C344.864 91.9807 344.29 94.462 342.442 97.55C339.989 101.642 336.418 104.952 332.145 107.092C321.904 112.242 320.622 117.977 320.61 118.035L320.335 117.979Z" fill="#3F3D56"/>
<path d="M345.12 90.8573C346.129 90.8573 346.946 90.0423 346.946 89.0369C346.946 88.0315 346.129 87.2164 345.12 87.2164C344.112 87.2164 343.294 88.0315 343.294 89.0369C343.294 90.0423 344.112 90.8573 345.12 90.8573Z" fill="#DAF0F0"/>
<path d="M344.76 99.69C345.768 99.69 346.586 98.8749 346.586 97.8695C346.586 96.8641 345.768 96.0491 344.76 96.0491C343.751 96.0491 342.934 96.8641 342.934 97.8695C342.934 98.8749 343.751 99.69 344.76 99.69Z" fill="#3F3D56"/>
<path d="M338.818 100.31C339.827 100.31 340.644 99.4948 340.644 98.4894C340.644 97.484 339.827 96.6689 338.818 96.6689C337.81 96.6689 336.992 97.484 336.992 98.4894C336.992 99.4948 337.81 100.31 338.818 100.31Z" fill="#DAF0F0"/>
<path d="M339.741 106.32C340.75 106.32 341.567 105.505 341.567 104.499C341.567 103.494 340.75 102.679 339.741 102.679C338.733 102.679 337.915 103.494 337.915 104.499C337.915 105.505 338.733 106.32 339.741 106.32Z" fill="#DAF0F0"/>
<path d="M331.198 106.443C332.207 106.443 333.024 105.628 333.024 104.622C333.024 103.617 332.207 102.802 331.198 102.802C330.19 102.802 329.372 103.617 329.372 104.622C329.372 105.628 330.19 106.443 331.198 106.443Z" fill="#3F3D56"/>
<path d="M321.098 118.776C321.098 118.776 322.815 114.252 329.125 115.501L321.098 118.776Z" fill="#3F3D56"/>
<path d="M319.507 117.194C319.507 117.194 322.148 113.137 317.403 108.806L319.507 117.194Z" fill="#3F3D56"/>
<path d="M362.741 119.348L359.718 118.159L356.694 116.97L359.239 114.954L361.784 112.939L362.262 116.144L362.741 119.348Z" fill="#F2F2F2"/>
<path d="M241.046 98.8131L238.023 97.6238L235 96.4346L237.545 94.4194L240.089 92.4039L240.568 95.6085L241.046 98.8131Z" fill="#F2F2F2"/>
<path d="M347.688 136.882L344.665 135.693L341.642 134.503L344.186 132.488L346.731 130.473L347.209 133.677L347.688 136.882Z" fill="#F2F2F2"/>
<path d="M363.999 148.059L361.144 149.606L358.289 151.154L358.372 147.915L358.455 144.676L361.227 146.368L363.999 148.059Z" fill="#F2F2F2"/>
<path d="M256.408 86.1376L253.552 87.6852L250.697 89.2329L250.78 85.9942L250.863 82.7554L253.636 84.4465L256.408 86.1376Z" fill="#F2F2F2"/>
</g>
<path d="M316.72 288.461C321.536 288.461 325.441 284.553 325.441 279.731C325.441 274.909 321.536 271 316.72 271C311.904 271 308 274.909 308 279.731C308 284.553 311.904 288.461 316.72 288.461Z" fill="#DAF0F0"/>
<g clip-path="url(#clip2)">
<path fill-rule="evenodd" clip-rule="evenodd" d="M315.135 273.632C315.491 272.858 316.589 272.858 316.945 273.632L318.344 276.674L321.66 277.068C322.504 277.169 322.843 278.216 322.219 278.795L319.767 281.069L320.418 284.354C320.584 285.191 319.696 285.838 318.954 285.421L316.04 283.785L313.126 285.421C312.384 285.838 311.496 285.191 311.662 284.354L312.313 281.069L309.861 278.795C309.237 278.216 309.576 277.169 310.42 277.068L313.737 276.674L315.135 273.632ZM316.267 274.545C316.178 274.351 315.902 274.351 315.813 274.545L314.641 277.093C314.496 277.408 314.198 277.625 313.854 277.666L311.075 277.997C310.863 278.022 310.778 278.284 310.934 278.428L312.989 280.335C313.244 280.571 313.358 280.923 313.29 281.264L312.745 284.017C312.703 284.226 312.926 284.388 313.112 284.284L315.553 282.913C315.856 282.743 316.224 282.743 316.527 282.913L318.968 284.284C319.154 284.388 319.377 284.226 319.335 284.017L318.79 281.264C318.722 280.923 318.836 280.571 319.091 280.335L321.146 278.428C321.302 278.284 321.217 278.022 321.006 277.997L318.226 277.666C317.882 277.625 317.584 277.408 317.439 277.093L316.267 274.545Z" fill="white"/>
</g>
</g>
<defs>
<clipPath id="clip0">
<rect width="398" height="321" fill="white"/>
</clipPath>
<clipPath id="clip1">
<rect width="129" height="124" fill="white" transform="translate(235 49)"/>
</clipPath>
<clipPath id="clip2">
<rect width="14" height="14" fill="white" transform="translate(309.04 272.309)"/>
</clipPath>
</defs>
</svg>
