<svg width="373" height="353" viewBox="0 0 373 353" fill="none" xmlns="http://www.w3.org/2000/svg">
<g clip-path="url(#clip0)">
<path d="M373 351.139H121.294V352.226H373V351.139Z" fill="#3F3D56"/>
<path d="M326.026 166.311C326.51 166.881 326.87 167.546 327.081 168.264C327.292 168.982 327.351 169.736 327.252 170.478C327.154 171.22 326.901 171.933 326.51 172.571C326.119 173.209 325.598 173.757 324.982 174.181L298.932 192.087L287.461 199.743C286.81 200.178 286.02 200.355 285.245 200.239C284.471 200.123 283.767 199.722 283.271 199.116C282.982 198.762 282.773 198.349 282.659 197.907C282.545 197.464 282.528 197.002 282.609 196.553C282.691 196.103 282.869 195.676 283.131 195.302C283.393 194.928 283.734 194.615 284.129 194.386L295.239 187.927L314.629 169.439L302.164 156.035L311.397 149.102L326.026 166.311Z" fill="#A0616A"/>
<path d="M264.769 334.91H258.397L254.612 282.218L270.771 281.756L264.769 334.91Z" fill="#A0616A"/>
<path d="M265.231 352.012C263.532 352.788 262.108 346.498 260.675 347.908C256.666 351.852 250.528 352.711 245.177 350.989L247.049 350.968C246.727 350.864 246.428 350.696 246.172 350.473C245.916 350.25 245.708 349.978 245.56 349.672C245.413 349.366 245.329 349.034 245.313 348.695C245.297 348.356 245.351 348.017 245.47 347.699C245.612 347.318 245.845 346.978 246.148 346.708C246.451 346.437 246.815 346.244 247.209 346.146L251.472 345.079L258.166 333.292L265 332.83C266.523 334.775 267.586 337.04 268.11 339.455C268.633 341.87 268.602 344.373 268.019 346.774C267.399 349.309 266.442 351.458 265.231 352.012Z" fill="#2F2E41"/>
<path d="M307.197 334.91H300.825L297.04 282.218L313.66 278.983L307.197 334.91Z" fill="#A0616A"/>
<path d="M307.658 352.012C305.959 352.788 304.536 346.498 303.103 347.908C299.094 351.852 292.955 352.711 287.604 350.989L289.477 350.968C289.154 350.864 288.856 350.696 288.6 350.473C288.344 350.25 288.136 349.978 287.988 349.672C287.84 349.367 287.756 349.034 287.741 348.695C287.725 348.356 287.779 348.017 287.898 347.699C288.04 347.318 288.273 346.978 288.576 346.708C288.879 346.437 289.243 346.244 289.636 346.146L293.9 345.079L300.594 333.292L307.889 332.368L308.073 332.67C309.484 334.945 310.393 337.496 310.741 340.152C311.088 342.807 310.866 345.506 310.089 348.069C309.483 350.015 308.657 351.556 307.658 352.012Z" fill="#2F2E41"/>
<path d="M314.421 150.294C308.561 151.11 304.505 154.323 302.852 160.732L292.081 140.821C291.443 139.556 291.281 138.102 291.625 136.727C291.97 135.352 292.798 134.147 293.958 133.334C295.189 132.47 296.703 132.111 298.19 132.329C299.677 132.547 301.024 133.326 301.956 134.506L314.421 150.294Z" fill="#DAF0F0"/>
<path d="M325.708 276.672C299.519 288.273 272.717 289.7 245.379 282.218C255.362 243.453 267.15 208.401 267.077 179.607L293.853 177.296L297.976 183.84C307.758 199.366 314.51 216.608 317.874 234.652L325.708 276.672Z" fill="#2F2E41"/>
<path d="M281.851 119.982C289.5 119.982 295.701 113.774 295.701 106.116C295.701 98.4579 289.5 92.2498 281.851 92.2498C274.202 92.2498 268.001 98.4579 268.001 106.116C268.001 113.774 274.202 119.982 281.851 119.982Z" fill="#A0616A"/>
<path d="M297.085 130.613L280.004 131.537L277.233 116.284L291.083 113.974L297.085 130.613Z" fill="#A0616A"/>
<path d="M295.239 179.607L276.525 180.135L267.078 181.456C262.44 166.119 258.536 150.817 268.001 138.009L279.081 126.916L295.701 126.453L295.921 126.579C298.56 128.093 300.606 130.462 301.72 133.296C302.835 136.13 302.952 139.259 302.053 142.168C297.928 155.587 295.279 168.258 295.239 179.607Z" fill="#DAF0F0"/>
<path d="M266.615 222.593L265.454 238.476C265.392 239.327 265.025 240.127 264.421 240.728C263.816 241.329 263.015 241.691 262.165 241.748C261.675 241.781 261.184 241.711 260.723 241.543C260.261 241.375 259.84 241.113 259.485 240.773C259.131 240.433 258.851 240.022 258.664 239.568C258.477 239.114 258.386 238.625 258.397 238.134L258.767 222.593L270.309 178.683L270.77 151.875L283.697 151.413L282.774 182.381L266.615 222.593Z" fill="#A0616A"/>
<path d="M285.083 153.724C279.602 151.492 274.483 152.24 269.848 156.959L270.483 134.325C270.563 132.909 271.15 131.57 272.136 130.552C273.122 129.535 274.441 128.907 275.852 128.784C277.349 128.654 278.84 129.102 280.018 130.036C281.196 130.97 281.973 132.32 282.189 133.809L285.083 153.724Z" fill="#DAF0F0"/>
<path d="M311.166 167.821H268.693C278.601 141.553 281.797 117.116 268.693 96.1785C268.918 89.89 276.974 84.4383 283.231 85.0406C290.62 85.7519 300.549 91.1881 301.933 98.4896L311.166 167.821Z" fill="#2F2E41"/>
<path d="M175.807 83.886H173.869V30.7523C173.869 26.7139 173.075 22.715 171.531 18.9839C169.988 15.2529 167.725 11.8627 164.873 9.00712C162.021 6.1515 158.635 3.8863 154.908 2.34085C151.181 0.79541 147.187 -1.21022e-05 143.153 1.38104e-10H30.716C26.6823 -8.91734e-06 22.6881 0.795419 18.9615 2.34087C15.2348 3.88631 11.8487 6.15151 8.99649 9.00713C6.14425 11.8628 3.88173 15.2529 2.3381 18.9839C0.794484 22.715 -4.45345e-06 26.7139 0 30.7523V322.248C-3.18103e-06 326.286 0.794484 330.285 2.3381 334.016C3.88173 337.747 6.14425 341.137 8.99649 343.993C11.8487 346.848 15.2348 349.114 18.9615 350.659C22.6881 352.205 26.6823 353 30.716 353H143.153C147.187 353 151.181 352.205 154.908 350.659C158.635 349.114 162.021 346.849 164.873 343.993C167.725 341.137 169.988 337.747 171.531 334.016C173.075 330.285 173.869 326.286 173.869 322.248V121.707H175.807V83.886Z" fill="#3F3D56"/>
<path d="M144.393 8.00073H129.716C130.391 9.65745 130.649 11.4549 130.466 13.2348C130.284 15.0147 129.667 16.7224 128.67 18.2074C127.674 19.6925 126.327 20.9093 124.75 21.7507C123.173 22.592 121.413 23.0322 119.626 23.0323H55.2121C53.425 23.0322 51.6653 22.592 50.0881 21.7507C48.5109 20.9093 47.1646 19.6925 46.1678 18.2074C45.171 16.7224 44.5542 15.0147 44.3718 13.2348C44.1895 11.4549 44.4471 9.65745 45.1221 8.00073H31.4139C28.4016 8.00073 25.4188 8.59474 22.6358 9.74886C19.8528 10.903 17.3241 12.5946 15.1941 14.7271C13.0641 16.8597 11.3744 19.3914 10.2217 22.1777C9.06891 24.964 8.47559 27.9503 8.47559 30.9662V322.034C8.47559 325.05 9.0689 328.036 10.2217 330.822C11.3744 333.609 13.064 336.14 15.1941 338.273C17.3241 340.405 19.8528 342.097 22.6358 343.251C25.4188 344.405 28.4016 344.999 31.4139 344.999H144.393C147.405 344.999 150.388 344.405 153.171 343.251C155.954 342.097 158.483 340.405 160.613 338.273C162.743 336.14 164.432 333.609 165.585 330.822C166.738 328.036 167.331 325.05 167.331 322.034V30.9662C167.331 24.8753 164.914 19.034 160.613 14.7271C156.311 10.4203 150.477 8.00072 144.393 8.00073Z" fill="white"/>
<path d="M147.493 53.4675H28.3145V155.811H147.493V53.4675Z" fill="#E6E6E6"/>
<path d="M87.6803 177.152C92.4964 177.152 96.4006 173.243 96.4006 168.422C96.4006 163.6 92.4964 159.691 87.6803 159.691C82.8642 159.691 78.96 163.6 78.96 168.422C78.96 173.243 82.8642 177.152 87.6803 177.152Z" fill="#DAF0F0"/>
<path d="M147.493 197.524H28.3145V299.867H147.493V197.524Z" fill="#E6E6E6"/>
<path d="M88.7203 322.461C93.5365 322.461 97.4407 318.553 97.4407 313.731C97.4407 308.909 93.5365 305 88.7203 305C83.9042 305 80 308.909 80 313.731C80 318.553 83.9042 322.461 88.7203 322.461Z" fill="#DAF0F0"/>
<g clip-path="url(#clip1)">
<path d="M86.8333 139C107.176 139 123.667 134.188 123.667 128.252C123.667 122.317 107.176 117.505 86.8333 117.505C66.4908 117.505 50 122.317 50 128.252C50 134.188 66.4908 139 86.8333 139Z" fill="#F5F5F5"/>
<path d="M106.804 104.515C106.804 104.515 102.244 107.808 103.449 114.092C104.653 120.376 97.0439 129.14 97.0439 129.14C97.0439 129.14 97.1093 129.14 97.2315 129.14C105.468 129.099 111.008 120.457 107.728 112.742C106.511 109.874 105.661 106.609 106.804 104.515Z" fill="#DAF0F0"/>
<path d="M106.804 104.515C106.804 104.515 103.793 109.003 105.318 113.363C106.844 117.723 103.155 128.563 97.0469 129.14" stroke="#535461" stroke-miterlimit="10"/>
<path d="M111.038 121.809C111.038 121.809 106.718 120.309 105.63 124.304C104.543 128.298 96.3115 127.433 96.3115 127.433C96.3115 127.433 96.358 127.479 96.4466 127.563C102.408 133.242 109.104 132.733 109.141 126.583C109.154 124.298 109.559 122.073 111.038 121.809Z" fill="#DAF0F0"/>
<path opacity="0.2" d="M111.038 121.809C111.038 121.809 106.718 120.309 105.63 124.304C104.543 128.298 96.3115 127.433 96.3115 127.433C96.3115 127.433 96.358 127.479 96.4466 127.563C102.408 133.242 109.104 132.733 109.141 126.583C109.154 124.298 109.559 122.073 111.038 121.809Z" fill="#F5F5F5"/>
<path d="M111.038 121.809C111.038 121.809 107.46 121.979 107.206 125.229C106.951 128.479 100.906 131.369 96.3115 127.433" stroke="#535461" stroke-miterlimit="10"/>
<path d="M103.453 112.691C103.711 111.373 103.652 109.453 101.541 108.518C102.669 106.665 102.139 105.355 101.118 104.89C101.111 104.407 100.987 103.426 100.156 102.9C100.266 101.988 100.445 98.3627 96.4343 97.9567C95.9637 97.1273 94.4907 94.8815 92.0912 94.2594V91.0084C91.513 92.2482 87.8753 92.9564 87.8753 92.9564C83.706 93.5512 82.7708 95.957 82.56 97.0078C82.0231 97.0245 81.5508 97.0957 81.2849 97.2661C80.4108 97.8241 74.1714 99.4891 74.66 103.903C74.574 103.933 74.4931 103.963 74.4097 103.991C74.4097 103.991 70.9966 106.772 71.9146 108.984L71.5704 109.009C71.5704 109.009 69.5916 110.259 70.1999 112.721C70.1191 112.81 70.0612 112.919 70.0312 113.037C70.0012 113.154 70 113.278 70.0278 113.396L74.7332 129.413C74.7638 129.525 74.8305 129.623 74.9225 129.691C75.135 129.842 75.5763 130.143 76.2199 130.509L76.2251 130.534L76.2534 130.528C76.9862 130.941 77.7424 131.309 78.5179 131.631V131.649L78.5463 131.644C79.0918 131.87 79.6898 132.091 80.3359 132.295V132.309H80.3643C80.9623 132.496 81.6007 132.668 82.276 132.814V132.823H82.3044C82.9385 132.959 83.6062 133.072 84.3031 133.153H84.3298C85.1867 133.251 86.0486 133.295 86.9109 133.286H86.9685C87.7759 133.275 88.5819 133.216 89.3827 133.11H89.4111V133.105C90.0587 133.02 90.7209 132.9 91.3977 132.746L91.3908 132.814L91.4485 132.821L91.4571 132.733C92.1322 132.576 92.8205 132.38 93.522 132.145H93.5504V132.131C94.1331 131.933 94.7236 131.707 95.3219 131.451L95.3502 131.456V131.437C96.0437 131.137 96.7463 130.794 97.4582 130.408L97.4866 130.414L97.4917 130.389C97.8932 130.17 98.2979 129.935 98.7057 129.686C98.8137 129.62 98.8935 129.515 98.9294 129.391L103.619 113.362C103.647 113.244 103.645 113.121 103.615 113.003C103.585 112.886 103.528 112.778 103.447 112.688L103.453 112.691Z" fill="url(#paint0_linear)"/>
<path d="M96.2431 98.7721C96.2431 98.7721 94.1266 94.335 90.1155 94.7901C86.1045 95.2452 90.3943 99.4548 90.3943 99.4548C90.3943 99.4548 95.2967 99.8528 96.2431 98.7721Z" fill="#DAF0F0"/>
<path opacity="0.1" d="M96.2431 98.7721C96.2431 98.7721 94.1266 94.335 90.1155 94.7901C86.1045 95.2452 90.3943 99.4548 90.3943 99.4548C90.3943 99.4548 95.2967 99.8528 96.2431 98.7721Z" fill="black"/>
<path d="M82.6523 98.0323C82.6523 98.0323 82.6523 97.9743 82.6627 97.8724C82.7341 97.1616 83.3045 94.2989 87.8326 93.6549C87.8326 93.6549 91.3421 92.9722 91.8988 91.7772V95.4183C91.8988 95.4183 91.1743 97.9787 87.5539 98.8319C83.9334 99.685 82.6523 98.0323 82.6523 98.0323Z" fill="#DAF0F0"/>
<path d="M72.1235 109.125C72.1235 109.125 69.5019 110.775 71.3431 114.018C73.1843 117.26 102.427 114.018 102.427 114.018C102.427 114.018 104.319 110.036 100.923 108.613C97.5259 107.19 72.1235 109.125 72.1235 109.125Z" fill="#784F69"/>
<path opacity="0.1" d="M100.626 105.268C100.619 104.802 100.499 103.862 99.698 103.351C99.8038 102.472 99.9776 98.9777 96.1111 98.5867C95.6569 97.7872 94.239 95.6187 91.9254 95.0238V91.8879C91.3688 93.0829 87.8593 93.7656 87.8593 93.7656C83.8414 94.3394 82.9397 96.6572 82.7375 97.6694C82.2213 97.6852 81.7653 97.7573 81.5089 97.9181C80.6666 98.4558 74.6535 100.06 75.1207 104.315C75.0398 104.343 74.9598 104.373 74.8798 104.402C74.8798 104.402 70.1391 108.269 73.5763 110.405C73.5763 110.405 75.1585 113.505 79.7822 111.115L79.7968 111.106C81.5382 111.616 86.204 112.687 88.9735 110.546L89.1722 110.392C90.2735 111.063 92.883 112.288 95.1011 110.546L95.12 110.531C95.9804 111.358 97.7312 112.41 99.8357 110.261C102.356 107.69 101.866 105.836 100.626 105.268Z" fill="black"/>
<path d="M94.5166 109.751C94.5166 109.751 96.8009 113.221 99.8087 110.149C102.817 107.077 101.536 105.029 99.8087 104.972C98.082 104.915 94.5166 109.751 94.5166 109.751Z" fill="#DAF0F0"/>
<path opacity="0.15" d="M94.5166 109.751C94.5166 109.751 96.8009 113.221 99.8087 110.149C102.817 107.077 101.536 105.029 99.8087 104.972C98.082 104.915 94.5166 109.751 94.5166 109.751Z" fill="black"/>
<path d="M100.589 105.428C100.589 105.428 101.145 100.595 93.9638 104.29C86.7823 107.985 88.6157 109.922 88.6157 109.922C88.6157 109.922 92.1811 112.71 95.0771 110.434C97.9731 108.159 99.7524 107.476 100.589 105.428Z" fill="#DAF0F0"/>
<path opacity="0.1" d="M100.589 105.428C100.589 105.428 101.145 100.595 93.9638 104.29C86.7823 107.985 88.6157 109.922 88.6157 109.922C88.6157 109.922 92.1811 112.71 95.0771 110.434C97.9731 108.159 99.7524 107.476 100.589 105.428Z" fill="black"/>
<path d="M95.0743 103.948C95.0743 103.948 92.3444 102.015 88.1673 103.948C83.9902 105.881 79.0869 110.775 79.0869 110.775C79.0869 110.775 85.4932 113.111 88.9468 110.434C92.4003 107.756 94.9074 105.769 95.0743 103.948Z" fill="#DAF0F0"/>
<path opacity="0.07" d="M95.0743 103.948C95.0743 103.948 92.3444 102.015 88.1673 103.948C83.9902 105.881 79.0869 110.775 79.0869 110.775C79.0869 110.775 85.4932 113.111 88.9468 110.434C92.4003 107.756 94.9074 105.769 95.0743 103.948Z" fill="black"/>
<path d="M89.4481 103.664C89.4481 103.664 83.8772 102.868 81.315 104.46C78.7529 106.053 73.5459 110.292 73.5459 110.292C73.5459 110.292 75.1281 113.393 79.7518 111.003C79.7552 111.002 89.3363 104.916 89.4481 103.664Z" fill="#DAF0F0"/>
<path opacity="0.03" d="M89.4481 103.664C89.4481 103.664 83.8772 102.868 81.315 104.46C78.7529 106.053 73.5459 110.292 73.5459 110.292C73.5459 110.292 75.1281 113.393 79.7518 111.003C79.7552 111.002 89.3363 104.916 89.4481 103.664Z" fill="black"/>
<path d="M74.8527 104.29C74.8527 104.29 69.8952 108.332 73.7944 110.434C73.7944 110.434 82.0385 104.916 82.2062 104.29C82.2062 104.29 78.3638 102.925 74.8527 104.29Z" fill="#DAF0F0"/>
<path d="M85.6597 97.8048C85.6597 97.8048 82.3731 97.2363 81.4818 97.8048C80.5904 98.3733 73.9062 100.138 75.2423 104.973L77.2453 104.236C77.2453 104.236 81.092 99.2835 85.6597 97.8048Z" fill="#DAF0F0"/>
<path opacity="0.1" d="M85.6597 97.8048C85.6597 97.8048 82.3731 97.2363 81.4818 97.8048C80.5904 98.3733 73.9062 100.138 75.2423 104.973L77.2453 104.236C77.2453 104.236 81.092 99.2835 85.6597 97.8048Z" fill="black"/>
<path d="M91.119 98.5445C91.119 98.5445 88.7796 96.326 83.5985 98.3741C78.4173 100.422 76.6914 104.12 76.6914 104.12L84.4623 104.717C84.4623 104.717 88.8347 98.317 91.119 98.5445Z" fill="#DAF0F0"/>
<path opacity="0.07" d="M91.119 98.5445C91.119 98.5445 88.7796 96.326 83.5985 98.3741C78.4173 100.422 76.6914 104.12 76.6914 104.12L84.4623 104.717C84.4623 104.717 88.8347 98.317 91.119 98.5445Z" fill="black"/>
<path d="M94.7388 98.8283C94.7388 98.8283 91.0065 97.5771 88.114 99.2834C85.2214 100.99 84.1562 104.346 84.1562 104.346L88.7799 104.119C88.7799 104.119 92.3995 98.3169 94.7388 98.8283Z" fill="#DAF0F0"/>
<path opacity="0.03" d="M94.7388 98.8283C94.7388 98.8283 91.0065 97.5771 88.114 99.2834C85.2214 100.99 84.1562 104.346 84.1562 104.346L88.7799 104.119C88.7799 104.119 92.3995 98.3169 94.7388 98.8283Z" fill="black"/>
<path d="M99.6419 103.437C99.6419 103.437 100.923 96.7811 92.4561 98.8292C92.4561 98.8292 87.644 103.153 88.9922 104.347C90.3404 105.541 99.6419 103.437 99.6419 103.437Z" fill="#DAF0F0"/>
<path opacity="0.1" d="M70.6327 113.24L75.1668 128.675C75.1983 128.782 75.264 128.875 75.3535 128.939C76.6191 129.843 86.3568 136.258 98.2815 128.939C98.3854 128.874 98.4621 128.773 98.4966 128.654L103.016 113.207C103.041 113.123 103.043 113.034 103.023 112.948C103.003 112.863 102.961 112.784 102.901 112.721C102.842 112.657 102.767 112.611 102.684 112.586C102.601 112.562 102.514 112.56 102.43 112.582L100.467 113.083C100.399 113.1 100.329 113.102 100.26 113.09L98.4149 112.738C98.3063 112.718 98.194 112.735 98.0965 112.788L95.906 113.981C95.8005 114.039 95.678 114.054 95.5619 114.025L93.2053 113.427C93.1162 113.404 93.0225 113.408 92.9352 113.437L90.1983 114.351C90.1371 114.372 90.0725 114.38 90.0083 114.375C89.944 114.37 89.8814 114.351 89.8241 114.322L88.0113 113.374C87.8966 113.314 87.7633 113.303 87.6405 113.343L85.3028 114.104C85.2439 114.124 85.182 114.131 85.1204 114.126L82.8697 113.966C82.8359 113.963 82.8025 113.957 82.7699 113.948L80.9838 113.427C80.9084 113.405 80.8291 113.402 80.7523 113.418L78.2779 113.931C78.1852 113.951 78.0889 113.942 78.0009 113.907L75.5918 112.932C75.5074 112.898 75.4153 112.889 75.326 112.905L73.4082 113.257C73.3307 113.271 73.251 113.266 73.1759 113.242L71.2435 112.621C71.1591 112.595 71.0692 112.592 70.9835 112.614C70.8978 112.635 70.8194 112.68 70.7567 112.744C70.6939 112.807 70.6493 112.887 70.6275 112.974C70.6056 113.062 70.6074 113.153 70.6327 113.24Z" fill="black"/>
<path d="M70.6327 113.353L75.1668 128.788C75.1983 128.895 75.264 128.988 75.3535 129.052C76.6191 129.956 86.3568 136.371 98.2815 129.052C98.3854 128.988 98.4621 128.886 98.4966 128.767L103.016 113.321C103.041 113.236 103.043 113.147 103.023 113.062C103.003 112.976 102.961 112.898 102.901 112.834C102.842 112.77 102.767 112.724 102.684 112.7C102.601 112.675 102.514 112.674 102.43 112.695L100.469 113.199C100.401 113.216 100.331 113.218 100.262 113.206L98.4166 112.854C98.308 112.834 98.1958 112.851 98.0983 112.904L95.9078 114.097C95.8022 114.155 95.6797 114.17 95.5636 114.141L93.2079 113.54C93.1188 113.517 93.0251 113.521 92.9378 113.55L90.2009 114.465C90.1397 114.485 90.0751 114.493 90.0109 114.488C89.9466 114.483 89.884 114.465 89.8267 114.435L88.0139 113.486C87.8992 113.426 87.7659 113.414 87.643 113.454L85.3054 114.216C85.2465 114.235 85.1846 114.243 85.123 114.238L82.8697 114.077C82.8359 114.075 82.8025 114.069 82.7699 114.06L80.9838 113.539C80.9084 113.517 80.8291 113.514 80.7523 113.53L78.2779 114.045C78.1852 114.064 78.0889 114.056 78.0009 114.02L75.5918 113.046C75.5074 113.011 75.4153 113.002 75.326 113.018L73.4082 113.37C73.3307 113.384 73.251 113.379 73.1759 113.355L71.2435 112.735C71.1591 112.708 71.0692 112.705 70.9835 112.727C70.8978 112.749 70.8194 112.794 70.7567 112.857C70.6939 112.921 70.6493 113 70.6275 113.088C70.6056 113.175 70.6074 113.267 70.6327 113.353Z" fill="#4D4981"/>
<path opacity="0.5" d="M75.6061 107.85L75.1321 107.682L74.8662 107.247L76.0484 105.735L76.5224 105.904L76.7883 106.339L75.6061 107.85Z" fill="white"/>
<path opacity="0.5" d="M98.0563 110.411L97.5814 110.242L97.3164 109.807L98.4977 108.296L98.9718 108.464L99.2376 108.899L98.0563 110.411Z" fill="white"/>
<path opacity="0.5" d="M88.196 102.161L87.7219 101.993L87.4561 101.558L88.6373 100.046L89.1123 100.215L89.3773 100.65L88.196 102.161Z" fill="white"/>
<path opacity="0.5" d="M90.8573 107.719L90.3987 107.927L89.9135 107.795L89.7646 105.866L90.2232 105.659L90.7085 105.791L90.8573 107.719Z" fill="white"/>
<path opacity="0.5" d="M83.1315 102.985L82.8149 103.383L82.3236 103.49L81.3359 101.839L81.6534 101.441L82.1447 101.335L83.1315 102.985Z" fill="white"/>
<path opacity="0.5" d="M82.5749 107.65L82.2574 108.048L81.767 108.154L80.7793 106.504L81.0959 106.106L81.5872 106L82.5749 107.65Z" fill="white"/>
<path opacity="0.5" d="M96.1988 108.104L95.8349 108.457L95.3341 108.499L94.5615 106.733L94.9263 106.379L95.4262 106.338L96.1988 108.104Z" fill="white"/>
<path opacity="0.5" d="M93.7158 102.052L93.8389 101.555L94.2398 101.247L95.8177 102.317L95.6947 102.815L95.2937 103.123L93.7158 102.052Z" fill="white"/>
<path opacity="0.5" d="M76.943 102.788L76.469 102.619L76.2031 102.184L77.3853 100.673L77.8593 100.84L78.1252 101.275L76.943 102.788Z" fill="#FD6F8D"/>
<path opacity="0.5" d="M82.912 99.946L82.7959 99.4478L83.0127 98.9847L84.8961 99.1895L85.0122 99.6885L84.7954 100.152L82.912 99.946Z" fill="#FD6F8D"/>
<path opacity="0.5" d="M92.0391 97.1098L92.1328 96.6063L92.5157 96.2742L94.1521 97.2477L94.0584 97.7512L93.6755 98.0833L92.0391 97.1098Z" fill="#FD6F8D"/>
<path opacity="0.5" d="M88.3903 94.5695L88.8798 94.4553L89.3307 94.6811L89.1113 96.6027L88.6217 96.7161L88.1709 96.4903L88.3903 94.5695Z" fill="#FD6F8D"/>
<path opacity="0.5" d="M85.0302 109.731L84.9141 109.232L85.13 108.769L87.0134 108.974L87.1295 109.473L86.9136 109.936L85.0302 109.731Z" fill="#FD6F8D"/>
<path opacity="0.5" d="M78.0664 110.096L77.7695 109.682L77.7919 109.171L79.6047 108.609L79.9024 109.023L79.8792 109.535L78.0664 110.096Z" fill="#FD6F8D"/>
<path opacity="0.5" d="M97.5611 106.669L97.149 106.377L97.0088 105.884L98.5463 104.755L98.9584 105.047L99.0986 105.539L97.5611 106.669Z" fill="#FD6F8D"/>
<path opacity="0.5" d="M84.5269 107.067L84.1147 106.775L83.9736 106.283L85.5111 105.153L85.9232 105.445L86.0643 105.937L84.5269 107.067Z" fill="#FD6F8D"/>
<path opacity="0.1" d="M75.3287 112.905L73.4109 113.257C73.3334 113.271 73.2537 113.266 73.1786 113.242L73.1468 113.231L76.6373 129.75L73.1468 113.231L71.2462 112.621C71.162 112.595 71.0723 112.592 70.9865 112.613C70.9008 112.634 70.8223 112.678 70.7594 112.741C70.6964 112.805 70.6514 112.884 70.6291 112.971C70.6068 113.058 70.6081 113.15 70.6328 113.236L75.1669 128.672C75.1984 128.778 75.2642 128.871 75.3536 128.935C75.7503 129.219 76.9806 130.044 78.8493 130.817L75.4689 112.893C75.4218 112.89 75.3746 112.894 75.3287 112.905Z" fill="black"/>
<path opacity="0.1" d="M102.432 112.584L100.469 113.084C100.401 113.102 100.331 113.104 100.263 113.091L98.417 112.74C98.3601 112.73 98.3019 112.73 98.245 112.74L95.0186 130.638L98.2432 112.741C98.1927 112.75 98.144 112.767 98.0987 112.792L95.9082 113.985C95.8083 114.039 95.693 114.056 95.5821 114.033L93.2832 131.304C94.5939 130.86 95.8647 130.301 97.0817 129.635L100.6 113.05L97.0809 129.629C97.4789 129.413 97.8805 129.181 98.2854 128.933C98.3893 128.869 98.466 128.768 98.5005 128.649L103.02 113.202C103.043 113.118 103.044 113.029 103.023 112.945C103.002 112.86 102.96 112.783 102.901 112.72C102.841 112.657 102.767 112.612 102.684 112.588C102.602 112.564 102.515 112.562 102.432 112.584Z" fill="black"/>
<path d="M95.5602 114.028L93.2054 113.427C93.1601 113.416 93.1134 113.411 93.0669 113.413L91.2695 131.877C91.9292 131.724 92.6014 131.533 93.2862 131.304L95.5852 114.033L95.5602 114.028Z" fill="#4D4981"/>
<g opacity="0.5">
<path opacity="0.5" d="M73.1748 113.337L73.1201 113.349L76.6107 129.865L76.6653 129.852L73.1748 113.337Z" fill="white"/>
<path opacity="0.5" d="M78.1696 114.067L78.1143 114.075L80.5801 131.572L80.6355 131.564L78.1696 114.067Z" fill="white"/>
<path opacity="0.5" d="M75.4905 112.991L75.4355 113.002L78.8189 130.945L78.8738 130.934L75.4905 112.991Z" fill="white"/>
<path opacity="0.5" d="M80.8965 113.503L80.8408 113.508L82.4468 132.068L82.5025 132.062L80.8965 113.503Z" fill="white"/>
<path opacity="0.5" d="M83.9305 114.154L83.874 114.156L84.3977 132.39L84.4542 132.388L83.9305 114.154Z" fill="white"/>
<path opacity="0.5" d="M86.8466 113.724L86.79 113.724L86.9089 132.519L86.9654 132.518L86.8466 113.724Z" fill="white"/>
<path opacity="0.5" d="M89.9806 114.53L89.2646 132.347L89.3211 132.349L90.0371 114.532L89.9806 114.53Z" fill="white"/>
<path opacity="0.5" d="M93.044 113.501L91.2236 132.06L91.2793 132.066L93.0996 113.507L93.044 113.501Z" fill="white"/>
<path opacity="0.5" d="M95.2041 113.763L92.9648 131.177L93.0202 131.185L95.2594 113.77L95.2041 113.763Z" fill="white"/>
<path opacity="0.5" d="M98.2212 112.812L94.9834 130.74L95.0384 130.75L98.2762 112.823L98.2212 112.812Z" fill="white"/>
<path opacity="0.5" d="M100.567 113.157L97.0586 129.743L97.1133 129.755L100.622 113.169L100.567 113.157Z" fill="white"/>
</g>
<path d="M54.2663 126.211C54.7825 126.036 55.5569 125.835 56.1669 125.906C56.7468 125.69 58.1113 125.126 59.0431 124.291C59.0159 123.463 59.0363 122.635 59.1042 121.809C59.5808 116.274 58.5088 112.628 58.5088 112.628C58.5088 112.628 57.6674 109.846 57.7594 107.537C57.7052 107.641 57.6734 107.704 57.6734 107.704C57.5994 105.712 56.9352 103.65 56.4379 102.367C56.4188 102.361 56.4001 102.354 56.382 102.346L55.815 100.998C55.7707 100.919 55.7355 100.836 55.71 100.749L55.624 100.536L55.6507 100.524C55.6421 100.489 55.6326 100.452 55.624 100.414C55.2687 98.8794 54.9976 95.2391 54.9976 95.2391C54.0435 91.4082 56.3063 89.0359 56.3063 89.0359L60.1461 85.661C60.127 85.7049 60.1143 85.7514 60.1082 85.799L60.1401 85.7709C60.1943 85.6127 60.2536 85.4194 60.3122 85.205C60.1752 85.1061 60.0468 84.9952 59.9284 84.8738C59.4919 84.4526 59.1918 83.9054 59.0681 83.3054C58.9751 82.8388 58.9932 82.3582 59.0121 81.8828L59.0758 80.2556C59.0786 79.937 59.1103 79.6193 59.1704 79.3067C59.4604 78.0115 60.7561 77.11 62.0561 77.0529C62.47 77.0354 62.8829 77.089 63.2951 77.1206C63.6299 77.1486 63.966 77.156 64.3017 77.1426C64.3399 77.1447 64.3778 77.1346 64.4101 77.1136C64.4396 77.0838 64.4566 77.0434 64.4574 77.0011C64.464 76.9256 64.4555 76.8495 64.4324 76.7775C64.4094 76.7054 64.3722 76.6389 64.3232 76.582C64.2729 76.5368 64.2145 76.5022 64.1511 76.4801L64.244 76.5029C64.1983 76.4664 64.1468 76.4381 64.0918 76.4194C64.4239 76.4994 64.7637 76.5829 65.0494 76.7709C65.1311 76.8258 65.2062 76.8904 65.273 76.9633C65.4499 77.1218 65.5648 77.3402 65.5965 77.5784C65.7454 77.4299 65.8882 77.2664 65.9407 77.0626C65.9605 76.9807 65.9605 76.895 65.9407 76.8131C65.9631 76.8418 65.9849 76.8711 66.0061 76.9009C66.0061 76.8921 66.0061 76.8834 66.0001 76.8746C66.2428 77.1828 66.4137 77.5433 66.4999 77.9289C66.5339 77.8872 66.5593 77.839 66.5748 77.7871C66.5903 77.7352 66.5956 77.6807 66.5903 77.6267C66.6092 77.6864 66.6273 77.7471 66.6436 77.8086C66.6514 77.7687 66.6534 77.7278 66.6496 77.6873C66.7986 78.1528 66.8659 78.6415 66.8484 79.1309C66.8484 79.6195 66.6367 80.3795 66.124 80.5508C66.0981 80.5596 66.0706 80.5666 66.0431 80.5728C66.331 81.0294 66.5034 81.5519 66.5449 82.0933C66.5864 82.6347 66.4957 83.1782 66.2809 83.675C66.0661 84.1718 65.7339 84.6064 65.3142 84.9399C64.8944 85.2733 64.4002 85.4951 63.8758 85.5855C63.8678 85.644 63.8597 85.7064 63.8517 85.7726H63.8311C63.8173 85.9044 63.8061 86.0432 63.7975 86.1882C63.9265 86.3175 64.0677 86.4335 64.2191 86.5344C64.6462 86.7948 65.1229 86.9587 65.6172 87.015C66.21 87.0614 66.7864 87.2364 67.3078 87.5281C67.9204 87.8796 68.5984 88.3883 68.8092 89.0078C69.1636 90.0419 71.1115 91.6437 72.4227 91.8432L72.8873 91.8159L72.9209 91.8054V91.8142L73.0345 91.8071H73.0413H73.0714V91.8142L73.1893 91.8071C73.1893 91.8071 73.2014 91.8625 73.2169 91.9609C73.875 91.7307 75.2714 91.0893 77.0885 89.4058C79.1138 87.5299 81.8472 87.8989 82.9012 88.1353C82.937 88.1434 82.9696 88.1624 82.9946 88.1899C83.0196 88.2174 83.0358 88.252 83.041 88.2892C83.0463 88.3263 83.0403 88.3642 83.0239 88.3977C83.0075 88.4313 82.9815 88.459 82.9494 88.4771C82.5243 88.7161 81.8636 89.0631 81.5538 89.1018C81.5538 89.1018 82.1922 89.7766 81.5143 90.1368C81.433 90.1777 81.3423 90.1946 81.2522 90.1857C81.1621 90.1769 81.0762 90.1426 81.0041 90.0868C80.678 89.8434 79.7712 90.3952 78.4582 90.6825C78.4582 90.6825 74.7518 94.5995 72.9131 95.2057C72.87 95.2897 72.8227 95.3712 72.7712 95.45L72.6576 95.4403L72.6516 95.45H72.6361L72.6223 95.573C72.6223 95.573 69.7616 95.4193 68.8367 94.3587C68.7706 94.2985 68.7098 94.2323 68.6552 94.161L69.6498 106.944H69.6403L69.6498 107.065H68.9184C68.8547 108.638 68.9204 110.215 69.1146 111.777V120.107C69.1146 120.107 69.1525 120.84 67.6614 121.908C66.0937 123.019 64.5829 124.212 63.135 125.481L62.9543 125.641C63.2288 128.189 63.8027 132.941 64.281 133.118L63.9859 133.171C64.4944 133.826 65.9269 135.622 66.3649 135.672C66.9009 135.732 67.2579 136.584 66.3649 136.767C65.5406 136.935 63.3983 137.155 61.0607 136.232C60.8917 136.165 60.7497 136.042 60.6573 135.883C60.565 135.724 60.5277 135.537 60.5513 135.354L60.7234 134.011C60.6906 134.03 60.6642 134.058 60.6477 134.093C60.529 134.457 60.6477 133.606 60.6477 133.606C60.1581 131.998 59.7735 130.359 59.4965 128.7L57.731 130.262C57.731 130.262 57.6949 130.217 57.6338 130.136C57.2036 131.141 56.4293 133.195 56.6014 134.701C56.8397 136.768 54.5769 134.944 54.8152 133.728C55.008 132.744 54.1485 128.576 53.8129 127.021C53.7764 126.852 53.8027 126.676 53.8865 126.527C53.9703 126.377 54.1058 126.265 54.2663 126.211Z" fill="url(#paint1_linear)"/>
<path d="M72.753 92.4802C72.753 92.4802 74.4393 92.1832 76.9387 89.868C78.9176 88.036 81.5847 88.3971 82.6171 88.6273C82.6537 88.6329 82.6875 88.6504 82.7136 88.6771C82.7397 88.7039 82.7566 88.7385 82.7619 88.7759C82.7672 88.8132 82.7606 88.8513 82.7431 88.8846C82.7255 88.9178 82.698 88.9444 82.6645 88.9603C82.2489 89.1932 81.6036 89.5323 81.3016 89.571C81.3016 89.571 81.9246 90.23 81.2629 90.5823C81.1836 90.6221 81.095 90.6385 81.007 90.6299C80.919 90.6212 80.8352 90.5877 80.7648 90.5331C80.4464 90.2959 79.5603 90.8345 78.2792 91.1148C78.2792 91.1148 73.2795 96.3989 72.1172 95.508L72.753 92.4802Z" fill="#FEC3BE"/>
<path d="M64.1488 85.2964C64.1488 85.2964 63.6834 87.3173 64.1488 88.7398L62.0564 89.0359L60.1963 88.087V86.8393C60.1963 86.8393 61.0687 84.9397 60.8355 82.743L64.1488 85.2964Z" fill="#FEC3BE"/>
<path d="M58.2189 129.053C58.2189 129.053 56.7072 132.081 56.9404 134.099C57.1735 136.117 54.9615 134.336 55.1964 133.149C55.3848 132.189 54.5451 128.118 54.2181 126.6C54.1822 126.436 54.2074 126.264 54.2888 126.117C54.3703 125.971 54.5021 125.861 54.6587 125.809C55.3581 125.574 56.5274 125.282 57.1159 125.726C57.9866 126.378 58.2189 129.053 58.2189 129.053Z" fill="#8B416F"/>
<path d="M63.9744 132.377C63.9744 132.377 65.9533 134.989 66.4747 135.049C66.9961 135.108 67.3471 135.94 66.4747 136.117C65.6702 136.281 63.5778 136.497 61.2952 135.595C61.13 135.53 60.9912 135.409 60.901 135.253C60.8108 135.098 60.7745 134.915 60.7979 134.736L61.1258 132.198L63.9744 132.377Z" fill="#8B416F"/>
<path d="M67.231 104.651L69.1238 104.909C69.1238 104.909 68.6816 108.153 69.1462 111.716V119.85C69.1462 119.85 69.1832 120.566 67.7274 121.607C66.2005 122.693 64.729 123.857 63.3189 125.096L58.0431 129.764C58.0431 129.764 55.9498 127.151 56.2406 125.608C56.2406 125.608 59.7286 124.48 60.194 122.639C60.4607 121.584 61.8132 120.706 62.9205 120.148C64.347 119.428 65.1248 117.793 64.7342 116.218C64.6697 115.951 64.5698 115.695 64.4374 115.455C63.5073 113.793 62.1703 110.052 62.1703 110.052L64.7282 105.065L67.231 104.651Z" fill="#4D4981"/>
<path opacity="0.05" d="M67.231 104.651L69.1238 104.909C69.1238 104.909 68.6816 108.153 69.1462 111.716V119.85C69.1462 119.85 69.1832 120.566 67.7274 121.607C66.2005 122.693 64.729 123.857 63.3189 125.096L58.0431 129.764C58.0431 129.764 55.9498 127.151 56.2406 125.608C56.2406 125.608 59.7286 124.48 60.194 122.639C60.4607 121.584 61.8132 120.706 62.9205 120.148C64.347 119.428 65.1248 117.793 64.7342 116.218C64.6697 115.951 64.5698 115.695 64.4374 115.455C63.5073 113.793 62.1703 110.052 62.1703 110.052L64.7282 105.065L67.231 104.651Z" fill="black"/>
<path d="M64.4397 132.555C64.4397 132.555 61.0094 133.149 60.8933 133.505C60.7771 133.861 60.8933 133.03 60.8933 133.03C60.8933 133.03 58.9144 126.914 59.3816 121.511C59.8488 116.109 58.8 112.549 58.8 112.549C58.8 112.549 57.5791 108.512 58.2769 106.197C58.9747 103.881 66.2999 104.89 66.2999 104.89C66.2999 104.89 63.742 111.002 63.8005 113.913C63.8005 113.913 63.5097 122.699 62.9866 123.709C62.9866 123.709 63.8005 132.318 64.4397 132.555Z" fill="#4D4981"/>
<path d="M64.0326 86.8392C64.0326 86.8392 63.6841 89.0358 60.1953 88.086L62.5183 106.134C62.5183 106.134 69.2619 106.372 69.2043 105.54L67.8113 94.6179L64.0326 86.8392Z" fill="white"/>
<path opacity="0.1" d="M63.9462 86.7214C63.9462 86.7214 64.6069 87.4454 65.6256 87.5359C66.2043 87.5816 66.7669 87.7526 67.2758 88.0376C67.8781 88.3794 68.5345 88.8768 68.7384 89.483C69.1454 90.6701 71.7033 92.6294 72.8682 92.2138L72.4613 95.7759C72.4613 95.7759 69.148 95.6001 68.5664 94.2918L69.5549 106.997H68.6842C68.6842 106.997 68.2188 103.554 67.8703 102.841C67.5219 102.128 66.8241 98.2106 66.7656 97.2599C66.7071 96.3092 65.8355 90.8458 65.0793 89.8977L63.9453 87.0773L63.9462 86.7214Z" fill="black"/>
<path opacity="0.1" d="M63.9462 86.8999C63.9462 86.8999 64.7205 87.565 65.7418 87.6547C66.3205 87.7006 66.8831 87.8719 67.392 88.1572C67.9942 88.499 68.6507 88.9964 68.8546 89.6026C69.2615 90.7897 71.8194 92.749 72.9844 92.3334L72.5774 95.8955C72.5774 95.8955 69.2641 95.7197 68.6825 94.4114L69.6745 107.115H68.8004C68.8004 107.115 68.3349 103.671 67.9865 102.959C67.638 102.246 66.9403 98.3284 66.8818 97.3777C66.8233 96.4271 65.9517 90.9636 65.1954 90.0156L63.9453 87.2549L63.9462 86.8999Z" fill="black"/>
<path d="M63.9462 86.7812C63.9462 86.7812 64.7205 87.4464 65.7418 87.536C66.3205 87.5816 66.883 87.7527 67.392 88.0377C67.9942 88.3795 68.6507 88.8768 68.8546 89.4831C69.2615 90.6701 71.8194 92.6295 72.9844 92.2139L72.5774 95.7759C72.5774 95.7759 69.2641 95.6002 68.6825 94.2919L69.6745 106.996H68.8004C68.8004 106.996 68.3349 103.553 67.9865 102.84C67.638 102.128 66.9403 98.2098 66.8818 97.2591C66.8233 96.3084 65.9517 90.845 65.1954 89.8969L63.9453 87.1362L63.9462 86.7812Z" fill="#FD6F8D"/>
<path opacity="0.1" d="M60.9843 84.495C61.06 83.9327 60.9086 83.5812 60.8389 82.9214L64.1522 85.4747C64.1522 85.4747 64.073 85.82 64.0128 86.3244C63.8475 86.3516 63.6803 86.3655 63.5129 86.3657C62.3531 86.3657 61.5254 85.4457 60.9843 84.495Z" fill="black"/>
<path d="M63.5096 86.1873C65.2435 86.1873 66.6491 84.7518 66.6491 82.9811C66.6491 81.2104 65.2435 79.7749 63.5096 79.7749C61.7757 79.7749 60.3701 81.2104 60.3701 82.9811C60.3701 84.7518 61.7757 86.1873 63.5096 86.1873Z" fill="#FEC3BE"/>
<path opacity="0.1" d="M66.9355 79.8391C66.954 79.2978 66.8663 78.7583 66.6774 78.2522C66.7284 78.3315 66.7497 78.4269 66.7376 78.5209C66.7254 78.615 66.6806 78.7014 66.6112 78.7645C66.5098 78.2129 66.2323 77.7111 65.8222 77.3376C66.0459 77.3745 66.1603 77.6583 66.1061 77.8832C66.0519 78.1081 65.8816 78.2812 65.7181 78.4411C65.737 78.1011 65.5177 77.7848 65.2389 77.5977C64.9601 77.4105 64.628 77.3341 64.3037 77.2515C64.4164 77.2924 64.5128 77.3702 64.5777 77.4729C64.6426 77.5756 64.6724 77.6973 64.6624 77.8191C64.6616 77.8605 64.645 77.8999 64.616 77.9289C64.5846 77.9497 64.5475 77.9598 64.5102 77.9579C64.1825 77.9711 63.8544 77.964 63.5276 77.9368C63.126 77.8906 62.7221 77.8686 62.3179 77.8709C61.048 77.9254 59.7833 78.8067 59.5002 80.0675C59.4417 80.3727 59.4108 80.6827 59.4082 80.9936L59.3497 82.5866C59.3316 83.0505 59.3135 83.5206 59.4047 83.9757C59.4923 84.3995 59.6705 84.7984 59.9264 85.1438C60.1824 85.4891 60.5098 85.7726 60.8854 85.9738C61.3414 85.299 61.3818 84.4318 61.5402 83.6278C61.5647 83.4415 61.6322 83.2638 61.7372 83.1094C61.8516 82.9635 62.0529 82.8713 62.2233 82.9407C62.3936 83.0101 62.4676 83.2763 62.3257 83.395C62.4478 83.547 62.6888 83.4336 62.829 83.2983C63.2281 82.912 63.5029 82.411 63.6171 81.8617C63.6739 81.5849 63.7307 81.2467 63.9922 81.1509C64.0838 81.1252 64.1795 81.1186 64.2736 81.1316C64.8268 81.1702 65.6923 81.4039 66.2292 81.2247C66.7291 81.0578 66.9355 80.3162 66.9355 79.8391Z" fill="black"/>
<path d="M66.8783 79.7793C66.8968 79.238 66.8091 78.6985 66.6202 78.1924C66.6712 78.2717 66.6925 78.3671 66.6804 78.4611C66.6682 78.5552 66.6233 78.6416 66.554 78.7047C66.4526 78.1531 66.1751 77.6513 65.765 77.2778C65.9887 77.3147 66.1031 77.5985 66.0489 77.8234C65.9947 78.0483 65.8244 78.2214 65.6609 78.3813C65.6798 78.0413 65.4604 77.725 65.1817 77.5378C64.9029 77.3507 64.5708 77.2742 64.2464 77.1917C64.3592 77.2325 64.4556 77.3104 64.5205 77.4131C64.5854 77.5158 64.6152 77.6375 64.6052 77.7593C64.6044 77.8007 64.5877 77.8401 64.5588 77.8691C64.5273 77.8899 64.4903 77.9 64.4529 77.8981C64.1253 77.9113 63.7972 77.9042 63.4704 77.877C63.0688 77.8308 62.6649 77.8088 62.2607 77.8111C60.9908 77.8656 59.7261 78.7469 59.443 80.0077C59.3839 80.3143 59.3528 80.6258 59.3501 80.9382L59.2881 82.5268C59.2701 82.9907 59.252 83.4608 59.3432 83.9159C59.4308 84.3397 59.6089 84.7386 59.8649 85.0839C60.1208 85.4293 60.4483 85.7127 60.8239 85.914C61.2799 85.2392 61.3203 84.3719 61.4786 83.568C61.5032 83.3817 61.5707 83.204 61.6757 83.0496C61.7901 82.9037 61.9914 82.8115 62.1618 82.8809C62.3321 82.9503 62.4061 83.2165 62.2642 83.3351C62.3863 83.4871 62.6272 83.3738 62.7675 83.2385C63.1665 82.8522 63.4414 82.3512 63.5556 81.8019C63.6124 81.5251 63.6691 81.1868 63.9307 81.0911C64.0222 81.0654 64.1179 81.0588 64.212 81.0717C64.7653 81.1104 65.6308 81.3441 66.1677 81.1649C66.671 80.9988 66.8783 80.2564 66.8783 79.7793Z" fill="#FAD375"/>
<path opacity="0.1" d="M73.1313 92.213C73.1313 92.213 73.5967 94.4096 72.7243 95.775L72.2305 95.7337L72.4998 92.2499L73.1313 92.213Z" fill="black"/>
<path d="M73.0151 92.213C73.0151 92.213 73.4805 94.4096 72.6081 95.775L72.1143 95.7337L72.3836 92.2499L73.0151 92.213Z" fill="#FD6F8D"/>
<path opacity="0.1" d="M60.5155 86.2172L56.7686 89.5121C56.7686 89.5121 54.5592 91.8273 55.4893 95.5677C55.4893 95.5677 55.8962 101.029 56.3617 101.267C56.3617 101.267 57.9895 104.592 58.1056 107.739C58.1056 107.739 60.2858 103.258 61.2744 105.988C62.263 108.718 64.5593 109.104 64.5593 109.104L63.2773 92.9555C63.2773 92.9555 60.0509 87.2258 60.5155 86.2172Z" fill="black"/>
<path d="M60.399 86.2172L56.6495 89.5121C56.6495 89.5121 54.4401 91.8273 55.3701 95.5677C55.3701 95.5677 55.7771 101.029 56.2425 101.267C56.2425 101.267 57.8704 104.592 57.9865 107.739C57.9865 107.739 60.2828 103.019 61.2714 105.749C62.26 108.48 64.4401 109.104 64.4401 109.104L63.1608 92.9555C63.1608 92.9555 59.9344 87.2258 60.399 86.2172Z" fill="#FD6F8D"/>
<path d="M58.6849 100.139C58.6849 100.139 57.7548 99.4864 56.2432 101.267L59.9634 108.154L61.2135 106.221C61.2135 106.221 58.5687 100.911 58.6849 100.139Z" fill="#FEC3BE"/>
<path opacity="0.1" d="M59.5857 100.525C59.5857 100.525 57.5285 102.885 56.7258 102.506L55.9824 100.739L58.7717 99.5154L59.5857 100.525Z" fill="black"/>
<path d="M59.5857 100.406C59.5857 100.406 57.5285 102.766 56.7258 102.391L55.9824 100.624L58.7717 99.4004L59.5857 100.406Z" fill="#FD6F8D"/>
<path opacity="0.1" d="M61.0872 105.778C61.0872 105.778 60.1081 107.827 59.585 107.947L60.3404 108.838L61.4451 106.697L61.0872 105.778Z" fill="black"/>
<path d="M61.1458 105.836C61.1458 105.836 60.1667 107.886 59.6436 108.006L60.399 108.893L61.5002 106.759L61.1458 105.836Z" fill="#4D4981"/>
<path opacity="0.1" d="M59.2942 93.1655C59.2942 93.1655 59.178 97.4401 59.6426 99.0428L59.2942 93.1655Z" fill="black"/>
<path opacity="0.1" d="M68.7134 93.994C68.7134 93.994 68.0156 93.7568 68.0156 93.1628L68.7134 93.994Z" fill="black"/>
<g opacity="0.5">
<path opacity="0.5" d="M107.586 94.0987C107.581 94.6601 107.646 95.1794 107.824 95.5862L107.996 98.1343C107.996 98.1343 108.039 98.1097 108.117 98.071C108.013 99.0375 108.088 100.808 109.946 101.141C109.988 101.13 110.027 101.11 110.061 101.083C110.189 100.819 110.304 100.549 110.405 100.274L110.426 100.281L110.405 100.39L110.542 100.434C109.872 101.917 110.026 105.003 110.175 105.305C110.238 105.431 110.285 105.804 110.32 106.227C110.386 107.047 110.357 107.873 110.234 108.687C110.148 109.248 110.123 109.937 110.407 110.224C110.923 110.744 110.865 114.734 110.865 114.734C110.901 114.823 110.941 114.911 110.985 114.997L110.807 115.023C110.807 115.023 110.807 116.584 111.094 117.682C111.259 118.314 111.025 119.137 110.797 119.723C110.482 120.51 110.412 121.377 110.598 122.207C110.766 122.922 111.115 123.635 111.84 123.87C113.446 124.39 113.79 121.673 113.79 121.673C113.79 121.673 113.733 119.592 113.79 119.301C113.808 119.213 113.891 118.963 113.998 118.663C114.385 117.567 114.532 116.397 114.428 115.236L114.362 114.505L114.05 114.551C114.045 114.475 114.041 114.396 114.036 114.314C114.032 114.231 114.029 114.171 114.025 114.097C114.022 114.022 114.018 113.945 114.015 113.866C114.011 113.787 114.008 113.707 114.005 113.626C114.005 113.585 114.004 113.543 114.001 113.502C113.988 113.127 113.977 112.728 113.968 112.332C113.968 112.157 113.96 111.981 113.957 111.81C113.957 111.681 113.953 111.554 113.951 111.431C113.951 111.39 113.951 111.349 113.951 111.308C113.951 111.106 113.946 110.912 113.945 110.734C113.945 110.698 113.945 110.663 113.945 110.629C113.945 110.559 113.945 110.493 113.945 110.43C113.945 110.398 113.945 110.367 113.945 110.337C113.945 110.276 113.945 110.219 113.945 110.161C113.945 110.103 113.945 110.056 113.945 110.009C113.945 109.963 113.945 109.921 113.945 109.879C113.945 109.662 113.954 109.565 113.962 109.645C113.991 109.909 114.077 111.496 113.962 109.47C113.87 107.836 115.31 103.942 115.868 102.502C116.046 102.596 116.219 102.701 116.384 102.817C116.575 105.089 116.313 109.444 116.229 110.724V110.73C116.222 110.829 116.217 110.905 116.212 110.968V110.978L116.208 111.042V111.059V111.078V111.087C116.208 111.087 115.462 115.832 115.462 116.928C115.462 117.774 115.053 118.998 114.866 119.514C114.593 119.636 114.372 119.76 114.372 119.76L114.43 124.097C114.43 124.097 113.799 126.237 116.093 126.757C118.386 127.277 117.412 124.618 117.412 124.618L117.24 122.709L118.042 119.76L117.817 119.714C118.294 118.159 119.57 113.88 119.477 112.938C119.372 111.883 119.887 110.734 119.979 110.539L119.993 110.509C119.501 109.472 120.997 104.007 121.679 101.649C122.53 101.234 123.147 100.911 123.147 100.911C123.147 100.911 123.13 100.878 123.1 100.823L123.147 100.798C122.78 100.096 122.485 99.3575 122.267 98.5938L122.316 98.5428L122.279 98.4365C122.396 98.3214 122.459 98.2538 122.459 98.2538C122.459 98.2538 124.123 98.5428 123.722 97.7336C123.321 96.9244 123.435 95.7127 123.435 95.7127V91.2685L124.238 91.5383C125.748 91.7922 126.018 90.0701 126.01 88.7495C126.012 88.2314 125.976 87.7138 125.902 87.2013C125.902 87.2013 124.755 78.2391 122.747 78.5282C120.866 78.7988 119.212 77.675 119.01 77.5309C118.986 77.4536 118.963 77.3775 118.944 77.3025C119.056 77.1725 119.157 77.0326 119.245 76.8842C119.308 76.8842 119.372 76.8755 119.432 76.8684C119.432 76.8509 119.432 76.8342 119.432 76.8166L119.489 76.8104C119.483 76.6098 119.516 76.4098 119.587 76.2223C119.657 76.0348 119.763 75.8635 119.899 75.7183C120.01 75.6102 120.137 75.5212 120.276 75.4547C120.554 75.322 120.868 75.279 121.141 75.1366C121.237 75.0851 121.324 75.017 121.399 74.9354C121.571 74.7773 121.683 74.5567 121.623 74.3371C121.597 74.2395 121.537 74.1499 121.537 74.0489C121.537 73.9083 121.645 73.7958 121.709 73.6719C121.898 73.3082 121.726 72.853 121.49 72.5174C121.253 72.1817 120.95 71.8654 120.863 71.463C120.827 71.2978 120.83 71.1238 120.777 70.9631C120.604 70.442 119.945 70.2865 119.4 70.3155C118.854 70.3445 118.269 70.4631 117.798 70.189C117.708 70.1227 117.612 70.0667 117.511 70.022C117.391 69.9933 117.267 69.9933 117.148 70.022C116.46 70.1442 115.826 70.493 115.256 70.9007C115.025 71.0581 114.811 71.2376 114.614 71.4366C114.484 71.5626 114.368 71.7032 114.27 71.8558C114.037 72.2222 113.925 72.6896 114.071 73.0999C114.153 73.3265 114.297 73.5241 114.486 73.6693C114.259 73.9728 114.094 74.3195 114 74.6893C113.906 75.059 113.885 75.4442 113.939 75.8222C113.992 76.2002 114.12 76.5635 114.313 76.8905C114.506 77.2176 114.761 77.502 115.064 77.7269C114.968 77.8864 114.86 78.0374 114.74 78.1785V78.1556C114.74 78.1556 112.991 79.0519 112.36 78.9359C111.744 78.8225 110.143 79.869 110.176 81.9637C110.176 82.0164 110.176 82.0709 110.176 82.1254L109.143 85.3948C108.728 86.708 108.516 88.0794 108.516 89.4594C108.516 89.4594 107.568 92.0901 107.586 94.0987ZM110.359 95.4834L111.724 90.2853V91.4223L110.863 94.545C110.863 94.545 110.691 95.5897 110.56 96.6994L110.359 95.4834Z" fill="url(#paint2_linear)"/>
</g>
<path d="M114.428 113.756L114.492 114.471C114.592 115.606 114.45 116.75 114.075 117.823C113.972 118.117 113.892 118.36 113.875 118.447C113.82 118.73 113.875 120.764 113.875 120.764C113.875 120.764 113.543 123.42 111.993 122.911C111.296 122.683 110.961 121.984 110.796 121.286C110.616 120.476 110.683 119.629 110.988 118.859C111.208 118.287 111.433 117.483 111.274 116.865C110.997 115.791 110.997 114.266 110.997 114.266L114.428 113.756Z" fill="#5A5773"/>
<path d="M116.088 101.495C116.088 101.495 113.93 106.864 114.041 108.84C114.152 110.817 114.068 109.264 114.041 109.01C113.992 108.558 114.041 113.93 114.207 114.545C114.207 114.545 111.938 116.24 111.053 113.981C111.053 113.981 111.108 110.082 110.61 109.573C110.337 109.294 110.363 108.621 110.444 108.072C110.564 107.277 110.593 106.471 110.53 105.67C110.497 105.257 110.45 104.894 110.39 104.77C110.224 104.431 110.058 100.588 111.054 99.5145L116.088 101.495Z" fill="#605D82"/>
<path opacity="0.1" d="M113.93 114.548C113.764 113.927 113.715 108.558 113.764 109.013C113.792 109.267 113.875 110.821 113.764 108.843C113.653 106.865 115.811 101.498 115.811 101.498L110.983 99.6016C111.006 99.5726 111.029 99.5454 111.052 99.5199L116.087 101.498C116.087 101.498 113.929 106.866 114.04 108.843C114.151 110.82 114.068 109.267 114.04 109.013C113.991 108.56 114.04 113.933 114.206 114.548C114.206 114.548 113.3 115.225 112.41 115.153C113.202 115.091 113.93 114.548 113.93 114.548Z" fill="black"/>
<path d="M117.968 118.899L117.194 121.781L117.36 123.646C117.36 123.646 118.3 126.245 116.087 125.736C113.875 125.227 114.483 123.137 114.483 123.137L114.428 118.899C114.428 118.899 115.313 118.39 115.7 118.448C116.087 118.505 117.968 118.899 117.968 118.899Z" fill="#5A5773"/>
<path d="M121.787 100.139C121.787 100.139 119.242 108.558 119.85 109.86C119.85 109.86 119.242 111.103 119.352 112.232C119.462 113.361 117.581 119.408 117.581 119.408L114.814 118.899C114.814 118.899 115.479 117.204 115.479 116.131C115.479 115.057 116.198 110.419 116.198 110.419C116.198 110.419 116.806 101.943 116.087 101.039L121.787 100.139Z" fill="#605D82"/>
<g opacity="0.1">
<path opacity="0.1" d="M116.302 101.725C116.761 103.644 116.254 110.706 116.254 110.706C116.254 110.706 115.535 115.339 115.535 116.417C115.535 117.237 115.148 118.418 114.965 118.931L114.815 118.904C114.815 118.904 115.48 117.209 115.48 116.135C115.48 115.061 116.199 110.424 116.199 110.424C116.199 110.424 116.662 103.973 116.302 101.725Z" fill="black"/>
<path opacity="0.1" d="M119.85 109.86L119.836 109.889C119.832 109.86 119.828 109.829 119.825 109.801C119.833 109.821 119.841 109.841 119.85 109.86Z" fill="black"/>
<path opacity="0.1" d="M116.213 101.315C116.188 101.217 116.145 101.125 116.088 101.043L121.787 100.139C121.787 100.139 121.753 100.249 121.696 100.445L116.213 101.315Z" fill="black"/>
</g>
<path d="M108.507 97.0877C108.507 97.0877 107.677 100.251 110.167 100.704C110.207 100.694 110.245 100.674 110.278 100.648C110.278 100.648 111.716 97.766 110.61 96.6361L108.507 97.0877Z" fill="#A1616A"/>
<path d="M118.689 76.067C118.689 76.067 118.523 78.4394 120.349 79.5702C122.174 80.701 116.477 83.8079 116.477 83.8079L113.487 78.949C113.487 78.949 114.758 79.1186 115.532 76.8587L118.689 76.067Z" fill="#A1616A"/>
<path opacity="0.1" d="M119.905 79.7397C119.905 79.7397 117.083 85.7295 114.538 80.0789L110.609 99.9697C110.609 99.9697 116.696 101.891 116.751 102.795C116.806 103.7 122.892 100.478 122.892 100.478C122.892 100.478 121.564 97.9918 121.896 96.4665C122.227 94.9412 119.905 79.7397 119.905 79.7397Z" fill="black"/>
<path d="M119.905 79.6273C119.905 79.6273 117.083 85.617 114.538 79.9665L110.609 99.8564C110.609 99.8564 116.696 101.776 116.752 102.681C116.807 103.586 122.893 100.364 122.893 100.364C122.893 100.364 121.565 97.8777 121.897 96.3523C122.228 94.827 119.905 79.6273 119.905 79.6273Z" fill="#E1E7EF"/>
<path d="M117.139 120.481C117.139 120.481 117.858 118.842 116.199 118.842C114.539 118.842 114.815 120.316 114.815 120.316L117.139 120.481Z" fill="#5A5773"/>
<path d="M113.377 116.243C113.377 116.243 114.041 114.491 112.381 114.435C110.72 114.379 111.55 116.016 111.55 116.016L113.377 116.243Z" fill="#5A5773"/>
<path opacity="0.1" d="M114.788 78.356C114.788 78.356 113.101 79.2346 112.491 79.1186C111.882 79.0026 110.279 80.079 110.389 82.2264L109.389 85.4334C108.989 86.718 108.786 88.0579 108.787 89.4058C108.787 89.4058 107.348 93.4739 108.122 95.2822L108.289 97.7688C108.289 97.7688 109.558 97.0316 110.886 97.2574L110.554 95.2233L112.047 89.4594L114.537 83.3001L114.788 78.356Z" fill="black"/>
<path d="M114.788 78.2426C114.788 78.2426 113.101 79.1212 112.491 79.0052C111.882 78.8892 110.279 79.9656 110.389 82.113L109.389 85.3174C108.989 86.6019 108.786 87.9419 108.787 89.2898C108.787 89.2898 107.348 93.3579 108.122 95.1661L108.289 97.6527C108.289 97.6527 109.561 96.9182 110.889 97.144L110.557 95.1099L112.051 89.346L114.541 83.1867L114.788 78.2426Z" fill="#34D1D1"/>
<path opacity="0.1" d="M111.994 85.1083V91.496L111.163 94.5476C111.163 94.5476 110.61 97.8811 110.776 98.8986C110.942 99.9161 113.598 100.142 114.317 99.294C115.037 98.4461 114.65 91.2105 114.65 91.2105L114.788 80.6158L114.677 80.2766L111.994 85.1083Z" fill="black"/>
<path d="M111.882 84.8254V91.2105L111.052 94.262C111.052 94.262 110.499 97.5956 110.665 98.6131C110.831 99.6306 113.487 99.8564 114.206 99.0085C114.925 98.1606 114.538 90.925 114.538 90.925L114.677 80.3373L111.882 84.8254Z" fill="#34D1D1"/>
<path opacity="0.1" d="M123.032 90.1377L121.261 95.7611L122.091 98.1624C122.091 98.1624 118.163 102.4 115.673 100.366C115.673 100.366 115.396 91.7202 115.95 89.6861C116.504 87.652 119.159 80.8118 119.159 80.8118L119.712 79.0035L122.644 80.6984L123.032 90.1377Z" fill="black"/>
<path d="M123.17 89.8547V95.3902C123.17 95.3902 123.059 96.5772 123.447 97.368C123.835 98.1588 122.23 97.8768 122.23 97.8768C122.23 97.8768 118.301 102.114 115.811 100.08C115.811 100.08 115.534 91.4345 116.088 89.4005C116.643 87.3664 119.298 80.5261 119.298 80.5261L119.851 78.7179L122.783 80.4128L123.17 89.8547Z" fill="#34D1D1"/>
<path d="M117.529 90.1217L119.638 86.8057L119.133 86.4707L117.024 89.7867L117.529 90.1217Z" fill="#E6E6E6"/>
<path opacity="0.1" d="M117.292 90.4355C117.666 89.8416 117.71 89.1902 117.391 88.9806C117.072 88.7709 116.51 89.0824 116.136 89.6764C115.762 90.2703 115.718 90.9217 116.037 91.1313C116.356 91.3409 116.918 91.0294 117.292 90.4355Z" fill="black"/>
<path d="M117.591 90.7288C117.968 90.1358 118.015 89.4837 117.697 89.2723C117.378 89.0608 116.814 89.3701 116.437 89.9631C116.06 90.5561 116.012 91.2081 116.331 91.4196C116.65 91.631 117.214 91.3217 117.591 90.7288Z" fill="#E6E6E6"/>
<path opacity="0.1" d="M117.483 90.657C117.789 90.1751 117.828 89.6452 117.569 89.4734C117.31 89.3017 116.851 89.553 116.545 90.0349C116.239 90.5167 116.2 91.0466 116.459 91.2184C116.718 91.3902 117.177 91.1388 117.483 90.657Z" fill="black"/>
<path opacity="0.1" d="M118.882 77.7339C118.882 77.7339 120.569 79.0053 122.506 78.7224C124.442 78.4394 125.549 87.1987 125.549 87.1987C125.549 87.1987 126.268 91.7193 123.944 91.3239L118.801 89.5719C118.801 89.5719 119.907 88.3848 119.741 86.8595L122.231 87.877L122.12 83.0172L118.882 77.7339Z" fill="black"/>
<path opacity="0.1" d="M125.438 87.0861C125.438 87.0861 126.157 91.6067 123.833 91.2113L118.688 89.4593C118.688 89.4593 119.794 88.2723 119.628 86.7469L122.118 87.7644L125.438 87.0861Z" fill="black"/>
<path d="M119.748 87.3427C119.748 87.3427 118.027 85.024 116.753 86.1363C115.478 87.2487 119.295 89.2898 119.295 89.2898L119.748 87.3427Z" fill="#A1616A"/>
<path d="M118.882 77.6213C118.882 77.6213 120.569 78.8927 122.506 78.6098C124.442 78.3269 125.549 87.0861 125.549 87.0861C125.549 87.0861 126.268 91.6067 123.944 91.2113L118.801 89.4593C118.801 89.4593 119.907 88.2723 119.741 86.7469L122.231 87.7644L122.12 82.9046L119.298 80.5323L118.882 77.6213Z" fill="#34D1D1"/>
<path opacity="0.1" d="M115.478 76.9712L118.632 76.1804C118.632 76.1804 118.468 76.3702 118.66 77.1127C118.152 77.7075 117.528 78.4974 116.696 78.4974C116.1 78.4985 115.519 78.3021 115.042 77.9377C115.22 77.632 115.366 77.3081 115.478 76.9712Z" fill="black"/>
<path d="M116.751 78.384C118.279 78.384 119.518 77.1189 119.518 75.5583C119.518 73.9977 118.279 72.7325 116.751 72.7325C115.223 72.7325 113.984 73.9977 113.984 75.5583C113.984 77.1189 115.223 78.384 116.751 78.384Z" fill="#A1616A"/>
<path opacity="0.1" d="M115.704 74.3326C115.062 74.221 114.357 73.9302 114.142 73.3029C114.004 72.9013 114.109 72.4444 114.334 72.0868C114.558 71.7292 114.889 71.4542 115.229 71.2082C115.783 70.811 116.393 70.4701 117.058 70.3506C117.173 70.3226 117.293 70.3226 117.408 70.3506C117.508 70.3924 117.603 70.4454 117.691 70.5088C118.146 70.7768 118.712 70.6608 119.24 70.6327C119.767 70.6045 120.399 70.7565 120.565 71.2653C120.617 71.4226 120.614 71.5921 120.651 71.7538C120.737 72.1492 121.029 72.4567 121.254 72.7862C121.478 73.1157 121.651 73.5612 121.462 73.9162C121.397 74.0365 121.29 74.1472 121.29 74.2843C121.306 74.3817 121.335 74.4765 121.376 74.5664C121.454 74.8581 121.226 75.1524 120.963 75.2912C120.7 75.4301 120.397 75.4731 120.128 75.6023C119.877 75.7289 119.667 75.9265 119.522 76.1717C119.378 76.4169 119.305 76.6993 119.313 76.9853C119.069 77.0143 118.784 77.0292 118.619 76.8429C118.545 76.7595 118.509 76.6479 118.442 76.5591C118.356 76.4431 118.222 76.3746 118.112 76.2815C117.533 75.7956 117.944 75.1243 117.616 74.6006C117.444 74.3309 117.17 74.4135 116.893 74.4179C116.495 74.4274 116.097 74.3988 115.704 74.3326Z" fill="black"/>
<path d="M115.758 74.2747C115.116 74.1631 114.411 73.8722 114.196 73.2449C114.058 72.8433 114.163 72.3864 114.387 72.0288C114.612 71.6712 114.942 71.3962 115.283 71.1502C115.836 70.753 116.446 70.4121 117.112 70.2926C117.227 70.2646 117.347 70.2646 117.462 70.2926C117.561 70.3344 117.656 70.3874 117.745 70.4508C118.2 70.7188 118.766 70.6028 119.293 70.5747C119.821 70.5466 120.453 70.6986 120.619 71.2073C120.671 71.3646 120.667 71.5342 120.705 71.6958C120.791 72.0912 121.083 72.3987 121.307 72.7282C121.532 73.0577 121.705 73.5032 121.516 73.8582C121.451 73.9785 121.343 74.0893 121.343 74.2263C121.36 74.3237 121.389 74.4186 121.43 74.5084C121.508 74.8001 121.28 75.0944 121.017 75.2333C120.753 75.3721 120.45 75.4151 120.182 75.5443C119.931 75.6709 119.72 75.8686 119.576 76.1137C119.432 76.3589 119.359 76.6413 119.367 76.9273C119.123 76.9563 118.838 76.9712 118.673 76.7849C118.599 76.7015 118.563 76.5899 118.496 76.5011C118.41 76.3852 118.275 76.3166 118.165 76.2235C117.586 75.7376 117.998 75.0663 117.67 74.5426C117.498 74.2729 117.224 74.3555 116.947 74.3599C116.549 74.3694 116.151 74.3409 115.758 74.2747Z" fill="#4A4347"/>
<path opacity="0.1" d="M112.408 83.7806C112.408 83.7806 111.8 87.0018 112.076 88.245C112.245 88.9683 112.22 89.7246 112.004 90.4346" fill="black"/>
<path opacity="0.1" d="M122.243 85.1365C122.243 85.1365 122.508 87.2839 122.066 87.7355L122.243 85.1365Z" fill="black"/>
<path d="M106.792 111.6C106.826 111.6 106.859 111.586 106.883 111.562C106.908 111.537 106.921 111.504 106.921 111.469C106.921 111.434 106.908 111.4 106.883 111.375C106.859 111.351 106.826 111.337 106.792 111.337C106.758 111.337 106.725 111.351 106.701 111.375C106.677 111.4 106.663 111.434 106.663 111.469C106.663 111.504 106.677 111.537 106.701 111.562C106.725 111.586 106.758 111.6 106.792 111.6Z" fill="black"/>
<path d="M83.864 89.7768L80.2793 88.2828L80.0517 88.8523L83.6364 90.3462L83.864 89.7768Z" fill="#E6E6E6"/>
<path opacity="0.1" d="M85.2776 90.6973C85.4213 90.3379 85.0181 89.83 84.3771 89.5628C83.7361 89.2957 83.1 89.3705 82.9564 89.7299C82.8127 90.0894 83.2159 90.5973 83.8569 90.8644C84.4979 91.1316 85.134 91.0568 85.2776 90.6973Z" fill="black"/>
<path d="M85.346 90.7246C85.4896 90.3651 85.0864 89.8572 84.4454 89.59C83.8044 89.3229 83.1683 89.3977 83.0247 89.7571C82.8811 90.1166 83.2843 90.6245 83.9253 90.8917C84.5663 91.1588 85.2024 91.084 85.346 90.7246Z" fill="#E6E6E6"/>
<path opacity="0.1" d="M85.1279 90.634C85.2446 90.3419 84.9169 89.9292 84.3961 89.7121C83.8752 89.495 83.3583 89.5558 83.2416 89.8478C83.1249 90.1398 83.4525 90.5526 83.9734 90.7697C84.4943 90.9867 85.0112 90.926 85.1279 90.634Z" fill="black"/>
</g>
<path d="M46.9266 253.273H43.3743C43.2494 253.273 43.1296 253.322 43.0413 253.409C42.9529 253.497 42.9033 253.615 42.9033 253.739V255.28C42.9033 255.404 42.9529 255.522 43.0413 255.609C43.1296 255.697 43.2494 255.746 43.3743 255.746H43.963V258.056H46.338V255.746H46.9266C47.0515 255.746 47.1713 255.697 47.2597 255.609C47.348 255.522 47.3976 255.404 47.3976 255.28V253.739C47.3976 253.615 47.348 253.497 47.2597 253.409C47.1713 253.322 47.0515 253.273 46.9266 253.273Z" fill="#DAF0F0"/>
<path d="M50.4843 267.382C48.3087 264.234 47.1965 260.487 47.3071 256.676C47.309 256.588 47.2802 256.502 47.2254 256.433C47.1706 256.364 47.0932 256.315 47.0064 256.296V255.63H43.2546V256.287H43.2029C43.15 256.287 43.0977 256.298 43.0492 256.319C43.0007 256.34 42.9571 256.37 42.9212 256.409C42.8852 256.447 42.8576 256.492 42.8401 256.542C42.8226 256.591 42.8156 256.644 42.8195 256.696C43.1151 260.769 42.117 264.422 39.8253 267.655C39.6935 267.841 39.6261 268.064 39.6333 268.291L40.0436 280.837C40.0534 281.117 40.1722 281.382 40.3752 281.577C40.5781 281.773 40.8495 281.883 41.1327 281.885H49.6186C49.9051 281.883 50.1793 281.77 50.3828 281.571C50.5864 281.372 50.7032 281.102 50.7084 280.818L50.8665 268.637C50.8712 268.19 50.7378 267.752 50.4843 267.382Z" fill="#3F3D56"/>
<path opacity="0.2" d="M46.1855 253.775C46.1855 254.042 46.0785 254.297 45.8879 254.486C45.6974 254.674 45.4389 254.78 45.1694 254.78C44.8999 254.78 44.6415 254.674 44.4509 254.486C44.2604 254.297 44.1533 254.042 44.1533 253.775" fill="black"/>
<path d="M49.1417 271.549H48.1142C48.016 270.92 47.6934 270.346 47.2045 269.931C46.7155 269.517 46.0927 269.289 45.4486 269.289C44.8045 269.289 44.1817 269.517 43.6928 269.931C43.2038 270.346 42.8812 270.92 42.7831 271.549H41.7554C41.6461 271.549 41.538 271.573 41.4387 271.618C41.3393 271.663 41.251 271.729 41.1799 271.811C41.1087 271.893 41.0563 271.989 41.0262 272.093C40.9962 272.197 40.9893 272.306 41.0059 272.413L42.1221 279.586H48.5313L49.8871 272.437C49.9076 272.329 49.9038 272.217 49.8758 272.111C49.8478 272.004 49.7964 271.905 49.7253 271.82C49.6541 271.735 49.5649 271.667 49.4641 271.62C49.3632 271.573 49.2532 271.549 49.1417 271.549Z" fill="#DAF0F0"/>
<path d="M135.494 260.02L135.247 269.76L134.942 281.838H124.552L124.194 267.687L124 260.02H135.494Z" fill="#E6E6E6"/>
<path d="M130.437 254.838H128.966V274.111H130.437V254.838Z" fill="#DAF0F0"/>
<path d="M134.758 267.359L134.479 281.203H125.009L124.683 264.983C125.536 264.746 126.429 264.685 127.307 264.805C128.185 264.924 129.029 265.221 129.786 265.677C131.368 266.602 133.146 267.1 134.758 267.359Z" fill="#3F3D56"/>
<path d="M127.354 268.917H126.004V270.252H127.354V268.917Z" fill="#E6E6E6"/>
<path d="M128.274 266.19H126.924V267.525H128.274V266.19Z" fill="#E6E6E6"/>
<path d="M131.172 268.078L130.088 267.283L129.284 268.355L130.368 269.15L131.172 268.078Z" fill="#E6E6E6"/>
<path d="M133.612 270.443L132.527 269.648L131.723 270.72L132.807 271.515L133.612 270.443Z" fill="#E6E6E6"/>
<path d="M129.474 271.807L128.39 271.011L127.585 272.084L128.67 272.879L129.474 271.807Z" fill="#E6E6E6"/>
<path d="M132.643 265.656C132.795 265.656 132.919 265.534 132.919 265.383C132.919 265.233 132.795 265.111 132.643 265.111C132.491 265.111 132.367 265.233 132.367 265.383C132.367 265.534 132.491 265.656 132.643 265.656Z" fill="#3F3D56"/>
<path d="M127.035 263.838C127.187 263.838 127.31 263.716 127.31 263.565C127.31 263.414 127.187 263.292 127.035 263.292C126.882 263.292 126.759 263.414 126.759 263.565C126.759 263.716 126.882 263.838 127.035 263.838Z" fill="#3F3D56"/>
<path d="M131.724 261.929C131.876 261.929 132 261.807 132 261.656C132 261.505 131.876 261.383 131.724 261.383C131.572 261.383 131.448 261.505 131.448 261.656C131.448 261.807 131.572 261.929 131.724 261.929Z" fill="#3F3D56"/>
<path d="M87.564 281.755C104.254 281.755 117.783 268.379 117.783 251.878C117.783 235.377 104.254 222 87.564 222C70.8743 222 57.3447 235.377 57.3447 251.878C57.3447 268.379 70.8743 281.755 87.564 281.755Z" fill="#DAF0F0"/>
<path opacity="0.2" d="M87.5637 273.685C82.4607 273.685 77.5156 271.936 73.571 268.735C69.6263 265.534 66.9262 261.08 65.9307 256.132C64.9351 251.184 65.7058 246.047 68.1114 241.598C70.5169 237.148 74.4085 233.661 79.1231 231.73C83.8376 229.799 89.0835 229.545 93.9667 231.009C98.85 232.474 103.069 235.567 105.904 239.762C108.739 243.957 110.015 248.994 109.515 254.015C109.014 259.036 106.769 263.73 103.161 267.298C101.117 269.329 98.6864 270.94 96.0092 272.036C93.332 273.133 90.4615 273.693 87.5637 273.685ZM87.5637 231.415C76.1515 231.415 66.8669 240.594 66.8669 251.878C66.8669 263.161 76.1515 272.34 87.5637 272.34C98.9759 272.34 108.261 263.161 108.261 251.878C108.261 240.594 98.9759 231.415 87.5637 231.415Z" fill="black"/>
<path d="M87.5635 273.013C99.3697 273.013 108.94 263.55 108.94 251.878C108.94 240.205 99.3697 230.742 87.5635 230.742C75.7573 230.742 66.1865 240.205 66.1865 251.878C66.1865 263.55 75.7573 273.013 87.5635 273.013Z" fill="#3F3D56"/>
<path d="M71.6659 243.426C71.5037 243.113 71.4058 242.77 71.3776 242.419C71.3495 242.067 71.3916 241.714 71.5017 241.379C71.6117 241.043 71.7876 240.733 72.0191 240.465C72.2506 240.197 72.5333 239.976 72.851 239.816C73.1687 239.657 73.5152 239.56 73.8706 239.533C74.226 239.505 74.5835 239.547 74.9224 239.656C75.2614 239.765 75.5753 239.94 75.8462 240.169C76.117 240.398 76.3396 240.678 76.501 240.992L82.5405 252.718C82.7027 253.032 82.8006 253.374 82.8288 253.726C82.857 254.077 82.8148 254.43 82.7047 254.766C82.5947 255.101 82.4189 255.411 82.1873 255.679C81.9558 255.947 81.6731 256.168 81.3554 256.328C81.0377 256.488 80.6913 256.584 80.3358 256.612C79.9804 256.639 79.623 256.597 79.284 256.488C78.945 256.379 78.6311 256.205 78.3602 255.975C78.0894 255.746 77.8669 255.466 77.7054 255.152L71.6659 243.426Z" fill="#FF6584"/>
<path opacity="0.2" d="M72.3393 244.734L72.0605 244.193C73.4517 243.124 75.0853 242.338 76.8957 241.759L77.1744 242.3C75.215 242.703 73.548 243.45 72.3393 244.734Z" fill="black"/>
<path opacity="0.2" d="M73.6401 247.26L73.3613 246.719C74.7525 245.65 76.3861 244.864 78.1965 244.284L78.4752 244.825C76.5158 245.229 74.8488 245.975 73.6401 247.26Z" fill="black"/>
<path opacity="0.2" d="M74.9409 249.785L74.6621 249.244C76.0533 248.176 77.6868 247.39 79.4973 246.81L79.776 247.351C77.8166 247.754 76.1496 248.501 74.9409 249.785Z" fill="black"/>
<path opacity="0.2" d="M76.2416 252.311L75.9629 251.77C77.354 250.701 78.9876 249.915 80.798 249.335L81.0768 249.877C79.1174 250.28 77.4503 251.027 76.2416 252.311Z" fill="black"/>
<path opacity="0.2" d="M77.5424 254.836L77.2637 254.295C78.6548 253.227 80.2884 252.441 82.0988 251.861L82.3776 252.402C80.4181 252.805 78.7511 253.552 77.5424 254.836Z" fill="black"/>
<path d="M67.1345 247.816C66.9724 247.502 66.8745 247.16 66.8464 246.808C66.8182 246.457 66.8604 246.104 66.9705 245.768C67.0805 245.433 67.2564 245.123 67.4879 244.855C67.7194 244.587 68.0021 244.366 68.3198 244.206C68.6374 244.046 68.9839 243.95 69.3393 243.922C69.6947 243.895 70.0521 243.937 70.391 244.046C70.73 244.155 71.0439 244.329 71.3148 244.559C71.5856 244.788 71.8082 245.067 71.9696 245.382L78.0092 257.107C78.3348 257.741 78.3926 258.477 78.1699 259.153C77.9472 259.829 77.4622 260.39 76.8214 260.712C76.1807 261.035 75.4366 261.093 74.7527 260.873C74.0688 260.654 73.501 260.175 73.174 259.542L67.1345 247.816Z" fill="#FF6584"/>
<path opacity="0.2" d="M67.809 249.124L67.5303 248.583C68.9214 247.514 70.555 246.728 72.3654 246.148L72.6442 246.69C70.6848 247.093 69.0177 247.84 67.809 249.124Z" fill="black"/>
<path opacity="0.2" d="M69.1098 251.65L68.8311 251.108C70.2222 250.04 71.8558 249.254 73.6662 248.674L73.945 249.215C71.9855 249.619 70.3185 250.365 69.1098 251.65Z" fill="black"/>
<path opacity="0.2" d="M70.4106 254.175L70.1318 253.634C71.523 252.565 73.1566 251.779 74.967 251.199L75.2457 251.741C73.2863 252.144 71.6193 252.891 70.4106 254.175Z" fill="black"/>
<path opacity="0.2" d="M71.7114 256.701L71.4326 256.159C72.8238 255.091 74.4574 254.305 76.2678 253.725L76.5465 254.266C74.5871 254.67 72.9201 255.416 71.7114 256.701Z" fill="black"/>
<path opacity="0.2" d="M73.0122 259.226L72.7334 258.685C74.1245 257.616 75.7581 256.83 77.5685 256.25L77.8473 256.792C75.8879 257.195 74.2209 257.942 73.0122 259.226Z" fill="black"/>
<path d="M101.847 252.55L101.866 252.55C102.517 252.555 103.154 252.367 103.694 252.009C104.235 251.651 104.654 251.14 104.896 250.544C105.395 249.297 105.646 247.967 105.637 246.627C105.603 240.953 100.934 236.298 95.1954 236.219C92.7515 236.185 90.371 236.988 88.4574 238.491C86.5438 239.995 85.2148 242.106 84.6958 244.467C84.1767 246.829 84.4995 249.295 85.6094 251.448C86.7194 253.601 88.5482 255.308 90.7858 256.28C91.3771 256.539 92.0337 256.615 92.6696 256.498C93.3055 256.382 93.8908 256.078 94.349 255.627C95.3316 254.65 96.5001 253.875 97.787 253.347C99.0739 252.819 100.454 252.548 101.847 252.55Z" fill="#E6E6E6"/>
<path d="M96.4063 249.38C98.3382 249.38 99.9043 247.831 99.9043 245.921C99.9043 244.011 98.3382 242.463 96.4063 242.463C94.4743 242.463 92.9082 244.011 92.9082 245.921C92.9082 247.831 94.4743 249.38 96.4063 249.38Z" fill="#F9A825"/>
<path d="M88.8027 245.532C89.0303 245.532 89.2148 245.35 89.2148 245.125C89.2148 244.9 89.0303 244.718 88.8027 244.718C88.5751 244.718 88.3906 244.9 88.3906 245.125C88.3906 245.35 88.5751 245.532 88.8027 245.532Z" fill="#3F3D56"/>
<path d="M75.1992 245.917C75.4268 245.917 75.6113 245.734 75.6113 245.509C75.6113 245.284 75.4268 245.102 75.1992 245.102C74.9716 245.102 74.7871 245.284 74.7871 245.509C74.7871 245.734 74.9716 245.917 75.1992 245.917Z" fill="#3F3D56"/>
<path d="M90.999 241.31C91.2266 241.31 91.4111 241.128 91.4111 240.903C91.4111 240.678 91.2266 240.495 90.999 240.495C90.7714 240.495 90.5869 240.678 90.5869 240.903C90.5869 241.128 90.7714 241.31 90.999 241.31Z" fill="#3F3D56"/>
<path d="M90.9883 253.054C91.2159 253.054 91.4004 252.871 91.4004 252.646C91.4004 252.421 91.2159 252.239 90.9883 252.239C90.7607 252.239 90.5762 252.421 90.5762 252.646C90.5762 252.871 90.7607 253.054 90.9883 253.054Z" fill="#3F3D56"/>
<path d="M99.1494 240.468C99.377 240.468 99.5615 240.286 99.5615 240.061C99.5615 239.836 99.377 239.654 99.1494 239.654C98.9218 239.654 98.7373 239.836 98.7373 240.061C98.7373 240.286 98.9218 240.468 99.1494 240.468Z" fill="#3F3D56"/>
<path d="M72.5263 251.613C72.7539 251.613 72.9384 251.43 72.9384 251.205C72.9384 250.98 72.7539 250.798 72.5263 250.798C72.2988 250.798 72.1143 250.98 72.1143 251.205C72.1143 251.43 72.2988 251.613 72.5263 251.613Z" fill="#3F3D56"/>
<path d="M75.5381 257.473C75.7657 257.473 75.9502 257.29 75.9502 257.065C75.9502 256.84 75.7657 256.658 75.5381 256.658C75.3105 256.658 75.126 256.84 75.126 257.065C75.126 257.29 75.3105 257.473 75.5381 257.473Z" fill="#3F3D56"/>
<path d="M94.4629 259.371C95.3215 259.371 96.0176 258.683 96.0176 257.834C96.0176 256.985 95.3215 256.297 94.4629 256.297C93.6043 256.297 92.9082 256.985 92.9082 257.834C92.9082 258.683 93.6043 259.371 94.4629 259.371Z" fill="#FF6584"/>
<path opacity="0.2" d="M95.6289 257.93C95.6289 258.236 95.506 258.529 95.2874 258.745C95.0687 258.961 94.7721 259.083 94.4629 259.083C94.1536 259.083 93.8571 258.961 93.6384 258.745C93.4197 258.529 93.2969 258.236 93.2969 257.93" fill="black"/>
<path opacity="0.2" d="M93.2969 257.738C93.2969 257.432 93.4197 257.139 93.6384 256.923C93.8571 256.706 94.1536 256.585 94.4629 256.585C94.7721 256.585 95.0687 256.706 95.2874 256.923C95.506 257.139 95.6289 257.432 95.6289 257.738" fill="black"/>
<path d="M93.8794 257.45C93.9331 257.45 93.9766 257.385 93.9766 257.305C93.9766 257.226 93.9331 257.161 93.8794 257.161C93.8257 257.161 93.7822 257.226 93.7822 257.305C93.7822 257.385 93.8257 257.45 93.8794 257.45Z" fill="#FF6584"/>
<path d="M94.4624 257.257C94.5161 257.257 94.5596 257.193 94.5596 257.113C94.5596 257.034 94.5161 256.969 94.4624 256.969C94.4087 256.969 94.3652 257.034 94.3652 257.113C94.3652 257.193 94.4087 257.257 94.4624 257.257Z" fill="#FF6584"/>
<path d="M94.4624 258.506C94.5161 258.506 94.5596 258.442 94.5596 258.362C94.5596 258.283 94.5161 258.218 94.4624 258.218C94.4087 258.218 94.3652 258.283 94.3652 258.362C94.3652 258.442 94.4087 258.506 94.4624 258.506Z" fill="#FF6584"/>
<path d="M95.0454 257.738C95.0991 257.738 95.1426 257.673 95.1426 257.594C95.1426 257.514 95.0991 257.45 95.0454 257.45C94.9917 257.45 94.9482 257.514 94.9482 257.594C94.9482 257.673 94.9917 257.738 95.0454 257.738Z" fill="#FF6584"/>
<path d="M94.9487 258.795C95.0024 258.795 95.0459 258.73 95.0459 258.65C95.0459 258.571 95.0024 258.506 94.9487 258.506C94.8951 258.506 94.8516 258.571 94.8516 258.65C94.8516 258.73 94.8951 258.795 94.9487 258.795Z" fill="#FF6584"/>
<path d="M93.7817 258.314C93.8354 258.314 93.8789 258.25 93.8789 258.17C93.8789 258.091 93.8354 258.026 93.7817 258.026C93.7281 258.026 93.6846 258.091 93.6846 258.17C93.6846 258.25 93.7281 258.314 93.7817 258.314Z" fill="#FF6584"/>
<path d="M97.5713 255.24C98.4299 255.24 99.126 254.552 99.126 253.703C99.126 252.854 98.4299 252.166 97.5713 252.166C96.7127 252.166 96.0166 252.854 96.0166 253.703C96.0166 254.552 96.7127 255.24 97.5713 255.24Z" fill="#FF6584"/>
<path opacity="0.2" d="M98.7383 253.799C98.7383 254.105 98.6154 254.398 98.3968 254.614C98.1781 254.83 97.8815 254.952 97.5723 254.952C97.263 254.952 96.9664 254.83 96.7478 254.614C96.5291 254.398 96.4062 254.105 96.4062 253.799" fill="black"/>
<path opacity="0.2" d="M96.4062 253.607C96.4062 253.301 96.5291 253.008 96.7478 252.792C96.9664 252.575 97.263 252.454 97.5723 252.454C97.8815 252.454 98.1781 252.575 98.3968 252.792C98.6154 253.008 98.7383 253.301 98.7383 253.607" fill="black"/>
<path d="M96.9888 253.319C97.0424 253.319 97.0859 253.254 97.0859 253.174C97.0859 253.095 97.0424 253.03 96.9888 253.03C96.9351 253.03 96.8916 253.095 96.8916 253.174C96.8916 253.254 96.9351 253.319 96.9888 253.319Z" fill="#FF6584"/>
<path d="M97.5718 253.126C97.6254 253.126 97.6689 253.062 97.6689 252.982C97.6689 252.903 97.6254 252.838 97.5718 252.838C97.5181 252.838 97.4746 252.903 97.4746 252.982C97.4746 253.062 97.5181 253.126 97.5718 253.126Z" fill="#FF6584"/>
<path d="M97.5718 254.375C97.6254 254.375 97.6689 254.311 97.6689 254.231C97.6689 254.152 97.6254 254.087 97.5718 254.087C97.5181 254.087 97.4746 254.152 97.4746 254.231C97.4746 254.311 97.5181 254.375 97.5718 254.375Z" fill="#FF6584"/>
<path d="M98.1548 253.607C98.2084 253.607 98.252 253.542 98.252 253.463C98.252 253.383 98.2084 253.319 98.1548 253.319C98.1011 253.319 98.0576 253.383 98.0576 253.463C98.0576 253.542 98.1011 253.607 98.1548 253.607Z" fill="#FF6584"/>
<path d="M98.0581 254.664C98.1118 254.664 98.1553 254.599 98.1553 254.519C98.1553 254.44 98.1118 254.375 98.0581 254.375C98.0044 254.375 97.9609 254.44 97.9609 254.519C97.9609 254.599 98.0044 254.664 98.0581 254.664Z" fill="#FF6584"/>
<path d="M96.8921 254.183C96.9458 254.183 96.9893 254.119 96.9893 254.039C96.9893 253.96 96.9458 253.895 96.8921 253.895C96.8384 253.895 96.7949 253.96 96.7949 254.039C96.7949 254.119 96.8384 254.183 96.8921 254.183Z" fill="#FF6584"/>
<path d="M100.682 257.354C101.54 257.354 102.236 256.665 102.236 255.816C102.236 254.967 101.54 254.279 100.682 254.279C99.823 254.279 99.127 254.967 99.127 255.816C99.127 256.665 99.823 257.354 100.682 257.354Z" fill="#DAF0F0"/>
<path opacity="0.2" d="M101.848 255.912C101.848 256.218 101.725 256.511 101.506 256.728C101.287 256.944 100.991 257.065 100.682 257.065C100.372 257.065 100.076 256.944 99.8571 256.728C99.6385 256.511 99.5156 256.218 99.5156 255.912" fill="black"/>
<path opacity="0.2" d="M99.5156 255.72C99.5156 255.415 99.6385 255.121 99.8571 254.905C100.076 254.689 100.372 254.568 100.682 254.568C100.991 254.568 101.287 254.689 101.506 254.905C101.725 255.121 101.848 255.415 101.848 255.72" fill="black"/>
<path d="M100.098 255.432C100.152 255.432 100.195 255.368 100.195 255.288C100.195 255.208 100.152 255.144 100.098 255.144C100.044 255.144 100.001 255.208 100.001 255.288C100.001 255.368 100.044 255.432 100.098 255.432Z" fill="#DAF0F0"/>
<path d="M100.681 255.24C100.735 255.24 100.778 255.175 100.778 255.096C100.778 255.016 100.735 254.952 100.681 254.952C100.627 254.952 100.584 255.016 100.584 255.096C100.584 255.175 100.627 255.24 100.681 255.24Z" fill="#DAF0F0"/>
<path d="M100.681 256.489C100.735 256.489 100.778 256.424 100.778 256.345C100.778 256.265 100.735 256.201 100.681 256.201C100.627 256.201 100.584 256.265 100.584 256.345C100.584 256.424 100.627 256.489 100.681 256.489Z" fill="#DAF0F0"/>
<path d="M101.264 255.72C101.318 255.72 101.361 255.656 101.361 255.576C101.361 255.497 101.318 255.432 101.264 255.432C101.21 255.432 101.167 255.497 101.167 255.576C101.167 255.656 101.21 255.72 101.264 255.72Z" fill="#DAF0F0"/>
<path d="M101.167 256.777C101.221 256.777 101.265 256.713 101.265 256.633C101.265 256.553 101.221 256.489 101.167 256.489C101.114 256.489 101.07 256.553 101.07 256.633C101.07 256.713 101.114 256.777 101.167 256.777Z" fill="#DAF0F0"/>
<path d="M100.001 256.297C100.055 256.297 100.099 256.232 100.099 256.153C100.099 256.073 100.055 256.009 100.001 256.009C99.9478 256.009 99.9043 256.073 99.9043 256.153C99.9043 256.232 99.9478 256.297 100.001 256.297Z" fill="#DAF0F0"/>
<path d="M92.9082 257.546C93.7668 257.546 94.4629 256.857 94.4629 256.009C94.4629 255.16 93.7668 254.471 92.9082 254.471C92.0496 254.471 91.3535 255.16 91.3535 256.009C91.3535 256.857 92.0496 257.546 92.9082 257.546Z" fill="#DAF0F0"/>
<path opacity="0.2" d="M94.0742 256.105C94.0742 256.41 93.9514 256.704 93.7327 256.92C93.514 257.136 93.2174 257.257 92.9082 257.257C92.599 257.257 92.3024 257.136 92.0837 256.92C91.865 256.704 91.7422 256.41 91.7422 256.105" fill="black"/>
<path opacity="0.2" d="M91.7422 255.912C91.7422 255.607 91.865 255.313 92.0837 255.097C92.3024 254.881 92.599 254.76 92.9082 254.76C93.2174 254.76 93.514 254.881 93.7327 255.097C93.9514 255.313 94.0742 255.607 94.0742 255.912" fill="black"/>
<path d="M92.3247 255.624C92.3784 255.624 92.4219 255.56 92.4219 255.48C92.4219 255.401 92.3784 255.336 92.3247 255.336C92.271 255.336 92.2275 255.401 92.2275 255.48C92.2275 255.56 92.271 255.624 92.3247 255.624Z" fill="#DAF0F0"/>
<path d="M92.9077 255.432C92.9614 255.432 93.0049 255.368 93.0049 255.288C93.0049 255.208 92.9614 255.144 92.9077 255.144C92.854 255.144 92.8105 255.208 92.8105 255.288C92.8105 255.368 92.854 255.432 92.9077 255.432Z" fill="#DAF0F0"/>
<path d="M92.9077 256.681C92.9614 256.681 93.0049 256.617 93.0049 256.537C93.0049 256.457 92.9614 256.393 92.9077 256.393C92.854 256.393 92.8105 256.457 92.8105 256.537C92.8105 256.617 92.854 256.681 92.9077 256.681Z" fill="#DAF0F0"/>
<path d="M93.4907 255.912C93.5444 255.912 93.5879 255.848 93.5879 255.768C93.5879 255.689 93.5444 255.624 93.4907 255.624C93.4371 255.624 93.3936 255.689 93.3936 255.768C93.3936 255.848 93.4371 255.912 93.4907 255.912Z" fill="#DAF0F0"/>
<path d="M93.3941 256.969C93.4477 256.969 93.4912 256.905 93.4912 256.825C93.4912 256.746 93.4477 256.681 93.3941 256.681C93.3404 256.681 93.2969 256.746 93.2969 256.825C93.2969 256.905 93.3404 256.969 93.3941 256.969Z" fill="#DAF0F0"/>
<path d="M92.228 256.489C92.2817 256.489 92.3252 256.424 92.3252 256.345C92.3252 256.265 92.2817 256.201 92.228 256.201C92.1744 256.201 92.1309 256.265 92.1309 256.345C92.1309 256.424 92.1744 256.489 92.228 256.489Z" fill="#DAF0F0"/>
<path d="M96.4063 258.218C97.2649 258.218 97.9609 257.53 97.9609 256.681C97.9609 255.832 97.2649 255.144 96.4063 255.144C95.5476 255.144 94.8516 255.832 94.8516 256.681C94.8516 257.53 95.5476 258.218 96.4063 258.218Z" fill="#DAF0F0"/>
<path opacity="0.2" d="M97.5723 256.777C97.5723 256.928 97.5421 257.078 97.4835 257.218C97.4249 257.358 97.339 257.485 97.2307 257.592C97.1225 257.699 96.9939 257.784 96.8525 257.842C96.711 257.9 96.5594 257.93 96.4063 257.93C96.2531 257.93 96.1015 257.9 95.96 257.842C95.8186 257.784 95.69 257.699 95.5818 257.592C95.4735 257.485 95.3876 257.358 95.329 257.218C95.2704 257.078 95.2402 256.928 95.2402 256.777" fill="black"/>
<path opacity="0.2" d="M95.2402 256.585C95.2402 256.434 95.2704 256.284 95.329 256.144C95.3876 256.004 95.4735 255.877 95.5818 255.77C95.69 255.663 95.8186 255.578 95.96 255.52C96.1015 255.462 96.2531 255.432 96.4063 255.432C96.5594 255.432 96.711 255.462 96.8525 255.52C96.9939 255.578 97.1225 255.663 97.2307 255.77C97.339 255.877 97.4249 256.004 97.4835 256.144C97.5421 256.284 97.5723 256.434 97.5723 256.585" fill="black"/>
<path d="M95.8228 256.297C95.8764 256.297 95.9199 256.232 95.9199 256.153C95.9199 256.073 95.8764 256.009 95.8228 256.009C95.7691 256.009 95.7256 256.073 95.7256 256.153C95.7256 256.232 95.7691 256.297 95.8228 256.297Z" fill="#DAF0F0"/>
<path d="M96.4058 256.105C96.4594 256.105 96.5029 256.04 96.5029 255.961C96.5029 255.881 96.4594 255.816 96.4058 255.816C96.3521 255.816 96.3086 255.881 96.3086 255.961C96.3086 256.04 96.3521 256.105 96.4058 256.105Z" fill="#DAF0F0"/>
<path d="M96.4058 257.354C96.4594 257.354 96.5029 257.289 96.5029 257.209C96.5029 257.13 96.4594 257.065 96.4058 257.065C96.3521 257.065 96.3086 257.13 96.3086 257.209C96.3086 257.289 96.3521 257.354 96.4058 257.354Z" fill="#DAF0F0"/>
<path d="M96.9888 256.585C97.0424 256.585 97.0859 256.52 97.0859 256.441C97.0859 256.361 97.0424 256.297 96.9888 256.297C96.9351 256.297 96.8916 256.361 96.8916 256.441C96.8916 256.52 96.9351 256.585 96.9888 256.585Z" fill="#DAF0F0"/>
<path d="M96.8921 257.642C96.9458 257.642 96.9893 257.577 96.9893 257.498C96.9893 257.418 96.9458 257.354 96.8921 257.354C96.8384 257.354 96.7949 257.418 96.7949 257.498C96.7949 257.577 96.8384 257.642 96.8921 257.642Z" fill="#DAF0F0"/>
<path d="M95.7261 257.161C95.7798 257.161 95.8233 257.097 95.8233 257.017C95.8233 256.938 95.7798 256.873 95.7261 256.873C95.6724 256.873 95.6289 256.938 95.6289 257.017C95.6289 257.097 95.6724 257.161 95.7261 257.161Z" fill="#DAF0F0"/>
<path d="M98.835 259.851C99.6936 259.851 100.39 259.163 100.39 258.314C100.39 257.465 99.6936 256.777 98.835 256.777C97.9763 256.777 97.2803 257.465 97.2803 258.314C97.2803 259.163 97.9763 259.851 98.835 259.851Z" fill="#FF6584"/>
<path opacity="0.2" d="M100.001 258.41C100.001 258.716 99.8781 259.009 99.6595 259.225C99.4408 259.442 99.1442 259.563 98.835 259.563C98.5257 259.563 98.2291 259.442 98.0105 259.225C97.7918 259.009 97.6689 258.716 97.6689 258.41" fill="black"/>
<path opacity="0.2" d="M97.6689 258.218C97.6689 257.912 97.7918 257.619 98.0105 257.403C98.2291 257.187 98.5257 257.065 98.835 257.065C99.1442 257.065 99.4408 257.187 99.6595 257.403C99.8781 257.619 100.001 257.912 100.001 258.218" fill="black"/>
<path d="M98.2524 257.93C98.3061 257.93 98.3496 257.865 98.3496 257.786C98.3496 257.706 98.3061 257.642 98.2524 257.642C98.1988 257.642 98.1553 257.706 98.1553 257.786C98.1553 257.865 98.1988 257.93 98.2524 257.93Z" fill="#FF6584"/>
<path d="M98.8345 257.738C98.8881 257.738 98.9316 257.673 98.9316 257.594C98.9316 257.514 98.8881 257.45 98.8345 257.45C98.7808 257.45 98.7373 257.514 98.7373 257.594C98.7373 257.673 98.7808 257.738 98.8345 257.738Z" fill="#FF6584"/>
<path d="M98.8345 258.987C98.8881 258.987 98.9316 258.922 98.9316 258.843C98.9316 258.763 98.8881 258.698 98.8345 258.698C98.7808 258.698 98.7373 258.763 98.7373 258.843C98.7373 258.922 98.7808 258.987 98.8345 258.987Z" fill="#FF6584"/>
<path d="M99.4175 258.218C99.4711 258.218 99.5146 258.154 99.5146 258.074C99.5146 257.994 99.4711 257.93 99.4175 257.93C99.3638 257.93 99.3203 257.994 99.3203 258.074C99.3203 258.154 99.3638 258.218 99.4175 258.218Z" fill="#FF6584"/>
<path d="M99.3208 259.275C99.3745 259.275 99.418 259.21 99.418 259.131C99.418 259.051 99.3745 258.987 99.3208 258.987C99.2671 258.987 99.2236 259.051 99.2236 259.131C99.2236 259.21 99.2671 259.275 99.3208 259.275Z" fill="#FF6584"/>
<path d="M98.1548 258.795C98.2084 258.795 98.252 258.73 98.252 258.65C98.252 258.571 98.2084 258.506 98.1548 258.506C98.1011 258.506 98.0576 258.571 98.0576 258.65C98.0576 258.73 98.1011 258.795 98.1548 258.795Z" fill="#FF6584"/>
<path d="M78.8418 252.861C79.0694 252.861 79.2539 252.679 79.2539 252.454C79.2539 252.229 79.0694 252.047 78.8418 252.047C78.6142 252.047 78.4297 252.229 78.4297 252.454C78.4297 252.679 78.6142 252.861 78.8418 252.861Z" fill="#3F3D56"/>
<path d="M90.0434 267.243L80.1465 264.529L80.5256 263.137L90.4225 265.85L90.0434 267.243Z" fill="#F9A825"/>
<path d="M88.5927 266.777C85.2036 267.419 81.7221 267.419 78.333 266.777V265.334C81.7297 265.891 85.196 265.891 88.5927 265.334V266.777Z" fill="#F9A825"/>
<path d="M89.6474 262.447C86.2583 263.089 82.7768 263.089 79.3877 262.447V261.004C82.7844 261.561 86.2507 261.561 89.6474 261.004V262.447Z" fill="#F9A825"/>
<path d="M93.1943 264.179C89.8051 264.821 86.3237 264.821 82.9346 264.179V262.736C86.3313 263.293 89.7975 263.293 93.1943 262.736V264.179Z" fill="#F9A825"/>
<path d="M94.0576 265.815C90.6684 266.457 87.187 266.457 83.7979 265.815V264.372C87.1946 264.928 90.6608 264.928 94.0576 264.372V265.815Z" fill="#F9A825"/>
<path d="M97.0668 267.953L86.9447 269.634L86.71 268.21L96.832 266.529L97.0668 267.953Z" fill="#F9A825"/>
<path d="M95.5539 268.138C92.7476 270.138 89.5848 271.596 86.2314 272.437L85.6309 271.125C88.9549 270.205 92.104 268.753 94.9534 266.826L95.5539 268.138Z" fill="#F9A825"/>
<path d="M94.7112 263.761C91.9048 265.761 88.742 267.22 85.3886 268.06L84.7881 266.749C88.1121 265.828 91.2613 264.376 94.1106 262.45L94.7112 263.761Z" fill="#F9A825"/>
<path d="M98.6555 263.848C95.8492 265.848 92.6863 267.307 89.333 268.147L88.7324 266.836C92.0564 265.916 95.2056 264.463 98.0549 262.537L98.6555 263.848Z" fill="#F9A825"/>
<path d="M100.12 264.973C97.314 266.973 94.1512 268.432 90.7978 269.272L90.1973 267.961C93.5213 267.04 96.6704 265.588 99.5198 263.662L100.12 264.973Z" fill="#F9A825"/>
<path d="M87.855 262.157H87.3691V262.637H87.855V262.157Z" fill="#00BF71"/>
<path d="M89.313 270.515H88.8271V270.995H89.313V270.515Z" fill="#00BF71"/>
<path d="M81.5396 262.157H81.0537V262.637H81.5396V262.157Z" fill="#00BF71"/>
<path d="M92.8111 268.113H92.3252V268.594H92.8111V268.113Z" fill="#00BF71"/>
<path d="M93.1021 265.327H92.6162V265.808H93.1021V265.327Z" fill="#00BF71"/>
<path d="M85.0873 264.012L84.5244 263.635L84.3062 263.953L84.8691 264.33L85.0873 264.012Z" fill="#00BF71"/>
<path d="M90.8207 265.069L90.2578 264.691L90.0396 265.009L90.6024 265.387L90.8207 265.069Z" fill="#00BF71"/>
<path d="M83.8246 266.894L83.2617 266.517L83.0435 266.835L83.6064 267.212L83.8246 266.894Z" fill="#00BF71"/>
<path d="M87.3877 266.866L87.7695 266.31L87.4479 266.094L87.066 266.651L87.3877 266.866Z" fill="#00BF71"/>
<path d="M90.0117 267.539L90.3936 266.982L90.0719 266.767L89.69 267.323L90.0117 267.539Z" fill="#00BF71"/>
<path d="M97.0078 265.233L97.3896 264.677L97.068 264.461L96.6861 265.017L97.0078 265.233Z" fill="#00BF71"/>
<path d="M143 281.723H32V282H143V281.723Z" fill="#3F3D56"/>
<path fill-rule="evenodd" clip-rule="evenodd" d="M86.0952 162.323C86.4513 161.549 87.5487 161.549 87.9048 162.323L89.3035 165.365L92.6197 165.759C93.4641 165.86 93.8032 166.906 93.1789 167.486L90.7271 169.76L91.3779 173.045C91.5437 173.882 90.6559 174.529 89.9139 174.112L87 172.476L84.0861 174.112C83.3441 174.529 82.4563 173.882 82.622 173.045L83.2728 169.76L80.8211 167.486C80.1968 166.906 80.536 165.86 81.3803 165.759L84.6965 165.365L86.0952 162.323ZM87.2271 163.236C87.1379 163.042 86.8621 163.042 86.7729 163.236L85.6013 165.783C85.4561 166.099 85.1579 166.316 84.8138 166.357L82.0345 166.688C81.8229 166.713 81.7378 166.975 81.894 167.119L83.9494 169.026C84.2038 169.262 84.3177 169.614 84.2502 169.955L83.7048 172.708C83.6633 172.917 83.8863 173.079 84.0724 172.974L86.5133 171.604C86.8157 171.434 87.1843 171.434 87.4867 171.604L89.9276 172.974C90.1137 173.079 90.3367 172.917 90.2952 172.708L89.7499 169.955C89.6823 169.614 89.7962 169.262 90.0506 169.026L92.106 167.119C92.2622 166.975 92.1771 166.713 91.9655 166.688L89.1862 166.357C88.8421 166.316 88.5438 166.099 88.3987 165.783L87.2271 163.236Z" fill="white"/>
<path fill-rule="evenodd" clip-rule="evenodd" d="M88.1352 307.576C88.4913 306.801 89.5887 306.801 89.9448 307.576L91.3435 310.618L94.6597 311.012C95.5041 311.112 95.8432 312.159 95.2189 312.738L92.7672 315.013L93.418 318.298C93.5837 319.135 92.6959 319.782 91.954 319.365L89.04 317.729L86.1261 319.365C85.3841 319.782 84.4964 319.135 84.6621 318.298L85.3129 315.013L82.8612 312.738C82.2369 312.159 82.576 311.112 83.4204 311.012L86.7365 310.618L88.1352 307.576ZM89.2672 308.488C89.1779 308.294 88.9021 308.294 88.8129 308.488L87.6413 311.036C87.4962 311.352 87.198 311.569 86.8538 311.61L84.0745 311.941C83.8629 311.966 83.7778 312.227 83.9341 312.372L85.9894 314.279C86.2438 314.515 86.3577 314.867 86.2902 315.207L85.7448 317.961C85.7033 318.17 85.9264 318.332 86.1124 318.227L88.5533 316.857C88.8557 316.687 89.2243 316.687 89.5267 316.857L91.9676 318.227C92.1537 318.332 92.3767 318.17 92.3353 317.961L91.7899 315.207C91.7223 314.867 91.8362 314.515 92.0907 314.279L94.146 312.372C94.3022 312.227 94.2171 311.966 94.0055 311.941L91.2262 311.61C90.8821 311.569 90.5839 311.352 90.4387 311.036L89.2672 308.488Z" fill="white"/>
</g>
<defs>
<linearGradient id="paint0_linear" x1="86.8248" y1="133.284" x2="86.8248" y2="91.0067" gradientUnits="userSpaceOnUse">
<stop stop-color="#808080" stop-opacity="0.25"/>
<stop offset="0.54" stop-color="#808080" stop-opacity="0.12"/>
<stop offset="1" stop-color="#808080" stop-opacity="0.1"/>
</linearGradient>
<linearGradient id="paint1_linear" x1="-19357.3" y1="49621.5" x2="-19357.3" y2="7967.21" gradientUnits="userSpaceOnUse">
<stop stop-color="#808080" stop-opacity="0.25"/>
<stop offset="0.54" stop-color="#808080" stop-opacity="0.12"/>
<stop offset="1" stop-color="#808080" stop-opacity="0.1"/>
</linearGradient>
<linearGradient id="paint2_linear" x1="-15208.8" y1="21702.3" x2="-19152.2" y2="21702.3" gradientUnits="userSpaceOnUse">
<stop stop-color="#808080" stop-opacity="0.25"/>
<stop offset="0.54" stop-color="#808080" stop-opacity="0.12"/>
<stop offset="1" stop-color="#808080" stop-opacity="0.1"/>
</linearGradient>
<clipPath id="clip0">
<rect width="373" height="353" fill="white"/>
</clipPath>
<clipPath id="clip1">
<rect width="76" height="69" fill="white" transform="translate(50 70)"/>
</clipPath>
</defs>
</svg>
