<svg width="256" height="287" viewBox="0 0 256 287" fill="none" xmlns="http://www.w3.org/2000/svg">
<g clip-path="url(#clip0)">
<path d="M143.059 68.2019H141.483V25.0026C141.483 18.3715 138.85 12.012 134.162 7.32311C129.475 2.63421 123.118 8.36715e-06 116.489 0H24.9946C21.7122 -8.28584e-06 18.462 0.646695 15.4296 1.90318C12.3971 3.15967 9.64172 5.00135 7.32076 7.32304C4.9998 9.64474 3.15871 12.401 1.90261 15.4345C0.646516 18.4679 7.24782e-06 21.7191 0 25.0025V261.997C-3.1062e-06 265.281 0.646488 268.532 1.90258 271.565C3.15867 274.599 4.99975 277.355 7.32071 279.677C9.64166 281.999 12.397 283.84 15.4295 285.097C18.462 286.353 21.7122 287 24.9945 287H116.488C123.117 287 129.475 284.366 134.162 279.677C138.85 274.988 141.483 268.629 141.483 261.997V98.9519H143.059V68.2019Z" fill="#3F3D56"/>
<path d="M117.6 7.00003H105.657C106.206 8.347 106.416 9.8084 106.268 11.2555C106.119 12.7026 105.617 14.091 104.806 15.2984C103.995 16.5058 102.9 17.4951 101.616 18.1791C100.333 18.8632 98.9009 19.2211 97.4467 19.2212H45.031C43.5767 19.2211 42.1448 18.8632 40.8614 18.1791C39.578 17.4951 38.4825 16.5058 37.6713 15.2984C36.8602 14.091 36.3583 12.7026 36.2099 11.2555C36.0615 9.80837 36.2712 8.34697 36.8204 7H25.6656C20.7152 7 15.9675 8.96718 12.467 12.4688C8.96656 15.9704 7.00001 20.7196 7 25.6716V262.319C7 267.271 8.96654 272.02 12.467 275.522C15.9675 279.023 20.7152 280.991 25.6656 280.991H117.6C120.051 280.991 122.479 280.508 124.743 279.569C127.008 278.631 129.066 277.256 130.799 275.522C132.532 273.788 133.907 271.73 134.845 269.464C135.783 267.199 136.266 264.771 136.266 262.319V25.6717C136.266 23.2197 135.783 20.7917 134.845 18.5263C133.907 16.261 132.532 14.2026 130.799 12.4688C129.066 10.735 127.008 9.35965 124.743 8.42132C122.479 7.48298 120.051 7.00003 117.6 7.00003Z" fill="white"/>
<path d="M128.576 192.372H18.344C17.8028 192.371 17.284 192.156 16.9013 191.773C16.5186 191.39 16.3034 190.871 16.3027 190.33V162.977C16.3034 162.436 16.5186 161.917 16.9013 161.534C17.284 161.151 17.8028 160.936 18.344 160.935H128.576C129.118 160.936 129.636 161.151 130.019 161.534C130.402 161.917 130.617 162.436 130.618 162.977V190.33C130.617 190.872 130.402 191.39 130.019 191.773C129.636 192.156 129.118 192.371 128.576 192.372ZM18.344 161.752C18.0193 161.752 17.7079 161.881 17.4783 162.111C17.2486 162.341 17.1195 162.652 17.1192 162.977V190.33C17.1195 190.655 17.2486 190.967 17.4783 191.196C17.7079 191.426 18.0193 191.555 18.344 191.556H128.576C128.901 191.555 129.213 191.426 129.442 191.196C129.672 190.967 129.801 190.655 129.801 190.33V162.977C129.801 162.652 129.672 162.341 129.442 162.111C129.213 161.881 128.901 161.752 128.576 161.752H18.344Z" fill="#E6E6E6"/>
<path d="M128.576 148.251H18.344C17.8028 148.25 17.284 148.035 16.9013 147.652C16.5186 147.269 16.3034 146.75 16.3027 146.209V118.856C16.3034 118.315 16.5186 117.796 16.9013 117.413C17.284 117.03 17.8028 116.815 18.344 116.814H128.576C129.118 116.815 129.636 117.03 130.019 117.413C130.402 117.796 130.617 118.315 130.618 118.856V146.209C130.617 146.75 130.402 147.269 130.019 147.652C129.636 148.035 129.118 148.25 128.576 148.251ZM18.344 117.631C18.0193 117.631 17.7079 117.76 17.4783 117.99C17.2486 118.22 17.1195 118.531 17.1192 118.856V146.209C17.1195 146.534 17.2486 146.845 17.4783 147.075C17.7079 147.305 18.0193 147.434 18.344 147.434H128.576C128.901 147.434 129.213 147.305 129.442 147.075C129.672 146.845 129.801 146.534 129.801 146.209V118.856C129.801 118.531 129.672 118.22 129.442 117.99C129.213 117.76 128.901 117.631 128.576 117.631H18.344Z" fill="#E6E6E6"/>
<path d="M128.576 107.97H18.344C17.8028 107.969 17.284 107.754 16.9013 107.371C16.5186 106.988 16.3034 106.469 16.3027 105.928V78.5753C16.3034 78.0339 16.5186 77.5149 16.9013 77.1321C17.284 76.7493 17.8028 76.534 18.344 76.5333H128.576C129.118 76.534 129.636 76.7493 130.019 77.1321C130.402 77.5149 130.617 78.0339 130.618 78.5753V105.928C130.617 106.47 130.402 106.988 130.019 107.371C129.636 107.754 129.118 107.969 128.576 107.97ZM18.344 77.35C18.0193 77.3503 17.7079 77.4795 17.4783 77.7092C17.2486 77.9389 17.1195 78.2504 17.1192 78.5753V105.928C17.1195 106.253 17.2486 106.565 17.4783 106.794C17.7079 107.024 18.0193 107.153 18.344 107.154H128.576C128.901 107.153 129.213 107.024 129.442 106.794C129.672 106.565 129.801 106.253 129.801 105.928V78.5753C129.801 78.2504 129.672 77.9389 129.442 77.7092C129.213 77.4795 128.901 77.3503 128.576 77.35H18.344Z" fill="#E6E6E6"/>
<path d="M128.576 67.6892H18.344C17.8028 67.6885 17.284 67.4732 16.9013 67.0904C16.5186 66.7076 16.3034 66.1886 16.3027 65.6472V38.2946C16.3034 37.7533 16.5186 37.2342 16.9013 36.8514C17.284 36.4686 17.8028 36.2533 18.344 36.2527H128.576C129.118 36.2533 129.636 36.4686 130.019 36.8514C130.402 37.2342 130.617 37.7533 130.618 38.2946V65.6476C130.617 66.1889 130.402 66.7078 130.019 67.0905C129.636 67.4733 129.118 67.6885 128.576 67.6892ZM18.344 37.0694C18.0193 37.0697 17.7079 37.1989 17.4783 37.4286C17.2486 37.6583 17.1195 37.9698 17.1192 38.2946V65.6476C17.1195 65.9725 17.2486 66.2839 17.4783 66.5137C17.7079 66.7434 18.0193 66.8726 18.344 66.8729H128.576C128.901 66.8726 129.213 66.7434 129.442 66.5137C129.672 66.2839 129.801 65.9725 129.801 65.6476V38.2946C129.801 37.9698 129.672 37.6583 129.442 37.4286C129.213 37.1989 128.901 37.0697 128.576 37.0694H18.344Z" fill="#E6E6E6"/>
<path d="M128.576 192.372H18.344C17.8028 192.371 17.284 192.156 16.9013 191.773C16.5186 191.39 16.3034 190.871 16.3027 190.33V162.977C16.3034 162.436 16.5186 161.917 16.9013 161.534C17.284 161.151 17.8028 160.936 18.344 160.935H128.576C129.118 160.936 129.636 161.151 130.019 161.534C130.402 161.917 130.617 162.436 130.618 162.977V190.33C130.617 190.872 130.402 191.39 130.019 191.773C129.636 192.156 129.118 192.371 128.576 192.372ZM18.344 161.752C18.0193 161.752 17.7079 161.881 17.4783 162.111C17.2486 162.341 17.1195 162.652 17.1192 162.977V190.33C17.1195 190.655 17.2486 190.967 17.4783 191.196C17.7079 191.426 18.0193 191.555 18.344 191.556H128.576C128.901 191.555 129.213 191.426 129.442 191.196C129.672 190.967 129.801 190.655 129.801 190.33V162.977C129.801 162.652 129.672 162.341 129.442 162.111C129.213 161.881 128.901 161.752 128.576 161.752H18.344Z" fill="#34D1D1"/>
<path d="M128.576 148.251H18.344C17.8028 148.25 17.284 148.035 16.9013 147.652C16.5186 147.269 16.3034 146.75 16.3027 146.209V118.856C16.3034 118.315 16.5186 117.796 16.9013 117.413C17.284 117.03 17.8028 116.815 18.344 116.814H128.576C129.118 116.815 129.636 117.03 130.019 117.413C130.402 117.796 130.617 118.315 130.618 118.856V146.209C130.617 146.75 130.402 147.269 130.019 147.652C129.636 148.035 129.118 148.25 128.576 148.251ZM18.344 117.631C18.0193 117.631 17.7079 117.76 17.4783 117.99C17.2486 118.22 17.1195 118.531 17.1192 118.856V146.209C17.1195 146.534 17.2486 146.845 17.4783 147.075C17.7079 147.305 18.0193 147.434 18.344 147.434H128.576C128.901 147.434 129.213 147.305 129.442 147.075C129.672 146.845 129.801 146.534 129.801 146.209V118.856C129.801 118.531 129.672 118.22 129.442 117.99C129.213 117.76 128.901 117.631 128.576 117.631H18.344Z" fill="#34D1D1"/>
<path d="M128.576 107.97H18.344C17.8028 107.969 17.284 107.754 16.9013 107.371C16.5186 106.988 16.3034 106.469 16.3027 105.928V78.5753C16.3034 78.0339 16.5186 77.5149 16.9013 77.1321C17.284 76.7493 17.8028 76.534 18.344 76.5333H128.576C129.118 76.534 129.636 76.7493 130.019 77.1321C130.402 77.5149 130.617 78.0339 130.618 78.5753V105.928C130.617 106.47 130.402 106.988 130.019 107.371C129.636 107.754 129.118 107.969 128.576 107.97ZM18.344 77.35C18.0193 77.3503 17.7079 77.4795 17.4783 77.7092C17.2486 77.9389 17.1195 78.2504 17.1192 78.5753V105.928C17.1195 106.253 17.2486 106.565 17.4783 106.794C17.7079 107.024 18.0193 107.153 18.344 107.154H128.576C128.901 107.153 129.213 107.024 129.442 106.794C129.672 106.565 129.801 106.253 129.801 105.928V78.5753C129.801 78.2504 129.672 77.9389 129.442 77.7092C129.213 77.4795 128.901 77.3503 128.576 77.35H18.344Z" fill="#34D1D1"/>
<path d="M128.576 67.6892H18.344C17.8028 67.6885 17.284 67.4732 16.9013 67.0904C16.5186 66.7076 16.3034 66.1886 16.3027 65.6472V38.2946C16.3034 37.7533 16.5186 37.2342 16.9013 36.8514C17.284 36.4686 17.8028 36.2533 18.344 36.2527H128.576C129.118 36.2533 129.636 36.4686 130.019 36.8514C130.402 37.2342 130.617 37.7533 130.618 38.2946V65.6476C130.617 66.1889 130.402 66.7078 130.019 67.0905C129.636 67.4733 129.118 67.6885 128.576 67.6892ZM18.344 37.0694C18.0193 37.0697 17.7079 37.1989 17.4783 37.4286C17.2486 37.6583 17.1195 37.9698 17.1192 38.2946V65.6476C17.1195 65.9725 17.2486 66.2839 17.4783 66.5137C17.7079 66.7434 18.0193 66.8726 18.344 66.8729H128.576C128.901 66.8726 129.213 66.7434 129.442 66.5137C129.672 66.2839 129.801 65.9725 129.801 65.6476V38.2946C129.801 37.9698 129.672 37.6583 129.442 37.4286C129.213 37.1989 128.901 37.0697 128.576 37.0694H18.344Z" fill="#34D1D1"/>
<path d="M52.4346 170.936C52.0598 170.942 51.7024 171.096 51.4395 171.363C51.1766 171.631 51.0293 171.991 51.0293 172.366C51.0293 172.741 51.1766 173.101 51.4395 173.368C51.7024 173.635 52.0598 173.789 52.4346 173.795H119.799C120.178 173.802 120.544 173.659 120.817 173.396C121.09 173.133 121.248 172.772 121.255 172.393C121.262 172.014 121.119 171.648 120.856 171.374C120.593 171.101 120.233 170.944 119.854 170.936L119.846 170.936C119.83 170.936 119.814 170.936 119.799 170.936H52.4346Z" fill="#34D1D1" fill-opacity="0.21"/>
<path d="M52.4346 126.815C52.0598 126.821 51.7024 126.974 51.4395 127.242C51.1766 127.509 51.0293 127.869 51.0293 128.244C51.0293 128.619 51.1766 128.979 51.4395 129.246C51.7024 129.514 52.0598 129.667 52.4346 129.673H119.799C120.178 129.681 120.544 129.537 120.817 129.274C121.09 129.011 121.248 128.651 121.255 128.272C121.262 127.893 121.119 127.526 120.856 127.253C120.593 126.98 120.233 126.822 119.854 126.815L119.846 126.815C119.83 126.815 119.814 126.815 119.799 126.815H52.4346Z" fill="#34D1D1" fill-opacity="0.21"/>
<path d="M52.4346 86.5341C52.0598 86.5404 51.7024 86.6937 51.4395 86.961C51.1766 87.2284 51.0293 87.5884 51.0293 87.9635C51.0293 88.3385 51.1766 88.6985 51.4395 88.9658C51.7024 89.2332 52.0598 89.3865 52.4346 89.3928H119.799C120.178 89.4001 120.544 89.2565 120.817 88.9936C121.09 88.7308 121.248 88.3702 121.255 87.9911C121.262 87.612 121.119 87.2456 120.856 86.9724C120.593 86.6992 120.233 86.5416 119.854 86.5343L119.846 86.5341C119.83 86.5339 119.814 86.5339 119.799 86.5341H52.4346Z" fill="#34D1D1" fill-opacity="0.21"/>
<path d="M52.4346 46.2534C52.0598 46.2596 51.7024 46.4129 51.4395 46.6803C51.1766 46.9477 51.0293 47.3077 51.0293 47.6827C51.0293 48.0577 51.1766 48.4177 51.4395 48.6851C51.7024 48.9525 52.0598 49.1058 52.4346 49.112H119.799C120.178 49.1193 120.544 48.9758 120.817 48.7129C121.09 48.45 121.248 48.0894 121.255 47.7103C121.262 47.3313 121.119 46.9648 120.856 46.6916C120.593 46.4184 120.233 46.2608 119.854 46.2535L119.846 46.2534C119.83 46.2531 119.814 46.2531 119.799 46.2534H52.4346Z" fill="#34D1D1" fill-opacity="0.21"/>
<path d="M52.4346 179.513C52.0598 179.519 51.7024 179.672 51.4395 179.939C51.1766 180.207 51.0293 180.567 51.0293 180.942C51.0293 181.317 51.1766 181.677 51.4395 181.944C51.7024 182.212 52.0598 182.365 52.4346 182.371H119.799C120.177 182.376 120.542 182.231 120.814 181.968C121.085 181.704 121.241 181.344 121.247 180.965C121.254 180.587 121.11 180.221 120.847 179.949C120.584 179.677 120.224 179.52 119.846 179.513C119.83 179.512 119.814 179.512 119.799 179.513H52.4346Z" fill="#34D1D1" fill-opacity="0.21"/>
<path d="M52.4346 135.391C52.0598 135.397 51.7024 135.551 51.4395 135.818C51.1766 136.085 51.0293 136.445 51.0293 136.821C51.0293 137.196 51.1766 137.556 51.4395 137.823C51.7024 138.09 52.0598 138.244 52.4346 138.25H119.799C120.177 138.255 120.542 138.11 120.814 137.846C121.085 137.583 121.241 137.222 121.247 136.844C121.254 136.465 121.11 136.1 120.847 135.828C120.584 135.555 120.224 135.398 119.846 135.391C119.83 135.391 119.814 135.391 119.799 135.391H52.4346Z" fill="#34D1D1" fill-opacity="0.21"/>
<path d="M52.4346 95.1105C52.0598 95.1168 51.7024 95.2701 51.4395 95.5375C51.1766 95.8049 51.0293 96.1649 51.0293 96.5399C51.0293 96.9149 51.1766 97.2749 51.4395 97.5423C51.7024 97.8096 52.0598 97.963 52.4346 97.9692H119.799C120.177 97.9745 120.542 97.8294 120.814 97.5658C121.085 97.3023 121.241 96.9417 121.247 96.5633C121.254 96.1848 121.11 95.8193 120.847 95.547C120.584 95.2747 120.224 95.1177 119.846 95.1105C119.83 95.1103 119.814 95.1103 119.799 95.1105H52.4346Z" fill="#34D1D1" fill-opacity="0.21"/>
<path d="M52.4346 54.8298C52.0598 54.836 51.7024 54.9893 51.4395 55.2567C51.1766 55.5241 51.0293 55.8841 51.0293 56.2591C51.0293 56.6341 51.1766 56.9941 51.4395 57.2615C51.7024 57.5289 52.0598 57.6822 52.4346 57.6885H119.799C120.177 57.6937 120.542 57.5486 120.814 57.2851C121.085 57.0215 121.241 56.661 121.247 56.2825C121.254 55.9041 121.11 55.5386 120.847 55.2662C120.584 54.9939 120.224 54.8369 119.846 54.8298C119.83 54.8295 119.814 54.8295 119.799 54.8298H52.4346Z" fill="#34D1D1" fill-opacity="0.21"/>
<path d="M128.576 238.113H18.344C17.8028 238.112 17.284 237.897 16.9013 237.514C16.5186 237.131 16.3034 236.612 16.3027 236.071V208.718C16.3034 208.177 16.5186 207.658 16.9013 207.275C17.284 206.892 17.8028 206.677 18.344 206.676H128.576C129.118 206.677 129.636 206.892 130.019 207.275C130.402 207.658 130.617 208.177 130.618 208.718V236.071C130.617 236.612 130.402 237.131 130.019 237.514C129.636 237.897 129.118 238.112 128.576 238.113ZM18.344 207.493C18.0193 207.493 17.7079 207.622 17.4783 207.852C17.2486 208.082 17.1195 208.393 17.1192 208.718V236.071C17.1195 236.396 17.2486 236.707 17.4783 236.937C17.7079 237.167 18.0193 237.296 18.344 237.296H128.576C128.901 237.296 129.213 237.167 129.442 236.937C129.672 236.707 129.801 236.396 129.801 236.071V208.718C129.801 208.393 129.672 208.082 129.442 207.852C129.213 207.622 128.901 207.493 128.576 207.493H18.344Z" fill="#34D1D1"/>
<path d="M52.4346 216.677C52.0598 216.683 51.7024 216.837 51.4395 217.104C51.1766 217.371 51.0293 217.731 51.0293 218.106C51.0293 218.481 51.1766 218.841 51.4395 219.109C51.7024 219.376 52.0598 219.529 52.4346 219.536H119.799C120.177 219.541 120.542 219.396 120.814 219.132C121.085 218.869 121.241 218.508 121.247 218.13C121.254 217.751 121.11 217.386 120.847 217.113C120.584 216.841 120.224 216.684 119.846 216.677C119.83 216.677 119.814 216.677 119.799 216.677H52.4346Z" fill="#34D1D1" fill-opacity="0.21"/>
<path d="M52.4346 225.253C52.0598 225.259 51.7024 225.413 51.4395 225.68C51.1766 225.948 51.0293 226.308 51.0293 226.683C51.0293 227.058 51.1766 227.418 51.4395 227.685C51.7024 227.952 52.0598 228.106 52.4346 228.112H119.799C120.177 228.117 120.542 227.972 120.814 227.709C121.085 227.445 121.241 227.084 121.247 226.706C121.254 226.328 121.11 225.962 120.847 225.69C120.584 225.417 120.224 225.26 119.846 225.253C119.83 225.253 119.814 225.253 119.799 225.253H52.4346Z" fill="#34D1D1" fill-opacity="0.21"/>
<path d="M124.225 182.522C132.934 182.522 139.994 175.46 139.994 166.748C139.994 158.036 132.934 150.974 124.225 150.974C115.516 150.974 108.456 158.036 108.456 166.748C108.456 175.46 115.516 182.522 124.225 182.522Z" fill="white"/>
<path d="M118.748 173.845C118.721 173.845 118.694 173.845 118.667 173.844H110.191C109.116 173.827 108.09 173.388 107.336 172.621C106.581 171.855 106.158 170.822 106.157 169.746C106.157 168.67 106.579 167.637 107.333 166.87C108.087 166.103 109.113 165.663 110.188 165.645H118.671C118.713 165.644 118.758 165.644 118.803 165.645C119.885 165.66 120.917 166.102 121.674 166.875C122.431 167.648 122.852 168.689 122.845 169.772C122.838 170.854 122.403 171.89 121.636 172.653C120.868 173.416 119.83 173.844 118.748 173.845Z" fill="#34D1D1"/>
<path d="M256 286.04H128.259V286.924H256V286.04Z" fill="#3F3D56"/>
<path d="M136.129 211.266C136.029 211.11 135.946 210.943 135.881 210.77L133.846 205.317C133.609 204.68 133.634 203.975 133.916 203.357C134.198 202.739 134.714 202.257 135.35 202.019L180.781 185.049C181.418 184.812 182.122 184.837 182.74 185.119C183.358 185.402 183.839 185.917 184.078 186.554L186.113 192.007C186.231 192.322 186.285 192.657 186.273 192.994C186.262 193.33 186.184 193.661 186.044 193.967C185.904 194.273 185.706 194.549 185.459 194.779C185.213 195.008 184.924 195.187 184.609 195.305L139.178 212.274C138.631 212.478 138.031 212.49 137.477 212.306C136.922 212.123 136.447 211.756 136.129 211.266Z" fill="#34D1D1"/>
<path d="M180.636 183.64L162.162 191.01C161.579 191.185 161.087 191.577 160.787 192.106C160.486 192.635 160.401 193.259 160.548 193.849L162.692 202.436C162.777 202.775 162.936 203.091 163.157 203.362C163.378 203.632 163.657 203.85 163.973 204C164.289 204.15 164.634 204.228 164.983 204.229C165.333 204.229 165.678 204.152 165.994 204.003L184.52 195.281C185.107 195.061 185.582 194.617 185.843 194.046C186.103 193.476 186.127 192.826 185.909 192.238L183.682 185.031C183.462 184.443 183.018 183.966 182.447 183.705C181.876 183.445 181.224 183.421 180.636 183.64Z" fill="#2F2E41"/>
<path d="M214.445 237.139C213.865 237.205 213.28 237.072 212.786 236.761C212.292 236.45 211.919 235.979 211.728 235.427L195.915 189.568C195.805 189.25 195.759 188.913 195.779 188.577C195.799 188.241 195.886 187.913 196.033 187.61C196.18 187.307 196.386 187.037 196.638 186.814C196.89 186.59 197.183 186.419 197.501 186.309L203.002 184.411C203.644 184.19 204.348 184.233 204.959 184.531C205.57 184.828 206.038 185.356 206.26 185.998L222.074 231.858C222.294 232.5 222.251 233.204 221.954 233.815C221.656 234.426 221.129 234.894 220.487 235.117L214.986 237.014C214.811 237.075 214.63 237.117 214.445 237.139Z" fill="#34D1D1"/>
<path d="M207.438 185.214L213.508 204.16C213.743 204.721 213.753 205.351 213.537 205.919C213.32 206.487 212.893 206.95 212.345 207.212L204.357 211.02C204.042 211.171 203.697 211.249 203.348 211.25C202.998 211.252 202.653 211.175 202.336 211.027C202.02 210.879 201.74 210.662 201.517 210.393C201.294 210.123 201.134 209.808 201.048 209.469L195.99 189.622C195.786 189.029 195.826 188.379 196.1 187.815C196.374 187.252 196.861 186.819 197.453 186.614L204.428 183.747C205.022 183.543 205.672 183.583 206.237 183.858C206.801 184.133 207.233 184.62 207.438 185.214Z" fill="#2F2E41"/>
<path d="M189.062 286.3H183.243C182.564 286.299 181.912 286.029 181.432 285.548C180.952 285.068 180.681 284.416 180.681 283.737V235.226C180.681 234.546 180.952 233.895 181.432 233.414C181.912 232.934 182.564 232.663 183.243 232.663H189.062C189.741 232.663 190.392 232.934 190.873 233.414C191.353 233.895 191.623 234.546 191.624 235.226V283.737C191.623 284.416 191.353 285.068 190.873 285.548C190.392 286.029 189.741 286.299 189.062 286.3Z" fill="#2F2E41"/>
<path d="M200.57 286.3H194.751C194.072 286.299 193.42 286.029 192.94 285.548C192.459 285.068 192.189 284.416 192.188 283.737V235.226C192.189 234.546 192.459 233.895 192.94 233.414C193.42 232.934 194.072 232.663 194.751 232.663H200.57C201.249 232.663 201.9 232.934 202.381 233.414C202.861 233.895 203.131 234.546 203.132 235.226V283.737C203.131 284.416 202.861 285.068 202.381 285.548C201.9 286.029 201.249 286.299 200.57 286.3Z" fill="#2F2E41"/>
<path d="M205.365 240.929H178.928C178.196 240.928 177.494 240.637 176.977 240.12C176.46 239.602 176.169 238.9 176.168 238.169V195.206C176.168 190.967 177.851 186.902 180.848 183.904C183.844 180.907 187.909 179.223 192.146 179.223C196.384 179.223 200.448 180.907 203.445 183.904C206.441 186.902 208.125 190.967 208.125 195.206V238.169C208.124 238.9 207.833 239.602 207.316 240.12C206.798 240.637 206.097 240.928 205.365 240.929Z" fill="#D0CDE1"/>
<path d="M209.345 251.438H195.941V175.662L196.19 175.73C199.965 176.766 203.296 179.013 205.672 182.125C208.048 185.237 209.338 189.042 209.345 192.958V251.438Z" fill="#2F2E41"/>
<path d="M187.262 251.438H173.858V192.958C173.865 189.042 175.155 185.237 177.531 182.125C179.907 179.013 183.238 176.766 187.013 175.73L187.262 175.662V251.438Z" fill="#2F2E41"/>
<path d="M191.946 170.336C203.599 170.336 213.045 160.887 213.045 149.231C213.045 137.574 203.599 128.125 191.946 128.125C180.294 128.125 170.848 137.574 170.848 149.231C170.848 160.887 180.294 170.336 191.946 170.336Z" fill="#34D1D1"/>
<path d="M215.8 144.372C215.8 144.372 216.983 111.64 201.608 122.288C201.608 122.288 192.738 92.5144 171.056 137.076L164.748 143.386C164.748 143.386 193.132 139.442 219.545 151.667L215.8 144.372Z" fill="#2F2E41"/>
<path d="M192.267 159.683C190.964 159.646 189.342 159.601 188.093 158.688C187.721 158.405 187.415 158.044 187.197 157.63C186.979 157.217 186.854 156.76 186.831 156.293C186.809 155.961 186.863 155.629 186.99 155.321C187.117 155.014 187.314 154.74 187.565 154.521C188.217 153.97 189.17 153.84 190.197 154.142L189.133 146.364L189.914 146.256L191.165 155.401L190.513 155.102C189.757 154.755 188.719 154.578 188.073 155.124C187.915 155.266 187.792 155.444 187.713 155.642C187.634 155.84 187.602 156.053 187.619 156.266C187.638 156.613 187.732 156.953 187.894 157.261C188.056 157.569 188.282 157.838 188.558 158.051C189.53 158.762 190.823 158.853 192.289 158.894L192.267 159.683Z" fill="#2F2E41"/>
<path d="M185.271 147.034H181.024V147.823H185.271V147.034Z" fill="#2F2E41"/>
<path d="M198.674 147.034H194.428V147.823H198.674V147.034Z" fill="#2F2E41"/>
<path d="M144.905 213.278C144.336 213.542 143.686 213.569 143.096 213.354C142.507 213.138 142.028 212.697 141.764 212.128L128.159 182.794C127.895 182.225 127.868 181.574 128.084 180.985C128.299 180.396 128.74 179.916 129.309 179.652C129.878 179.388 130.529 179.361 131.118 179.577C131.707 179.792 132.186 180.233 132.45 180.802L146.055 210.136C146.319 210.705 146.347 211.356 146.131 211.945C145.915 212.535 145.474 213.014 144.905 213.278Z" fill="#3F3D56"/>
<path d="M130.927 181.715C130.509 181.715 130.108 181.549 129.812 181.253C129.517 180.957 129.351 180.556 129.351 180.137V160.044H109.639C109.221 160.044 108.82 159.878 108.524 159.582C108.229 159.286 108.062 158.885 108.062 158.467C108.062 158.048 108.229 157.647 108.524 157.351C108.82 157.055 109.221 156.889 109.639 156.889H130.927C131.346 156.889 131.747 157.055 132.042 157.351C132.338 157.647 132.504 158.048 132.504 158.467V180.137C132.504 180.556 132.338 180.957 132.042 181.253C131.747 181.549 131.346 181.715 130.927 181.715Z" fill="#34D1D1"/>
<path d="M131.3 183.945C127.905 185.52 124.119 186.053 120.421 185.477C116.723 184.9 113.279 183.239 110.525 180.705C107.77 178.17 105.829 174.876 104.947 171.237C104.064 167.599 104.28 163.781 105.567 160.265C106.854 156.75 109.154 153.695 112.176 151.487C115.199 149.279 118.808 148.018 122.547 147.861C126.286 147.705 129.988 148.662 133.184 150.61C136.379 152.559 138.926 155.411 140.501 158.807C142.607 163.362 142.821 168.567 141.096 173.279C139.371 177.992 135.848 181.827 131.3 183.945ZM117.363 153.896C114.817 155.077 112.678 156.988 111.217 159.386C109.756 161.783 109.039 164.56 109.156 167.366C109.273 170.171 110.219 172.879 111.875 175.146C113.53 177.414 115.82 179.139 118.456 180.105C121.092 181.07 123.955 181.232 126.682 180.57C129.41 179.908 131.88 178.452 133.781 176.385C135.681 174.319 136.926 171.735 137.358 168.961C137.791 166.186 137.391 163.346 136.21 160.799C134.622 157.386 131.746 154.743 128.213 153.449C124.68 152.155 120.778 152.316 117.363 153.896Z" fill="#3F3D56"/>
<path d="M17 38C17 37.4477 17.4477 37 18 37H48V67H19C17.8954 67 17 66.1046 17 65V38Z" fill="#34D1D1" fill-opacity="0.21"/>
<path d="M17 78C17 77.4477 17.4477 77 18 77H48V107H19C17.8954 107 17 106.105 17 105V78Z" fill="#34D1D1" fill-opacity="0.21"/>
<path d="M17 118C17 117.448 17.4477 117 18 117H48V147H19C17.8954 147 17 146.105 17 145V118Z" fill="#34D1D1" fill-opacity="0.21"/>
<path d="M17 162C17 161.448 17.4477 161 18 161H48V191H19C17.8954 191 17 190.105 17 189V162Z" fill="#34D1D1" fill-opacity="0.21"/>
<path d="M17 209C17 208.448 17.4477 208 18 208H48V238H19C17.8954 238 17 237.105 17 236V209Z" fill="#34D1D1" fill-opacity="0.21"/>
</g>
<defs>
<clipPath id="clip0">
<rect width="256" height="287" fill="white"/>
</clipPath>
</defs>
</svg>
