<svg width="348" height="244" viewBox="0 0 348 244" fill="none" xmlns="http://www.w3.org/2000/svg">
<g clip-path="url(#clip0)">
<path d="M54.4814 244C84.5707 244 108.963 242.115 108.963 239.789C108.963 237.464 84.5707 235.578 54.4814 235.578C24.3922 235.578 0 237.464 0 239.789C0 242.115 24.3922 244 54.4814 244Z" fill="#DAF0F0"/>
<path opacity="0.1" d="M43.6755 9.9414L43.6288 9.68335L39.2097 7.34674H38.5162L38.2509 6.83923H29.1436L27.0317 7.34674H19.2535L17.1463 9.80162L17.1247 9.95213C16.9883 10.8302 13.9405 31.4763 21.9818 38.0453L25.3348 39.6007H27.503L27.0792 38.7558L28.9641 39.6007H35.0669L35.1754 39.4383L38.7968 38.0848L38.8902 37.9773C39.2168 37.5902 46.9135 28.2545 43.6755 9.9414Z" fill="#DAF0F0"/>
<path d="M32.7344 30.4622H29.1445V39.78H32.7344V30.4622Z" fill="#E6E6E6"/>
<path d="M33.9901 51.7855H27.5283V230.974H33.9901V51.7855Z" fill="#3F3D56"/>
<path d="M35.6058 48.7393H25.9131V54.8317H35.6058V48.7393Z" fill="#3F3D56"/>
<path d="M22.3232 37.6296L28.4259 44.0805L25.913 48.7393L30.9387 49.8145L35.6058 48.7393L32.7338 43.7222L38.4775 37.6296H22.3232Z" fill="#3F3D56"/>
<path d="M17.6561 10.0346L14.7842 7.1676L16.9381 5.01733H44.2212L46.3752 7.52598L43.1443 10.0346C43.1443 10.0346 25.9128 9.31786 17.6561 10.0346Z" fill="#3F3D56"/>
<path d="M43.6755 9.9414L43.6288 9.68336L39.2097 7.34675L37.1921 6.27877L25.8661 5.55127L19.5155 7.04211L19.2535 7.34674L17.1463 9.80162L17.1247 9.95213C16.9883 10.8302 13.9405 31.4763 21.9818 38.0454L25.3348 39.6007L28.1564 40.9088L27.503 39.6007L26.4297 37.4612C25.3061 30.9316 22.8362 13.776 24.4122 10.1923L30.9242 8.09574L36.7039 10.2389C37.1024 12.8156 39.6799 30.8814 35.1639 37.3215L35.0669 37.4612V39.4789L38.7968 38.0848L38.8902 37.9773C39.2168 37.5902 46.9135 28.2545 43.6755 9.9414ZM38.1471 37.1781L36.1439 37.9307V37.7945C41.0979 30.4155 37.8599 10.6008 37.7199 9.75504L37.6696 9.44684L32.0047 7.34674L30.9529 6.95609L29.7395 7.34674L23.6655 9.30346L23.5613 9.48624C21.2531 13.6183 25.2127 36.7373 25.3814 37.7192L25.3958 37.7981L25.823 38.651L22.6101 37.1709C15.4482 31.2183 17.9037 12.1562 18.1657 10.2675L20.1043 8.00973L22.9259 7.34674L25.9594 6.63357L30.9529 6.95609L36.8906 7.33957L36.9049 7.34674L42.6595 10.3858C45.5099 26.9966 38.9691 36.1173 38.1471 37.1781H38.1471Z" fill="#3F3D56"/>
<path d="M30.9388 10.0346C36.2919 10.0346 40.6315 7.78825 40.6315 5.01728C40.6315 2.24631 36.2919 0 30.9388 0C25.5857 0 21.2461 2.24631 21.2461 5.01728C21.2461 7.78825 25.5857 10.0346 30.9388 10.0346Z" fill="#3F3D56"/>
<path d="M25.9128 221.836L20.1689 240.113C20.1689 240.113 29.1437 245.13 41.3493 240.113L35.6054 221.836H25.9128Z" fill="#3F3D56"/>
<path d="M30.9393 31.5371C32.5254 31.5371 33.8112 30.2535 33.8112 28.6701C33.8112 27.0867 32.5254 25.8031 30.9393 25.8031C29.3532 25.8031 28.0674 27.0867 28.0674 28.6701C28.0674 30.2535 29.3532 31.5371 30.9393 31.5371Z" fill="#DAF0F0"/>
<path d="M136.885 134.473C138.402 140.071 143.598 143.538 143.598 143.538C143.598 143.538 146.334 137.929 144.817 132.33C143.3 126.732 138.104 123.265 138.104 123.265C138.104 123.265 135.368 128.875 136.885 134.473Z" fill="#DAF0F0"/>
<path d="M139.114 133.27C143.277 137.315 143.785 143.533 143.785 143.533C143.785 143.533 137.545 143.193 133.382 139.148C129.219 135.103 128.711 128.884 128.711 128.884C128.711 128.884 134.951 129.224 139.114 133.27Z" fill="#E6E6E6"/>
<path d="M344.61 133.363L199.426 174.461L331.888 99.9512C325.849 88.9065 318.268 78.7749 309.372 69.8605L180.855 140.471L288.446 52.7659C273.015 42.5752 255.606 35.7432 237.354 32.7148L177.759 132.044L217.23 30.9321C216.642 30.9244 216.055 30.9156 215.465 30.9156C142.269 30.9156 82.9308 90.1524 82.9308 163.225C82.8924 187.393 89.5171 211.107 102.079 231.767H328.852C346.708 202.254 352.36 166.963 344.61 133.363Z" fill="#F2F2F2"/>
<path d="M333.216 219.413C333.216 208.125 327.479 198.975 320.401 198.975C315.953 198.975 312.036 202.591 309.738 208.08C308.962 207.758 308.13 207.591 307.289 207.589C305.147 207.589 303.167 208.685 301.551 210.539C299.48 203.696 295.088 198.975 290.005 198.975C285.252 198.975 281.107 203.106 278.894 209.235C277.665 208.2 276.117 207.619 274.509 207.589C269.077 207.589 264.675 214.611 264.675 223.273C264.652 226.161 265.178 229.027 266.224 231.719H330.631C332.253 228.295 333.216 224.034 333.216 219.413Z" fill="#DAF0F0"/>
<path d="M203.646 82.0414V82.0414C203.646 68.929 208.864 56.3537 218.152 47.0818C227.44 37.8099 240.036 32.6011 253.171 32.6011" stroke="#3F3D56" stroke-width="2" stroke-miterlimit="10"/>
<path d="M221.667 88.5123C217.7 103.151 204.113 112.218 204.113 112.218C204.113 112.218 196.957 97.5495 200.924 82.9104C204.89 68.2712 218.478 59.2048 218.478 59.2048C218.478 59.2048 225.634 73.8732 221.667 88.5123Z" fill="#DAF0F0"/>
<path d="M185.579 88.5123C189.546 103.151 203.133 112.218 203.133 112.218C203.133 112.218 210.289 97.5495 206.322 82.9104C202.355 68.2712 188.768 59.2048 188.768 59.2048C188.768 59.2048 181.612 73.8732 185.579 88.5123Z" fill="#DAF0F0"/>
<path d="M191.407 85.3663C202.293 95.9446 203.622 112.206 203.622 112.206C203.622 112.206 187.303 111.316 176.418 100.738C165.533 90.1598 164.203 73.8984 164.203 73.8984C164.203 73.8984 180.522 74.7879 191.407 85.3663Z" fill="#3F3D56"/>
<path d="M215.838 85.3663C204.953 95.9446 203.623 112.206 203.623 112.206C203.623 112.206 219.942 111.316 230.827 100.738C241.713 90.1598 243.042 73.8984 243.042 73.8984C243.042 73.8984 226.723 74.7879 215.838 85.3663Z" fill="#3F3D56"/>
<path d="M245.15 43.1761C246.908 36.6879 252.93 32.6697 252.93 32.6697C252.93 32.6697 256.102 39.1707 254.344 45.6589C252.585 52.147 246.563 56.1652 246.563 56.1652C246.563 56.1652 243.392 49.6642 245.15 43.1761Z" fill="#DAF0F0"/>
<path d="M261.144 43.1761C259.386 36.6879 253.364 32.6697 253.364 32.6697C253.364 32.6697 250.193 39.1707 251.951 45.6589C253.709 52.147 259.731 56.1652 259.731 56.1652C259.731 56.1652 262.903 49.6642 261.144 43.1761Z" fill="#DAF0F0"/>
<path d="M258.56 44.5704C253.736 39.882 253.146 32.6749 253.146 32.6749C253.146 32.6749 260.379 33.0692 265.203 37.7575C270.028 42.4459 270.617 49.653 270.617 49.653C270.617 49.653 263.385 49.2587 258.56 44.5704Z" fill="#3F3D56"/>
<path d="M247.734 44.5704C252.558 39.882 253.147 32.6749 253.147 32.6749C253.147 32.6749 245.915 33.0692 241.09 37.7575C236.266 42.4459 235.677 49.653 235.677 49.653C235.677 49.653 242.909 49.2587 247.734 44.5704Z" fill="#3F3D56"/>
<path d="M306.073 176.708H300.164V144.03C300.162 143.137 299.805 142.281 299.172 141.649C298.54 141.018 297.682 140.662 296.788 140.659H286.657V111.897C286.655 111.004 286.298 110.148 285.666 109.516C285.033 108.885 284.176 108.529 283.281 108.526H125.702C124.808 108.529 123.95 108.885 123.318 109.516C122.685 110.148 122.328 111.004 122.326 111.897V140.659H112.196C111.301 140.662 110.444 141.018 109.811 141.649C109.178 142.281 108.822 143.137 108.819 144.03V176.708H102.91C102.015 176.711 101.158 177.067 100.525 177.699C99.8924 178.33 99.5358 179.186 99.5332 180.079V228.396C99.5358 229.289 99.8924 230.145 100.525 230.777C101.158 231.408 102.015 231.764 102.91 231.767H306.073C306.968 231.764 307.825 231.408 308.458 230.777C309.091 230.145 309.447 229.289 309.45 228.396V180.079C309.447 179.186 309.091 178.33 308.458 177.699C307.825 177.067 306.968 176.711 306.073 176.708Z" fill="#3F3D56"/>
<path d="M276.546 166.493C273.443 171.396 274.401 177.561 274.401 177.561C274.401 177.561 280.39 175.778 283.493 170.875C286.596 165.972 285.638 159.807 285.638 159.807C285.638 159.807 279.649 161.591 276.546 166.493Z" fill="#DAF0F0"/>
<path d="M278.942 167.318C278.774 173.115 274.532 177.696 274.532 177.696C274.532 177.696 270.56 172.878 270.728 167.082C270.895 161.285 275.138 156.704 275.138 156.704C275.138 156.704 279.109 161.521 278.942 167.318Z" fill="#E6E6E6"/>
<path d="M300.163 176.708H108.818V180.079H300.163V176.708Z" fill="#E6E6E6"/>
<path d="M286.657 140.752H122.325V144.123H286.657V140.752Z" fill="#E6E6E6"/>
<path d="M253.172 62.0968C255.037 62.0968 256.548 60.5876 256.548 58.7259C256.548 56.8642 255.037 55.355 253.172 55.355C251.307 55.355 249.795 56.8642 249.795 58.7259C249.795 60.5876 251.307 62.0968 253.172 62.0968Z" fill="#DAF0F0"/>
<path d="M144.959 137.09L233.885 111.877L247.137 158.458L240.713 160.279L245.61 177.494L223.468 165.169L158.211 183.672L144.959 137.09Z" fill="#DAF0F0"/>
<path d="M41.0634 111.635C41.0634 111.635 38.7819 118.468 40.0494 119.987C41.3169 121.505 32.4443 115.431 32.4443 115.431L37.2609 109.864L41.0634 111.635Z" fill="#A0616A"/>
<path d="M35.8603 111.624C42.1463 111.624 47.2422 106.537 47.2422 100.262C47.2422 93.9867 42.1463 88.8995 35.8603 88.8995C29.5743 88.8995 24.4785 93.9867 24.4785 100.262C24.4785 106.537 29.5743 111.624 35.8603 111.624Z" fill="#2F2E41"/>
<path d="M80.1037 188.569L74.2731 193.125L70.9775 187.81L76.8081 183.761L80.1037 188.569Z" fill="#A0616A"/>
<path d="M71.8643 222.861L73.3853 230.2L77.6949 236.02C77.6949 236.02 89.356 239.563 81.4974 241.335C73.6388 243.106 71.8643 240.069 71.8643 240.069L66.2872 235.261V241.841H62.7382L61.9777 232.477C61.9777 232.477 61.4707 229.693 63.7522 226.657L64.2592 222.101L71.8643 222.861Z" fill="#2F2E41"/>
<path d="M42.4576 132.008L44.4856 143.649C44.4856 143.649 66.0334 141.371 67.5544 145.674C69.0754 149.976 69.5824 151.241 69.5824 151.241L65.2728 152.76L63.2448 148.964C62.6271 148.745 61.9712 148.655 61.3174 148.699C60.6635 148.742 60.0255 148.918 59.4423 149.217C57.4142 150.229 39.669 152.76 38.4015 149.47C37.134 146.18 33.585 134.032 33.585 134.032L38.9085 129.73L42.4576 132.008Z" fill="#A0616A"/>
<path opacity="0.1" d="M42.4576 132.008L44.4856 143.649C44.4856 143.649 66.0334 141.371 67.5544 145.674C69.0754 149.976 69.5824 151.241 69.5824 151.241L65.2728 152.76L63.2448 148.964C62.6271 148.745 61.9712 148.655 61.3174 148.699C60.6635 148.742 60.0255 148.918 59.4423 149.217C57.4142 150.229 39.669 152.76 38.4015 149.47C37.134 146.18 33.585 134.032 33.585 134.032L38.9085 129.73L42.4576 132.008Z" fill="black"/>
<path d="M54.3721 165.666L56.1466 171.74L60.7097 195.023C60.7097 195.023 61.2167 212.231 61.9772 214.256C62.7377 216.281 62.7377 216.534 61.9772 217.293C61.2167 218.052 59.6956 220.583 61.9772 222.101C64.2587 223.62 72.3708 225.391 72.6243 223.62C72.8778 221.848 72.8778 219.064 72.6243 217.799C72.3708 216.534 73.3848 196.794 73.3848 196.794L70.3428 166.679L59.9492 161.87L54.3721 165.666Z" fill="#2F2E41"/>
<path opacity="0.1" d="M54.3721 165.666L56.1466 171.74L60.7097 195.023C60.7097 195.023 61.2167 212.231 61.9772 214.256C62.7377 216.281 62.7377 216.534 61.9772 217.293C61.2167 218.052 59.6956 220.583 61.9772 222.101C64.2587 223.62 72.3708 225.391 72.6243 223.62C72.8778 221.848 72.8778 219.064 72.6243 217.799C72.3708 216.534 73.3848 196.794 73.3848 196.794L70.3428 166.679L59.9492 161.87L54.3721 165.666Z" fill="black"/>
<path d="M65.2728 141.877L70.8499 152.506C70.8499 152.506 102.791 166.678 100.003 172.499C97.2142 178.32 81.7505 189.202 81.7505 189.202C81.7505 189.202 80.99 193.504 78.7085 192.239C76.4269 190.973 70.8499 184.394 71.3569 183.634C71.8639 182.875 73.6384 181.104 74.3989 181.357C75.1594 181.61 84.032 174.777 84.032 174.777L68.8218 170.981C68.8218 170.981 50.5696 170.475 49.5556 161.87C48.5416 153.266 49.5556 151.747 49.5556 151.747L48.2881 148.963L58.6817 142.637L65.2728 141.877Z" fill="#2F2E41"/>
<path d="M73.1318 183.887L67.8082 188.696C67.8082 188.696 63.2452 186.671 60.4567 187.43C57.6681 188.19 52.8516 188.696 52.8516 188.696L53.6121 192.998L60.0799 191.807L54.8796 199.072C54.8796 199.072 54.8796 210.46 58.1751 210.46C61.4707 210.46 60.4567 203.627 60.4567 203.627L70.5968 195.782C70.5968 195.782 75.6669 193.757 76.1739 193.757C76.6809 193.757 73.1318 183.887 73.1318 183.887Z" fill="#2F2E41"/>
<path d="M40.0498 113.66C44.81 113.66 48.6689 109.808 48.6689 105.056C48.6689 100.304 44.81 96.4512 40.0498 96.4512C35.2896 96.4512 31.4307 100.304 31.4307 105.056C31.4307 109.808 35.2896 113.66 40.0498 113.66Z" fill="#A0616A"/>
<path d="M31.5578 111.762C31.5578 111.762 35.6138 110.75 36.8813 111.762C38.1488 112.774 38.4023 115.052 40.1769 115.305C41.9514 115.558 43.4724 115.558 43.7259 115.811C43.9794 116.064 49.81 123.15 49.81 123.15C49.81 123.15 53.359 125.175 54.1195 127.959C54.88 130.742 62.4851 140.106 63.4991 141.118C64.5131 142.131 56.9081 147.192 54.373 148.964C51.838 150.735 44.4864 151.494 42.2049 147.445C39.9234 143.396 27.5017 117.077 31.5578 111.762Z" fill="#34D1D1"/>
<path d="M41.19 128.212L43.218 139.853C43.218 139.853 64.7658 137.575 66.2868 141.877C67.8078 146.18 68.3148 147.445 68.3148 147.445L64.0053 148.963L61.9772 145.167C61.3595 144.949 60.7037 144.859 60.0498 144.902C59.396 144.946 58.7579 145.122 58.1747 145.42C56.1467 146.433 38.4015 148.963 37.1339 145.674C35.8664 142.384 32.3174 130.236 32.3174 130.236L37.641 125.934L41.19 128.212Z" fill="#A0616A"/>
<path d="M36.3459 112.827C36.3459 112.827 42.4578 125.681 41.9508 129.224C41.4438 132.767 39.6692 130.236 39.6692 130.236C39.6692 130.236 37.3877 126.693 36.3737 128.718C35.3597 130.742 34.0921 133.526 33.0782 133.273C32.0642 133.02 26.4871 114.293 29.5291 112.521C32.5712 110.75 36.3459 112.827 36.3459 112.827Z" fill="#34D1D1"/>
<path d="M23.5303 96.6639C29.8163 96.6639 34.9121 91.5767 34.9121 85.3014C34.9121 79.0261 29.8163 73.939 23.5303 73.939C17.2443 73.939 12.1484 79.0261 12.1484 85.3014C12.1484 91.5767 17.2443 96.6639 23.5303 96.6639Z" fill="#2F2E41"/>
<path d="M13.7127 94.7102C15.1859 95.7732 16.8926 96.4684 18.6901 96.7379C20.4876 97.0073 22.3236 96.8431 24.0445 96.259C25.7654 95.6748 27.3212 94.6877 28.5816 93.3803C29.842 92.0729 30.7705 90.4831 31.2892 88.744C31.0929 90.3025 30.5751 91.8035 29.7684 93.1521C28.9617 94.5007 27.8837 95.6677 26.6024 96.5794C25.3211 97.4912 23.8644 98.1278 22.3242 98.4491C20.784 98.7704 19.1938 98.7695 17.654 98.4463C16.1142 98.1232 14.6583 97.4848 13.3781 96.5716C12.0979 95.6584 11.0212 94.4901 10.2162 93.1405C9.41106 91.7909 8.895 90.2894 8.70054 88.7306C8.50608 87.1719 8.63746 85.5898 9.08638 84.0844C8.83142 86.107 9.12641 88.1608 9.9404 90.0304C10.7544 91.9 12.0574 93.5165 13.7127 94.7102Z" fill="#2F2E41"/>
<path d="M32.8252 110.488C37.4349 110.488 41.1719 106.758 41.1719 102.156C41.1719 97.5538 37.4349 93.8232 32.8252 93.8232C28.2154 93.8232 24.4785 97.5538 24.4785 102.156C24.4785 106.758 28.2154 110.488 32.8252 110.488Z" fill="#2F2E41"/>
<path d="M39.8445 104.807C43.9304 104.807 47.2427 102.221 47.2427 99.0309C47.2427 95.841 43.9304 93.255 39.8445 93.255C35.7586 93.255 32.4463 95.841 32.4463 99.0309C32.4463 102.221 35.7586 104.807 39.8445 104.807Z" fill="#2F2E41"/>
<path d="M40.1761 108.852C41.0861 108.852 41.8239 107.549 41.8239 105.941C41.8239 104.334 41.0861 103.031 40.1761 103.031C39.2661 103.031 38.5283 104.334 38.5283 105.941C38.5283 107.549 39.2661 108.852 40.1761 108.852Z" fill="#A0616A"/>
<path d="M62.795 148.853C62.795 148.853 67.2827 146.283 68.1158 146.927C68.9489 147.572 69.3191 149.589 69.3191 149.589L64.1323 151.621L62.6113 148.837L62.795 148.853Z" fill="#2F2E41"/>
<path fill-rule="evenodd" clip-rule="evenodd" d="M191.431 140.797C191.568 139.506 193.165 138.96 194.065 139.896L197.597 143.574L202.618 142.491C203.897 142.215 204.905 143.551 204.281 144.695L201.831 149.187L204.395 153.588C205.047 154.708 204.073 156.081 202.788 155.851L197.742 154.949L194.305 158.753C193.43 159.721 191.819 159.233 191.649 157.947L190.98 152.898L186.293 150.848C185.099 150.326 185.078 148.651 186.257 148.086L190.891 145.868L191.431 140.797ZM193.527 141.546C193.302 141.311 192.9 141.449 192.866 141.772L192.414 146.02C192.358 146.546 192.03 147.007 191.55 147.237L187.667 149.096C187.371 149.238 187.376 149.656 187.674 149.787L191.604 151.506C192.09 151.718 192.429 152.167 192.499 152.691L193.059 156.923C193.102 157.245 193.506 157.366 193.725 157.123L196.604 153.937C196.961 153.542 197.498 153.359 198.021 153.452L202.249 154.208C202.571 154.266 202.816 153.922 202.653 153.642L200.504 149.953C200.238 149.497 200.231 148.934 200.486 148.468L202.54 144.703C202.696 144.416 202.443 144.083 202.123 144.152L197.914 145.06C197.393 145.173 196.852 145.009 196.486 144.627L193.527 141.546Z" fill="white"/>
</g>
<defs>
<clipPath id="clip0">
<rect width="348" height="244" fill="white"/>
</clipPath>
</defs>
</svg>
