<svg width="342" height="287" viewBox="0 0 342 287" fill="none" xmlns="http://www.w3.org/2000/svg">
<g clip-path="url(#clip0)">
<path d="M91.0907 174.476C90.1699 174.476 89.2397 174.462 88.3267 174.433L88.3474 173.771C89.6584 173.811 90.9964 173.823 92.3135 173.805L92.3226 174.468C91.9126 174.474 91.502 174.476 91.0907 174.476ZM96.3163 174.323L96.2774 173.66C97.5903 173.583 98.9201 173.474 100.23 173.337L100.299 173.997C98.9794 174.135 97.6396 174.245 96.3163 174.323ZM84.3366 174.219C83.0126 174.118 81.6747 173.985 80.3598 173.824L80.4408 173.166C81.7457 173.325 83.0732 173.457 84.3872 173.558L84.3366 174.219ZM104.263 173.49L104.163 172.834C105.468 172.636 106.782 172.407 108.069 172.151L108.199 172.801C106.902 173.059 105.577 173.291 104.263 173.49ZM76.4059 173.247C75.0979 173.026 73.7777 172.771 72.4819 172.49L72.6227 171.841C73.9086 172.121 75.2186 172.373 76.5167 172.593L76.4059 173.247ZM112.1 171.933L111.94 171.289C113.221 170.973 114.508 170.623 115.768 170.249L115.956 170.886C114.687 171.262 113.39 171.614 112.1 171.933ZM68.5973 171.553C67.3143 171.212 66.0232 170.836 64.7598 170.437L64.9598 169.805C66.2136 170.201 67.4948 170.573 68.7678 170.911L68.5973 171.553ZM119.76 169.662L119.542 169.035C120.785 168.603 122.035 168.137 123.258 167.647L123.504 168.263C122.272 168.756 121.013 169.227 119.76 169.662H119.76ZM60.9681 169.142C59.7221 168.684 58.4683 168.19 57.2419 167.674L57.4995 167.062C58.7165 167.575 59.9606 168.065 61.1973 168.519L60.9681 169.142ZM127.171 166.698L126.896 166.094C128.089 165.552 129.289 164.974 130.461 164.375L130.763 164.966C129.582 165.569 128.373 166.152 127.171 166.698H127.171ZM134.273 163.07L133.944 162.494C135.089 161.841 136.231 161.155 137.339 160.454L137.694 161.015C136.577 161.721 135.426 162.412 134.273 163.07H134.273ZM141.018 158.805L140.638 158.261C141.716 157.509 142.791 156.721 143.834 155.919L144.239 156.445C143.188 157.253 142.104 158.047 141.018 158.805ZM39.8504 157.871C38.7791 157.093 37.7089 156.278 36.6693 155.448L37.0835 154.93C38.1151 155.753 39.1772 156.562 40.2403 157.333L39.8504 157.871ZM147.349 153.941L146.921 153.434C147.926 152.587 148.925 151.704 149.893 150.81L150.343 151.297C149.369 152.198 148.361 153.088 147.349 153.941H147.349ZM33.6026 152.885C32.6049 152.011 31.6136 151.103 30.6565 150.185L31.1161 149.706C32.066 150.617 33.0497 151.519 34.0398 152.386L33.6026 152.885ZM153.215 148.519L152.742 148.053C153.668 147.115 154.584 146.145 155.464 145.169L155.957 145.613C155.07 146.596 154.148 147.574 153.215 148.519ZM27.837 147.354C26.9216 146.392 26.0175 145.398 25.1499 144.399L25.6513 143.964C26.5123 144.955 27.4094 145.942 28.318 146.897L27.837 147.354ZM158.565 142.584L158.052 142.163C158.888 141.146 159.712 140.096 160.501 139.042L161.032 139.439C160.238 140.501 159.408 141.559 158.565 142.584L158.565 142.584ZM22.6006 141.325C21.7785 140.287 20.9691 139.215 20.1946 138.139L20.7333 137.752C21.5019 138.819 22.3052 139.883 23.1211 140.913L22.6006 141.325ZM163.353 136.184L162.804 135.812C163.545 134.723 164.27 133.601 164.959 132.479L165.525 132.826C164.83 133.957 164.099 135.087 163.353 136.184L163.353 136.184ZM17.9372 134.848C17.214 133.74 16.5061 132.599 15.8331 131.458L16.4048 131.121C17.0728 132.254 17.7753 133.386 18.4931 134.485L17.9372 134.848ZM167.54 129.371L166.959 129.05C167.597 127.898 168.216 126.714 168.8 125.532L169.395 125.826C168.806 127.017 168.182 128.21 167.54 129.371ZM171.085 122.199L170.477 121.933C171.006 120.726 171.514 119.489 171.987 118.258L172.606 118.496C172.13 119.737 171.618 120.983 171.085 122.199ZM10.4845 120.768C9.97568 119.547 9.48839 118.299 9.03626 117.056L9.66016 116.829C10.1087 118.062 10.5923 119.301 11.0971 120.513L10.4845 120.768ZM173.955 114.726L173.325 114.517C173.739 113.27 174.13 111.995 174.487 110.727L175.126 110.906C174.766 112.184 174.372 113.469 173.955 114.726ZM7.75765 113.272C7.36273 112.008 6.99163 110.716 6.65471 109.433L7.29677 109.264C7.63109 110.538 7.99944 111.82 8.39128 113.074L7.75765 113.272ZM176.119 107.037L175.472 106.887C175.769 105.609 176.041 104.303 176.28 103.007L176.932 103.127C176.692 104.433 176.418 105.749 176.119 107.037V107.037ZM5.73038 105.547C5.45358 104.251 5.20305 102.931 4.9859 101.623L5.6406 101.514C5.85629 102.812 6.10488 104.122 6.37956 105.408L5.73038 105.547ZM177.565 99.1834L176.907 99.0934C177.086 97.7941 177.236 96.4692 177.355 95.1554L178.017 95.215C177.897 96.5392 177.745 97.8741 177.565 99.1835V99.1834ZM4.42228 97.6687C4.26573 96.3555 4.13722 95.018 4.04015 93.6935L4.70231 93.6449C4.7984 94.9597 4.9261 96.2869 5.08151 97.5904L4.42228 97.6687ZM178.287 91.2307L177.624 91.2009C177.683 89.8864 177.713 88.5531 177.713 87.2382H178.377C178.377 88.5631 178.347 89.9064 178.287 91.2307ZM3.83905 89.7043C3.81636 88.8909 3.80486 88.061 3.80469 87.2382C3.80469 86.7277 3.80906 86.2182 3.81781 85.7096L4.48159 85.7213C4.47283 86.2259 4.46846 86.7316 4.46846 87.2382C4.46862 88.0549 4.48013 88.8786 4.50249 89.6862L3.83905 89.7043ZM4.6391 81.7607L3.97663 81.7193C4.05944 80.3938 4.17385 79.0549 4.31629 77.7399L4.97618 77.8114C4.8347 79.1165 4.72142 80.4451 4.63909 81.7607H4.6391ZM177.284 77.7134C177.152 76.4055 176.969 75.7679 176.777 74.4657L177.434 74.3688C177.627 75.6809 177.794 76.6825 177.927 78.0002L177.284 77.7134ZM5.49295 73.8818L4.83696 73.7804C5.04034 72.468 5.27661 71.1452 5.5393 69.8484L6.1898 69.9799C5.9292 71.2669 5.69471 72.5796 5.49295 73.8818ZM176.107 70.5596C175.854 69.2655 175.568 67.9628 175.258 66.6878L175.903 66.531C176.216 67.8157 176.503 69.1284 176.758 70.4323L176.107 70.5596ZM7.0652 66.1143L6.42136 65.9529C6.74368 64.6681 7.10069 63.3725 7.48249 62.1021L8.11805 62.2929C7.73934 63.5536 7.38509 64.8393 7.0652 66.1143ZM174.231 62.8591C173.861 61.5959 173.456 60.3253 173.029 59.0821L173.656 58.8663C174.087 60.1191 174.495 61.3998 174.868 62.6725L174.231 62.8591ZM9.35015 58.5137L8.72398 58.2938C9.16509 57.0397 9.64137 55.7796 10.1395 54.5485L10.755 54.7973C10.2606 56.0188 9.78786 57.2694 9.35015 58.5137ZM171.653 55.3643C171.169 54.1434 170.651 52.9182 170.112 51.7224L170.717 51.4499C171.26 52.655 171.783 53.8896 172.27 55.1198L171.653 55.3643ZM12.3294 51.1508L11.7262 50.8738C12.2806 49.6672 12.8706 48.4571 13.4799 47.2774L14.0698 47.5816C13.465 48.7524 12.8795 49.9532 12.3294 51.1508ZM168.405 48.1536C167.811 46.9825 167.181 45.8089 166.534 44.6659L167.112 44.339C167.764 45.4909 168.398 46.6734 168.997 47.8537L168.405 48.1536ZM15.9725 44.0971L15.3972 43.766C16.0593 42.6169 16.7576 41.4666 17.4728 40.3474L18.0322 40.7044C17.3225 41.8151 16.6294 42.9567 15.9725 44.0971ZM164.505 41.2659C163.804 40.15 163.069 39.0382 162.322 37.9615L162.867 37.5835C163.62 38.6685 164.361 39.7886 165.067 40.9132L164.505 41.2659ZM20.2449 37.4103L19.7023 37.0281C20.4675 35.9434 21.2676 34.8623 22.0808 33.8147L22.6052 34.2212C21.7983 35.2611 21.0041 36.3339 20.2449 37.4103ZM159.99 34.7593C159.19 33.7122 158.357 32.6712 157.514 31.6654L158.022 31.2393C158.872 32.2529 159.712 33.3016 160.518 34.3566L159.99 34.7593ZM25.1081 31.1441L24.6028 30.7139C25.4615 29.7058 26.3565 28.7024 27.2629 27.7316L27.7481 28.1842C26.8487 29.1477 25.9605 30.1436 25.1081 31.1441ZM154.899 28.6867C154.007 27.7167 153.082 26.7553 152.15 25.8295L152.618 25.3589C153.557 26.2919 154.489 27.2605 155.387 28.2378L154.899 28.6867ZM30.5194 25.3485L30.0553 24.8742C31.0044 23.9462 31.9866 23.0286 32.9743 22.1472L33.4164 22.6422C32.4362 23.5168 31.4614 24.4274 30.5194 25.3485ZM149.274 23.0996C148.297 22.2138 147.288 21.3402 146.275 20.503L146.699 19.9918C147.719 20.8353 148.735 21.7156 149.72 22.6082L149.274 23.0996ZM36.433 20.0705L36.014 19.5561C37.0406 18.7206 38.1015 17.8965 39.1676 17.1067L39.563 17.6396C38.5049 18.4235 37.4519 19.2413 36.433 20.0705ZM42.7993 15.3546L42.4289 14.8042C43.5276 14.0653 44.6587 13.3418 45.791 12.6533L46.1358 13.2202C45.0123 13.9034 43.8898 14.6215 42.7993 15.3546ZM49.5657 11.241L49.2471 10.6589C50.4095 10.0232 51.6014 9.40642 52.7896 8.82545L53.0813 9.42148C51.9022 9.99793 50.7194 10.61 49.5657 11.241ZM129.673 9.70395C128.492 9.11584 127.282 8.54769 126.077 8.01531L126.345 7.40859C127.56 7.94501 128.779 8.51756 129.969 9.11019L129.673 9.70395ZM56.6753 7.76539L56.4115 7.15672C57.6263 6.63049 58.8689 6.12581 60.1047 5.6566L60.3404 6.27692C59.1139 6.74242 57.8808 7.24322 56.6753 7.76539ZM122.406 6.49347C121.177 6.01715 119.919 5.56266 118.667 5.14285L118.878 4.51377C120.14 4.93699 121.407 5.39486 122.646 5.87509L122.406 6.49347ZM64.0792 4.95546L63.8725 4.3251C65.1339 3.91176 66.4209 3.52256 67.6976 3.16867L67.875 3.80778C66.6081 4.15908 65.3309 4.54521 64.0792 4.95546ZM114.879 3.96909C113.613 3.6084 112.322 3.27249 111.041 2.97074L111.193 2.32515C112.484 2.62916 113.785 2.96766 115.061 3.33096L114.879 3.96909ZM71.7199 2.83615L71.5721 2.18942C72.8653 1.89416 74.1826 1.62514 75.4873 1.38996L75.6053 2.04269C74.3103 2.27624 73.0032 2.54316 71.7199 2.83615ZM107.161 2.15055C105.869 1.90809 104.552 1.69235 103.248 1.50933L103.34 0.852404C104.654 1.03688 105.981 1.25424 107.284 1.49848L107.161 2.15055ZM79.5233 1.42868L79.4354 0.771103C80.7494 0.595857 82.0857 0.448468 83.407 0.333476L83.4647 0.994291C82.1534 1.10863 80.8275 1.25472 79.5233 1.42868ZM99.3091 1.04806C98.0016 0.924971 96.6708 0.83006 95.3533 0.766406L95.3857 0.103661C96.713 0.167962 98.0538 0.263523 99.3713 0.3876L99.3091 1.04806ZM87.4227 0.739844L87.3949 0.0770979C88.6148 0.026241 89.8581 0.00032507 91.0907 0L91.3911 0.000487793L91.3892 0.663897L91.0907 0.663409C89.8675 0.663714 88.6333 0.689467 87.4227 0.739837V0.739844Z" fill="#3F3D56"/>
<path d="M197.884 31.2486V246.259C197.882 248.821 196.862 251.276 195.049 253.087C193.237 254.897 190.779 255.915 188.217 255.915H100.881C99.6111 255.918 98.3535 255.669 97.1799 255.185C96.0064 254.701 94.94 253.99 94.0419 253.093C93.1438 252.196 92.4317 251.13 91.9462 249.958C91.4607 248.785 91.2115 247.528 91.2129 246.259V31.2486C91.2128 29.9797 91.4628 28.7231 91.9486 27.5508C92.4344 26.3784 93.1465 25.3132 94.0443 24.4159C94.9421 23.5186 96.0079 22.8069 97.1809 22.3214C98.3539 21.8358 99.6111 21.586 100.881 21.5861H113.95V23.2612C113.95 25.3712 114.788 27.3949 116.281 28.8872C117.773 30.3794 119.798 31.2181 121.909 31.2188H166.329C168.028 31.2224 169.683 30.678 171.048 29.6664C171.324 29.4658 171.586 29.2463 171.831 29.0096C172.609 28.2676 173.227 27.3755 173.65 26.3873C174.072 25.3992 174.289 24.3356 174.287 23.2612V21.5861H188.217C189.486 21.5857 190.744 21.8353 191.917 22.3208C193.09 22.8062 194.156 23.518 195.054 24.4153C195.951 25.3126 196.663 26.378 197.149 27.5505C197.635 28.7229 197.885 29.9796 197.884 31.2486Z" fill="#3F3D56"/>
<path d="M185.116 99.0953H103.981V160.792H185.116V99.0953Z" fill="#DAF0F0"/>
<path d="M61.2568 88.6999C68.4805 88.8548 74.2269 94.0869 74.2269 94.0869C74.2269 94.0869 68.2613 99.0678 61.0375 98.9129C53.8138 98.7581 48.0674 93.526 48.0674 93.526C48.0674 93.526 54.033 88.5451 61.2568 88.6999Z" fill="#DAF0F0"/>
<path d="M24.9395 64.055C31.4658 67.1539 38.9495 65.0525 38.9495 65.0525C38.9495 65.0525 35.8518 57.9269 29.3254 54.8281C22.7991 51.7292 15.3154 53.8306 15.3154 53.8306C15.3154 53.8306 18.4131 60.9562 24.9395 64.055Z" fill="#DAF0F0"/>
<path d="M25.6025 60.9755C32.7979 60.3183 39.0961 64.872 39.0961 64.872C39.0961 64.872 33.7281 70.4912 26.5327 71.1485C19.3372 71.8057 13.0391 67.252 13.0391 67.252C13.0391 67.252 18.407 61.6327 25.6025 60.9755Z" fill="#3F3D56"/>
<path d="M51.9787 62.2207C51.289 69.4092 55.8171 75.7241 55.8171 75.7241C55.8171 75.7241 61.4633 70.3842 62.153 63.1957C62.8426 56.0072 58.3146 49.6923 58.3146 49.6923C58.3146 49.6923 52.6684 55.0322 51.9787 62.2207Z" fill="#3F3D56"/>
<path d="M85.8661 106.307C82.0921 112.466 83.3905 120.126 83.3905 120.126C83.3905 120.126 90.8079 117.801 94.582 111.643C98.356 105.485 97.0576 97.8252 97.0576 97.8252C97.0576 97.8252 89.6402 100.149 85.8661 106.307Z" fill="#3F3D56"/>
<path d="M74.9173 173.262L75.4673 172.89C73.5286 170.078 72.4701 166.754 72.4262 163.339C72.4416 158.345 74.8962 153.725 77.2702 149.257C77.7108 148.428 78.1499 147.601 78.5724 146.775C80.3458 143.407 81.759 139.861 82.7887 136.197C86.4709 122.52 82.8456 106.385 73.0913 93.0345C65.3532 82.4436 53.8181 73.1824 37.8271 64.7217L37.5166 65.308C53.4165 73.7205 64.8778 82.918 72.5552 93.4258C82.1922 106.616 85.7781 122.54 82.1476 136.024C81.1299 139.644 79.7335 143.146 77.9816 146.474C77.5604 147.297 77.1228 148.12 76.6838 148.946C74.2722 153.485 71.7783 158.179 71.7624 163.338C71.8063 166.885 72.9044 170.339 74.9173 173.262Z" fill="#3F3D56"/>
<path d="M6.30583 65.5934C9.78845 65.5934 12.6117 62.7717 12.6117 59.291C12.6117 55.8103 9.78845 52.9886 6.30583 52.9886C2.82322 52.9886 0 55.8103 0 59.291C0 62.7717 2.82322 65.5934 6.30583 65.5934Z" fill="#3F3D56"/>
<path d="M95.0729 161.593L55.4893 158.297V100.272L95.0729 98.2943V161.593Z" fill="#DAF0F0"/>
<path d="M194.023 161.593L233.607 158.297V100.272L194.023 98.2943V161.593Z" fill="#DAF0F0"/>
<path d="M158.308 122.253C157.13 121.236 155.679 120.589 154.135 120.393C152.591 120.197 151.024 120.46 149.629 121.15C148.418 121.736 147.115 122.108 145.777 122.252C145.743 119.355 146.275 116.481 147.343 113.788L147.518 113.336H145.191L145.125 113.58C144.865 114.533 144.661 115.499 144.513 116.474C144.387 116.052 144.224 115.641 144.026 115.246C142.394 112.013 138.624 110.69 138.464 110.636L138.143 110.525L138.04 110.849C137.989 111.01 136.812 114.827 138.443 118.06C139.612 120.376 141.876 121.711 143.127 122.303C141.544 122.201 139.996 121.787 138.574 121.086C137.687 120.629 136.689 120.431 135.695 120.515C134.701 120.599 133.75 120.961 132.952 121.56C128.609 124.859 126.117 129.695 126.117 134.828C126.117 141.571 130.486 147.746 137.248 150.559C137.858 150.812 138.512 150.942 139.173 150.941C140.09 150.942 140.99 150.695 141.778 150.227C142.826 149.618 144.017 149.296 145.229 149.293C146.442 149.291 147.634 149.608 148.684 150.213C149.364 150.614 150.127 150.851 150.913 150.906C151.7 150.962 152.489 150.834 153.218 150.532C159.94 147.708 164.284 141.543 164.284 134.828C164.284 130.021 162.161 125.555 158.308 122.253ZM145.699 114H146.553C145.593 116.572 145.103 119.295 145.108 122.041H144.955C144.75 119.338 145.001 116.619 145.699 114ZM139.036 117.762C137.797 115.307 138.341 112.381 138.581 111.393C139.518 111.786 142.192 113.086 143.433 115.545C144.672 118 144.129 120.925 143.889 121.913C142.951 121.519 140.275 120.216 139.036 117.762ZM152.961 149.921C152.327 150.182 151.641 150.293 150.958 150.245C150.274 150.196 149.611 149.99 149.021 149.641C147.868 148.976 146.559 148.627 145.228 148.63C143.897 148.633 142.589 148.987 141.439 149.657C140.851 150.007 140.189 150.215 139.505 150.266C138.822 150.316 138.137 150.207 137.503 149.947C130.99 147.237 126.781 141.302 126.781 134.828C126.781 129.904 129.177 125.26 133.354 122.088C134.155 121.483 135.133 121.157 136.137 121.159C136.879 121.159 137.61 121.336 138.27 121.675C140.088 122.542 142.075 122.998 144.089 123.01C146.104 123.022 148.096 122.59 149.924 121.744C151.202 121.112 152.638 120.871 154.053 121.051C155.467 121.231 156.797 121.825 157.875 122.756C161.58 125.931 163.62 130.218 163.62 134.828C163.62 141.276 159.436 147.2 152.961 149.921Z" fill="white"/>
<path d="M75.172 115.984V115.205H75.4817V112.779C75.4828 112.599 75.4345 112.422 75.342 112.268C75.2495 112.114 75.1163 111.988 74.9571 111.904C73.5873 111.19 72.1151 111.191 70.5816 111.908C70.4124 111.988 70.2694 112.115 70.1694 112.273C70.0694 112.432 70.0164 112.615 70.0167 112.802V115.205H70.3264V115.91C69.1865 116.229 68.1829 116.914 67.4695 117.858C66.7561 118.802 66.3723 119.954 66.377 121.137V126.387L66.9669 126.583L66.377 126.976V128.554L66.9669 128.75L66.377 129.143V130.721L66.9669 130.917L66.377 131.311V143.326C66.3781 144.263 66.751 145.161 67.4141 145.824C68.0771 146.487 68.9761 146.86 69.9138 146.861H75.1279C76.0635 146.86 76.9605 146.488 77.622 145.827C78.2836 145.165 78.6557 144.269 78.6568 143.334V131.311L78.0669 130.917L78.6568 130.721V129.143L78.0669 128.75L78.6568 128.554V126.976L78.0669 126.583L78.6568 126.387V120.866C78.6528 119.792 78.3155 118.745 77.6914 117.871C77.0672 116.996 76.1869 116.337 75.172 115.984ZM70.8626 112.509C72.2182 111.876 73.4573 111.87 74.6498 112.493C74.7011 112.521 74.7439 112.562 74.7734 112.613C74.803 112.663 74.8184 112.721 74.8179 112.779V114.077H70.6805V112.802C70.6799 112.741 70.6968 112.681 70.729 112.629C70.7612 112.577 70.8076 112.535 70.8626 112.509ZM77.993 125.909L76.5695 126.383L77.993 127.331V128.076L76.5695 128.55L77.993 129.499V130.243L76.5695 130.717L77.993 131.666V143.334C77.9921 144.093 77.69 144.821 77.1529 145.358C76.6157 145.895 75.8875 146.197 75.1279 146.197H69.9138C69.1521 146.197 68.4218 145.894 67.8832 145.355C67.3446 144.817 67.0416 144.087 67.0408 143.326V131.666L68.4642 130.717L67.0408 130.243V129.499L68.4642 128.55L67.0408 128.076V127.331L68.4642 126.383L67.0408 125.909V121.137C67.0366 120.059 67.3999 119.011 68.0711 118.166C68.7422 117.322 69.6811 116.731 70.7332 116.49L70.9902 116.431V115.205H74.5082V116.476L74.7476 116.545C75.6819 116.82 76.5024 117.389 77.0871 118.168C77.6719 118.946 77.9896 119.892 77.993 120.866V125.909Z" fill="white"/>
<path d="M231.179 125.068L229.508 124.735L229.902 123.948L229.135 123.795L229.268 122.998L228.431 122.859V122.103L227.752 121.909L228.397 121.104H227.278L227.512 120.521L226.685 120.383L226.965 119.4H226.071V118.483H225.739C224.693 118.483 224.11 119.724 223.918 120.221C218.146 121.227 201.386 132.83 199.473 134.164C198.679 133.906 197.5 134.51 197.254 134.644L196.864 134.857L197.426 135.418L197.259 135.92L198.29 136.307L198.064 136.871L198.714 137.412L198.13 137.85L199.008 138.377L198.854 139.146L199.835 139.287V140.057L200.404 140.171L200.12 141.165H200.753V141.952H201.37L201.649 142.79L201.937 142.732C202.604 142.599 203.176 141.675 203.4 141.266C208.959 140.274 226.122 128.206 227.793 127.024C229.743 127.257 230.459 126.737 230.536 126.675L230.853 126.421L230.096 125.791L231.179 125.068ZM227.75 126.35L227.62 126.332L227.514 126.408C227.324 126.543 208.502 139.87 203.136 140.637L202.964 140.661L202.886 140.817C202.68 141.236 202.402 141.615 202.065 141.938L201.848 141.289H201.416V140.502H201L201.24 139.662L200.498 139.513V138.711L199.643 138.589L199.751 138.048L199.318 137.788L199.783 137.44L198.859 136.67L199.158 135.924L198.091 135.524L198.186 135.239L197.98 135.033C198.478 134.826 199.081 134.672 199.34 134.827L199.525 134.938L199.701 134.814C199.89 134.682 218.585 121.614 224.21 120.847L224.42 120.818L224.482 120.616C224.579 120.302 224.923 119.51 225.407 119.239V120.064H226.086L225.842 120.915L226.589 121.04L226.297 121.767H227.015L226.611 122.273L227.767 122.603V123.421L228.504 123.543L228.375 124.32L228.92 124.428L228.526 125.215L229.478 125.405L228.988 125.731L229.692 126.318C229.052 126.448 228.394 126.459 227.75 126.35Z" fill="white"/>
<path d="M144.549 188.987C149.864 188.987 154.173 184.68 154.173 179.368C154.173 174.055 149.864 169.748 144.549 169.748C139.233 169.748 134.924 174.055 134.924 179.368C134.924 184.68 139.233 188.987 144.549 188.987Z" fill="#DAF0F0"/>
<path d="M174.904 179.7L169.926 177.378V178.704H158.31V180.695H169.926V182.021L174.904 179.7Z" fill="white"/>
<path d="M114.192 179.7L119.171 177.378V178.704H130.787V180.695H119.171V182.021L114.192 179.7Z" fill="white"/>
<path d="M266.184 255.992H22.9121V256.655H266.184V255.992Z" fill="#3F3D56"/>
<path d="M176.409 52.9885H112.688V53.6519H176.409V52.9885Z" fill="white"/>
<path d="M176.564 234.099H112.842V234.762H176.564V234.099Z" fill="white"/>
<path d="M278.95 168.588L277.291 174.89C277.291 174.89 271.317 188.158 277.291 188.821C283.265 189.485 283.597 171.573 283.597 171.573L278.95 168.588Z" fill="#A0616A"/>
<path d="M289.239 123.144L277.291 170.246C277.291 170.246 281.937 171.573 284.261 173.231L289.239 123.144Z" fill="#D0CDE1"/>
<path d="M326.742 158.968L330.061 210.382C330.061 210.382 338.026 230.616 337.694 249.855C337.694 249.855 334.707 257.484 337.03 258.811C339.353 260.138 340.681 261.133 339.353 262.128C338.026 263.123 337.03 265.445 338.026 266.109C339.021 266.772 339.353 267.767 339.021 267.767H329.065C329.065 267.767 331.056 262.792 328.069 261.465C325.082 260.138 326.742 256.821 326.742 256.821L304.505 191.807L286.915 251.514C286.915 251.514 289.902 253.504 287.579 254.499C285.256 255.494 284.26 253.504 285.256 255.494C286.252 257.484 284.924 258.479 284.924 258.811C284.924 259.143 274.967 257.816 274.967 257.816C274.967 257.816 279.946 253.504 277.623 252.509C275.299 251.514 274.304 250.519 274.967 249.855C275.631 249.192 278.286 242.889 278.286 242.889C278.286 242.889 279.614 219.007 279.946 218.011C280.278 217.016 279.946 212.372 279.946 210.051C279.946 207.729 279.614 198.441 280.61 196.119C281.605 193.797 282.601 165.27 287.911 161.953C293.221 158.636 326.742 158.968 326.742 158.968Z" fill="#2F2E41"/>
<path d="M284.592 257.153C284.592 257.153 291.23 270.753 286.584 272.411C281.937 274.07 275.963 272.743 274.636 274.733C273.308 276.723 258.705 279.045 258.373 274.07C258.041 269.094 274.304 259.806 274.304 259.806L276.422 256.397L284.592 257.153Z" fill="#2F2E41"/>
<path d="M338.358 267.104C338.358 267.104 344.996 280.704 340.349 282.362C335.703 284.021 329.729 282.694 328.401 284.684C327.074 286.674 312.471 288.996 312.139 284.021C311.807 279.045 328.069 269.757 328.069 269.757L330.188 266.348L338.358 267.104Z" fill="#2F2E41"/>
<path d="M307.658 96.4418C313.707 96.4418 318.611 91.541 318.611 85.4956C318.611 79.4501 313.707 74.5493 307.658 74.5493C301.61 74.5493 296.706 79.4501 296.706 85.4956C296.706 91.541 301.61 96.4418 307.658 96.4418Z" fill="#A0616A"/>
<path d="M315.126 91.3003L313.798 100.92L303.842 108.549L301.187 104.9V92.2954L315.126 91.3003Z" fill="#A0616A"/>
<path d="M299.528 103.573C299.528 103.573 309.816 104.569 315.126 100.92L325.747 163.612C325.747 163.612 288.243 166.597 286.584 164.607V145.036L293.222 113.193L299.528 103.573Z" fill="#34D1D1"/>
<path d="M314.213 97.9225L317.782 100.92C317.782 100.92 332.385 103.242 331.389 107.222L327.406 154.324L328.734 170.246C328.734 170.246 317.45 167.261 308.821 170.246C300.192 173.231 307.047 106.093 307.047 106.093C307.047 106.093 314.958 98.9056 314.213 97.9225Z" fill="#D0CDE1"/>
<path d="M301.187 101.553C301.187 101.553 290.566 109.212 289.239 114.188C287.911 119.163 283.597 171.573 283.597 171.573C283.597 171.573 285.588 170.578 286.584 172.236C287.579 173.895 302.846 104.177 301.187 101.553Z" fill="#D0CDE1"/>
<path d="M330.392 170.909L328.013 178.669C328.013 178.669 327.405 193.134 319.44 191.143C311.475 189.153 321.763 172.236 321.763 172.236L324.087 168.588L330.392 170.909Z" fill="#A0616A"/>
<path d="M296.711 85.0186C296.711 85.0186 295.525 83.2411 295.981 81.3269C296.254 80.2401 296.361 79.1185 296.301 77.9998C296.301 77.9998 297.258 74.9006 298.216 73.1686C299.173 71.4367 298.717 70.7075 301.727 70.1606C304.737 69.6136 303.506 65.694 311.44 69.9327C311.708 70.3063 312.081 70.5922 312.511 70.7544C312.941 70.9167 313.409 70.9479 313.857 70.8442C315.499 70.5252 316.092 72.804 316.092 72.804C316.092 72.804 317.186 72.1659 317.597 73.0775C318.007 73.989 320.933 72.5304 320.933 78.6833C320.933 84.8361 317.603 90.3323 317.603 90.3323C317.603 90.3323 317.847 79.9824 312.421 78.9341C306.994 77.8858 301.157 74.8322 299.744 78.7518C298.98 80.9517 297.963 83.0549 296.711 85.0186Z" fill="#2F2E41"/>
<path d="M317.723 87.4794C318.314 87.4794 318.793 86.8408 318.793 86.053C318.793 85.2652 318.314 84.6266 317.723 84.6266C317.132 84.6266 316.652 85.2652 316.652 86.053C316.652 86.8408 317.132 87.4794 317.723 87.4794Z" fill="#A0616A"/>
<path d="M328.733 104.9C328.733 104.9 334.043 103.573 335.703 112.529C337.362 121.485 339.354 147.027 339.354 147.027L331.388 173.895C331.388 173.895 323.423 169.583 321.764 170.246L328.032 146.92L322.759 123.144C322.759 123.144 327.406 104.9 328.733 104.9Z" fill="#D0CDE1"/>
<path opacity="0.15" d="M321.012 123.598L327.981 146.817L321.012 170.368L324.994 146.817L321.012 123.598Z" fill="black"/>
<path fill-rule="evenodd" clip-rule="evenodd" d="M143.595 173.581C143.951 172.806 145.049 172.806 145.405 173.581L146.804 176.623L150.12 177.017C150.964 177.117 151.303 178.164 150.679 178.743L148.227 181.018L148.878 184.303C149.044 185.14 148.156 185.787 147.414 185.37L144.5 183.734L141.586 185.37C140.844 185.787 139.956 185.14 140.122 184.303L140.773 181.018L138.321 178.743C137.697 178.164 138.036 177.117 138.88 177.017L142.196 176.623L143.595 173.581ZM144.727 174.493C144.638 174.299 144.362 174.299 144.273 174.493L143.101 177.041C142.956 177.357 142.658 177.574 142.314 177.615L139.535 177.946C139.323 177.971 139.238 178.232 139.394 178.377L141.449 180.284C141.704 180.52 141.818 180.872 141.75 181.212L141.205 183.966C141.163 184.175 141.386 184.337 141.572 184.232L144.013 182.862C144.316 182.692 144.684 182.692 144.987 182.862L147.428 184.232C147.614 184.337 147.837 184.175 147.795 183.966L147.25 181.212C147.182 180.872 147.296 180.52 147.551 180.284L149.606 178.377C149.762 178.232 149.677 177.971 149.465 177.946L146.686 177.615C146.342 177.574 146.044 177.357 145.899 177.041L144.727 174.493Z" fill="white"/>
</g>
<defs>
<clipPath id="clip0">
<rect width="342" height="287" fill="white"/>
</clipPath>
</defs>
</svg>
