<svg width="30" height="30" viewBox="0 0 30 30" fill="none" xmlns="http://www.w3.org/2000/svg">
<path d="M25.2188 8.61328H21.2637L18.8965 6.22266C18.8965 6.22266 18.8848 6.21094 18.8789 6.21094L18.8672 6.19922C18.5156 5.84766 18.041 5.625 17.502 5.625H12.5801C12.0059 5.625 11.4961 5.87109 11.1387 6.26367V6.26953L8.82422 8.61328H4.78125C3.69141 8.61328 2.8125 9.46875 2.8125 10.5586V22.4004C2.8125 23.4902 3.69141 24.375 4.78125 24.375H25.2188C26.3027 24.375 27.1875 23.4902 27.1875 22.4004V10.5586C27.1875 9.46875 26.3027 8.61328 25.2188 8.61328ZM15 21.416C12.0176 21.416 9.58594 18.9785 9.58594 15.9902C9.58594 12.9961 12.0176 10.5645 15 10.5645C17.9883 10.5645 20.4141 12.9961 20.4141 15.9902C20.4141 18.9785 17.9883 21.416 15 21.416ZM24.8496 11.748C24.3984 11.748 24.0293 11.3789 24.0293 10.9219C24.0293 10.4648 24.3984 10.0957 24.8496 10.0957C25.3008 10.0957 25.6699 10.4648 25.6699 10.9219C25.6699 11.3789 25.3008 11.748 24.8496 11.748Z" fill="white"/>
<path d="M15 11.8887C12.7383 11.8887 10.9102 13.7227 10.9102 15.9902C10.9102 18.252 12.7383 20.0918 15 20.0918C17.2559 20.0918 19.0898 18.2578 19.0898 15.9902C19.0898 13.7227 17.2559 11.8887 15 11.8887Z" fill="white"/>
</svg>
