<svg width="23" height="23" viewBox="0 0 23 23" fill="none" xmlns="http://www.w3.org/2000/svg">
<path d="M19.6528 17.3668L13.786 11.5L19.6528 5.63322C20.2862 4.99982 20.2862 3.98009 19.6528 3.34669C19.0194 2.71329 17.9997 2.71329 17.3663 3.34669L11.4995 9.21349L5.63267 3.34669C4.99927 2.71329 3.97954 2.71329 3.34614 3.34669C2.71274 3.98009 2.71274 4.99982 3.34614 5.63322L9.21294 11.5L3.34614 17.3668C2.71274 18.0002 2.71274 19.0199 3.34614 19.6533C3.97954 20.2867 4.99927 20.2867 5.63267 19.6533L11.4995 13.7865L17.3663 19.6533C17.9997 20.2867 19.0194 20.2867 19.6528 19.6533C20.2817 19.0199 20.2817 17.9957 19.6528 17.3668Z" fill="white"/>
</svg>
