<svg width="23" height="20" viewBox="0 0 23 20" fill="none" xmlns="http://www.w3.org/2000/svg">
<path d="M19.4155 15.8473L18.0937 13.6351L10.0382 0.1542L10.0358 0.15045L10.0343 0.147638C10.0244 0.132666 10.0131 0.118834 10.0003 0.106388C9.99515 0.10045 9.99118 0.0932627 9.98568 0.0879502C9.92636 0.0365251 9.85113 0.00830078 9.77338 0.00830078C9.69563 0.00830078 9.6204 0.0365251 9.56108 0.0879502C9.55528 0.0935752 9.551 0.101075 9.5455 0.107325C9.53323 0.119612 9.52217 0.133116 9.51251 0.147638L9.51098 0.150138L9.50854 0.1542L1.45302 13.6351L0.131258 15.8473C0.00911267 16.0544 -0.0297247 16.302 0.0229198 16.5378C0.0755643 16.7736 0.215585 16.9794 0.413511 17.1117C3.18834 18.994 6.44394 19.9979 9.77338 19.9979C13.1028 19.9979 16.3584 18.994 19.1332 17.1117C19.3312 16.9794 19.4712 16.7736 19.5238 16.5378C19.5765 16.302 19.5376 16.0544 19.4155 15.8473V15.8473ZM17.3185 13.7948C17.25 13.8445 17.1816 13.8936 17.1126 13.9417C17.038 13.994 16.963 14.0452 16.8874 14.0954C16.8166 14.1426 16.7454 14.1892 16.6736 14.2351C16.6018 14.2811 16.5224 14.3308 16.446 14.3773C16.3697 14.4239 16.3 14.4661 16.2264 14.5089C16.1528 14.5517 16.0737 14.597 15.9958 14.6401C15.9179 14.6833 15.8464 14.7229 15.7713 14.7626C15.6961 14.8023 15.6146 14.8442 15.5357 14.8839C15.4569 14.9236 15.383 14.9604 15.3076 14.997C15.2321 15.0336 15.1484 15.0717 15.0687 15.1079C14.989 15.1442 14.9135 15.1786 14.8353 15.212C14.7571 15.2454 14.6737 15.2798 14.5909 15.3126C14.5081 15.3454 14.4345 15.3751 14.3557 15.4064C14.2769 15.4376 14.1895 15.4689 14.1061 15.4976C14.0228 15.5264 13.9485 15.5545 13.8694 15.5814C13.7851 15.6095 13.7002 15.6361 13.6153 15.6626C13.5358 15.6873 13.4564 15.7129 13.3767 15.7361C13.2899 15.7614 13.2029 15.7845 13.1155 15.8076C13.0364 15.8289 12.9573 15.8511 12.8779 15.8701C12.7887 15.8923 12.6985 15.9117 12.609 15.9326C12.5302 15.9504 12.4517 15.9689 12.3726 15.9851C12.281 16.0042 12.1866 16.0204 12.0934 16.0373C12.0164 16.0514 11.9407 16.0664 11.8625 16.0792C11.7653 16.0948 11.6676 16.1076 11.5698 16.1214C11.4953 16.1317 11.4214 16.1433 11.3465 16.1526C11.2439 16.1651 11.1407 16.1745 11.0374 16.1839C10.9668 16.1908 10.8966 16.1992 10.8257 16.2048C10.7112 16.2142 10.5954 16.2198 10.4802 16.2261C10.4191 16.2292 10.3608 16.2342 10.3009 16.2367C10.1262 16.2442 9.95035 16.2479 9.77338 16.2479C9.59641 16.2479 9.42016 16.2444 9.24461 16.2373C9.18352 16.2348 9.12517 16.2298 9.0653 16.2267C8.95014 16.2204 8.83437 16.2148 8.71982 16.2054C8.64895 16.1998 8.57869 16.1914 8.50813 16.1845C8.40488 16.1745 8.30163 16.1651 8.19899 16.1533C8.12415 16.1442 8.04992 16.1326 7.97539 16.122C7.87795 16.1083 7.7802 16.0954 7.68306 16.0798C7.60577 16.067 7.53032 16.052 7.45182 16.0379C7.36018 16.0211 7.26548 16.0048 7.17292 15.9858C7.09381 15.9695 7.0153 15.9511 6.93649 15.9333C6.84699 15.9129 6.75688 15.8936 6.66768 15.8708C6.58826 15.8511 6.50914 15.8289 6.43002 15.8083C6.34266 15.7851 6.2556 15.762 6.16885 15.7367C6.08912 15.7136 6.0097 15.6879 5.93028 15.6633C5.84536 15.6367 5.76044 15.6101 5.67613 15.582C5.59701 15.5551 5.5182 15.5264 5.43939 15.4983C5.356 15.467 5.2726 15.4386 5.18982 15.407C5.10704 15.3754 5.03281 15.3445 4.95461 15.3133C4.87641 15.282 4.79241 15.2473 4.71023 15.2126C4.62806 15.1779 4.55445 15.1439 4.47686 15.1086C4.39927 15.0733 4.3171 15.0358 4.23798 14.9976C4.15886 14.9595 4.08525 14.9229 4.00949 14.8845C3.93373 14.8461 3.85248 14.8048 3.77458 14.7636C3.69669 14.7223 3.62429 14.6823 3.54976 14.6408C3.47522 14.5992 3.3955 14.5542 3.31913 14.5095C3.24276 14.4648 3.1725 14.4223 3.0995 14.3779C3.02649 14.3336 2.94676 14.2842 2.87192 14.2358C2.79708 14.1873 2.72927 14.142 2.6581 14.0961C2.58692 14.0501 2.5075 13.9945 2.43296 13.9423C2.36393 13.8942 2.2955 13.8451 2.22708 13.7954C2.19103 13.7692 2.15529 13.7423 2.11955 13.7154L8.14248 3.63889C8.67853 3.80499 9.25398 3.77864 9.77338 3.5642C10.2925 3.7801 10.8684 3.80658 11.4043 3.6392L17.4254 13.7148C17.3896 13.7417 17.3539 13.7686 17.3185 13.7948ZM11.0371 3.08982C10.6535 3.16325 10.257 3.11098 9.90412 2.94045C9.86325 2.92065 9.8186 2.91038 9.77338 2.91038C9.72816 2.91038 9.68351 2.92065 9.64264 2.94045C9.28974 3.11092 8.89327 3.16319 8.50966 3.08982L9.77338 0.920763L11.0371 3.08982ZM18.7936 16.5917C16.1193 18.4054 12.9819 19.3726 9.77338 19.3726C6.56485 19.3726 3.42745 18.4054 0.753192 16.5917C0.68592 16.5495 0.637634 16.4819 0.618818 16.4035C0.600002 16.3251 0.612174 16.2422 0.652693 16.1729L1.80064 14.2523C1.83272 14.2758 1.86571 14.2976 1.89778 14.3208C1.9656 14.3701 2.03402 14.4183 2.10275 14.4661C2.18421 14.5234 2.26679 14.5797 2.35049 14.6351C2.42014 14.6814 2.49039 14.7267 2.56065 14.7717C2.64435 14.825 2.72825 14.8771 2.81236 14.9279C2.88404 14.9713 2.95593 15.0141 3.02802 15.0564C3.11324 15.1061 3.19847 15.1545 3.28461 15.202C3.35752 15.2437 3.43083 15.2836 3.50455 15.3217C3.59069 15.3673 3.67734 15.4119 3.7645 15.4554C3.83934 15.4933 3.91449 15.5304 3.98994 15.5664C4.07761 15.6086 4.16558 15.6489 4.25417 15.6889C4.33023 15.7233 4.4069 15.7576 4.48297 15.7904C4.57216 15.8289 4.66167 15.8654 4.75147 15.9017C4.82876 15.9329 4.90635 15.9642 4.98424 15.9954C5.07588 16.0298 5.16569 16.0626 5.25702 16.0951C5.33522 16.1233 5.41342 16.1514 5.49254 16.1779C5.58418 16.2092 5.67582 16.2376 5.77021 16.2667C5.84933 16.2914 5.92814 16.3164 6.00787 16.3395C6.10195 16.367 6.19665 16.392 6.29165 16.4173C6.37076 16.4386 6.44957 16.4604 6.529 16.4798C6.62552 16.5036 6.72236 16.5248 6.8195 16.5467C6.89892 16.5642 6.97773 16.5829 7.05746 16.5992C7.15643 16.6195 7.25632 16.637 7.35559 16.6548C7.4341 16.6692 7.51199 16.6842 7.5905 16.697C7.69344 16.7139 7.797 16.7283 7.90025 16.7417C7.97692 16.7523 8.05298 16.7645 8.12996 16.7729C8.2387 16.7864 8.34837 16.7961 8.45803 16.8067C8.52982 16.8136 8.6013 16.822 8.67186 16.8279C8.79405 16.8376 8.91623 16.8439 9.03842 16.8504C9.09952 16.8536 9.16061 16.8586 9.2217 16.8611C9.40478 16.869 9.58867 16.8729 9.77338 16.8729C9.95809 16.8729 10.1421 16.8692 10.3254 16.8617C10.3865 16.8592 10.4475 16.8542 10.5071 16.8511C10.6293 16.8445 10.7515 16.8383 10.8737 16.8286C10.9455 16.8229 11.0169 16.8142 11.0875 16.8073C11.1972 16.7967 11.3068 16.787 11.4159 16.7736C11.4929 16.7645 11.5686 16.7523 11.6456 16.7423C11.7488 16.7283 11.8524 16.7145 11.9553 16.6976C12.0338 16.6848 12.1117 16.6698 12.1902 16.6554C12.2895 16.6376 12.3894 16.6201 12.4884 16.5998C12.5681 16.5836 12.6469 16.5648 12.7263 16.5473C12.8235 16.5254 12.9203 16.5042 13.0168 16.4804C13.0963 16.4608 13.1751 16.4389 13.2542 16.4179C13.3492 16.3926 13.4439 16.3676 13.538 16.3401C13.6177 16.317 13.6965 16.292 13.7756 16.2673C13.8673 16.2383 13.9614 16.2095 14.0533 16.1786C14.1324 16.152 14.2106 16.1239 14.2888 16.0958C14.3805 16.0645 14.4721 16.0304 14.5616 15.9961C14.6395 15.9648 14.7168 15.9336 14.7941 15.9023C14.8842 15.8658 14.9737 15.8292 15.0629 15.7908C15.1396 15.7579 15.2156 15.7239 15.2917 15.6895C15.38 15.6492 15.4682 15.6089 15.5559 15.5667C15.6314 15.5308 15.7065 15.4936 15.7813 15.4558C15.8683 15.412 15.9549 15.3674 16.0413 15.322C16.1148 15.2831 16.1881 15.2432 16.2612 15.2023C16.3474 15.1548 16.4326 15.1064 16.5178 15.0567C16.5899 15.015 16.6618 14.9722 16.7335 14.9283C16.8178 14.877 16.9017 14.8249 16.9852 14.772C17.0554 14.727 17.1257 14.6817 17.1954 14.6354C17.2784 14.58 17.361 14.5237 17.4431 14.4664C17.5118 14.4186 17.5802 14.3704 17.6481 14.3211C17.6801 14.2979 17.7131 14.2761 17.7452 14.2526L18.8925 16.1736C18.933 16.2426 18.9453 16.3251 18.9268 16.4034C18.9083 16.4816 18.8604 16.5493 18.7936 16.5917V16.5917Z" fill="white"/>
<path d="M9.77461 7.5C10.0163 7.5 10.2525 7.42669 10.4534 7.28934C10.6544 7.15199 10.811 6.95676 10.9035 6.72835C10.996 6.49995 11.0202 6.24861 10.973 6.00614C10.9259 5.76366 10.8095 5.54093 10.6386 5.36612C10.4677 5.1913 10.25 5.07225 10.013 5.02402C9.77597 4.97579 9.53029 5.00054 9.30702 5.09515C9.08375 5.18976 8.89292 5.34998 8.75866 5.55554C8.6244 5.7611 8.55273 6.00277 8.55273 6.25C8.55273 6.58152 8.68147 6.89946 8.91061 7.13388C9.13976 7.3683 9.45055 7.5 9.77461 7.5ZM9.77461 5.625C9.89544 5.625 10.0136 5.66166 10.114 5.73033C10.2145 5.79901 10.2928 5.89662 10.339 6.01082C10.3853 6.12503 10.3974 6.25069 10.3738 6.37193C10.3502 6.49317 10.2921 6.60453 10.2066 6.69194C10.1212 6.77935 10.0123 6.83888 9.8938 6.86299C9.77529 6.88711 9.65245 6.87473 9.54081 6.82743C9.42918 6.78012 9.33376 6.70001 9.26663 6.59723C9.1995 6.49445 9.16367 6.37361 9.16367 6.25C9.16367 6.08424 9.22804 5.92527 9.34261 5.80806C9.45719 5.69085 9.61258 5.625 9.77461 5.625V5.625Z" fill="white"/>
<path d="M5.49922 11.5625C5.25756 11.5625 5.02132 11.6358 4.82038 11.7732C4.61945 11.9105 4.46283 12.1057 4.37035 12.3341C4.27787 12.5626 4.25368 12.8139 4.30082 13.0564C4.34797 13.2988 4.46434 13.5216 4.63522 13.6964C4.80611 13.8712 5.02382 13.9903 5.26084 14.0385C5.49786 14.0867 5.74354 14.062 5.96681 13.9674C6.19008 13.8727 6.38091 13.7125 6.51517 13.507C6.64943 13.3014 6.72109 13.0597 6.72109 12.8125C6.72109 12.481 6.59236 12.163 6.36322 11.9286C6.13407 11.6942 5.82328 11.5625 5.49922 11.5625ZM5.49922 13.4375C5.37839 13.4375 5.26027 13.4008 5.1598 13.3322C5.05933 13.2635 4.98103 13.1659 4.93479 13.0517C4.88855 12.9375 4.87645 12.8118 4.90002 12.6906C4.92359 12.5693 4.98178 12.458 5.06722 12.3706C5.15266 12.2832 5.26152 12.2236 5.38003 12.1995C5.49854 12.1754 5.62138 12.1878 5.73302 12.2351C5.84465 12.2824 5.94006 12.3625 6.0072 12.4653C6.07433 12.568 6.11016 12.6889 6.11016 12.8125C6.11016 12.9783 6.04579 13.1372 5.93122 13.2544C5.81664 13.3717 5.66125 13.4375 5.49922 13.4375Z" fill="white"/>
<path d="M12.8301 12.8125C12.8301 13.0597 12.9017 13.3014 13.036 13.507C13.1703 13.7125 13.3611 13.8727 13.5844 13.9674C13.8076 14.062 14.0533 14.0867 14.2903 14.0385C14.5274 13.9903 14.7451 13.8712 14.916 13.6964C15.0868 13.5216 15.2032 13.2988 15.2504 13.0564C15.2975 12.8139 15.2733 12.5626 15.1808 12.3341C15.0883 12.1057 14.9317 11.9105 14.7308 11.7732C14.5299 11.6358 14.2936 11.5625 14.052 11.5625C13.7279 11.5625 13.4171 11.6942 13.188 11.9286C12.9588 12.163 12.8301 12.481 12.8301 12.8125ZM14.052 12.1875C14.1728 12.1875 14.2909 12.2242 14.3914 12.2928C14.4918 12.3615 14.5701 12.4591 14.6164 12.5733C14.6626 12.6875 14.6747 12.8132 14.6512 12.9344C14.6276 13.0557 14.5694 13.167 14.484 13.2544C14.3985 13.3419 14.2897 13.4014 14.1711 13.4255C14.0526 13.4496 13.9298 13.4372 13.8182 13.3899C13.7065 13.3426 13.6111 13.2625 13.544 13.1597C13.4768 13.057 13.441 12.9361 13.441 12.8125C13.441 12.6467 13.5054 12.4878 13.62 12.3706C13.7345 12.2533 13.8899 12.1875 14.052 12.1875Z" fill="white"/>
<path d="M9.77461 12.5C9.53295 12.5 9.29671 12.5733 9.09577 12.7107C8.89484 12.848 8.73823 13.0432 8.64574 13.2716C8.55326 13.5001 8.52907 13.7514 8.57621 13.9939C8.62336 14.2363 8.73973 14.4591 8.91061 14.6339C9.0815 14.8087 9.29921 14.9278 9.53623 14.976C9.77326 15.0242 10.0189 14.9995 10.2422 14.9049C10.4655 14.8102 10.6563 14.65 10.7906 14.4445C10.9248 14.2389 10.9965 13.9972 10.9965 13.75C10.9965 13.4185 10.8678 13.1005 10.6386 12.8661C10.4095 12.6317 10.0987 12.5 9.77461 12.5V12.5ZM9.77461 14.375C9.65378 14.375 9.53566 14.3383 9.43519 14.2697C9.33472 14.201 9.25642 14.1034 9.21018 13.9892C9.16394 13.875 9.15184 13.7493 9.17541 13.6281C9.19899 13.5068 9.25717 13.3955 9.34261 13.3081C9.42805 13.2207 9.53691 13.1611 9.65542 13.137C9.77393 13.1129 9.89677 13.1253 10.0084 13.1726C10.12 13.2199 10.2155 13.3 10.2826 13.4028C10.3497 13.5055 10.3855 13.6264 10.3855 13.75C10.3855 13.9158 10.3212 14.0747 10.2066 14.1919C10.092 14.3092 9.93664 14.375 9.77461 14.375Z" fill="white"/>
<path d="M7.33125 10.625C7.57291 10.625 7.80915 10.5517 8.01009 10.4143C8.21102 10.277 8.36763 10.0818 8.46012 9.85336C8.5526 9.62495 8.57679 9.37361 8.52965 9.13114C8.4825 8.88866 8.36613 8.66593 8.19525 8.49112C8.02436 8.3163 7.80665 8.19725 7.56963 8.14902C7.33261 8.10079 7.08693 8.12554 6.86366 8.22015C6.64039 8.31476 6.44956 8.47498 6.3153 8.68054C6.18104 8.8861 6.10938 9.12777 6.10938 9.375C6.10938 9.70652 6.23811 10.0245 6.46725 10.2589C6.6964 10.4933 7.00719 10.625 7.33125 10.625ZM7.33125 8.75C7.45208 8.75 7.5702 8.78666 7.67067 8.85533C7.77114 8.92401 7.84944 9.02162 7.89568 9.13582C7.94192 9.25003 7.95402 9.37569 7.93045 9.49693C7.90688 9.61817 7.84869 9.72954 7.76325 9.81694C7.67781 9.90435 7.56895 9.96388 7.45044 9.98799C7.33193 10.0121 7.20909 9.99973 7.09745 9.95243C6.98582 9.90512 6.8904 9.82501 6.82327 9.72223C6.75614 9.61945 6.72031 9.49861 6.72031 9.375C6.72031 9.20924 6.78468 9.05027 6.89925 8.93306C7.01383 8.81585 7.16922 8.75 7.33125 8.75V8.75Z" fill="white"/>
<path d="M10.9961 9.375C10.9961 9.62223 11.0678 9.8639 11.202 10.0695C11.3363 10.275 11.5271 10.4352 11.7504 10.5299C11.9736 10.6245 12.2193 10.6492 12.4563 10.601C12.6934 10.5528 12.9111 10.4337 13.082 10.2589C13.2528 10.0841 13.3692 9.86134 13.4164 9.61886C13.4635 9.37639 13.4393 9.12505 13.3468 8.89665C13.2544 8.66824 13.0977 8.47302 12.8968 8.33566C12.6959 8.19831 12.4596 8.125 12.218 8.125C11.8939 8.125 11.5831 8.2567 11.354 8.49112C11.1248 8.72554 10.9961 9.04348 10.9961 9.375ZM12.8289 9.375C12.8289 9.49861 12.7931 9.61945 12.7259 9.72223C12.6588 9.82501 12.5634 9.90512 12.4518 9.95243C12.3401 9.99973 12.2173 10.0121 12.0988 9.98799C11.9803 9.96388 11.8714 9.90435 11.786 9.81694C11.7005 9.72953 11.6423 9.61817 11.6188 9.49693C11.5952 9.37569 11.6073 9.25003 11.6535 9.13582C11.6998 9.02162 11.7781 8.92401 11.8785 8.85533C11.979 8.78666 12.0971 8.75 12.218 8.75C12.38 8.75 12.5354 8.81585 12.65 8.93306C12.7645 9.05027 12.8289 9.20924 12.8289 9.375Z" fill="white"/>
<path d="M8.24844 11.25H7.6375C7.55648 11.25 7.47879 11.2829 7.4215 11.3415C7.36421 11.4001 7.33203 11.4796 7.33203 11.5625C7.33203 11.6454 7.36421 11.7249 7.4215 11.7835C7.47879 11.8421 7.55648 11.875 7.6375 11.875H8.24844C8.32945 11.875 8.40715 11.8421 8.46444 11.7835C8.52172 11.7249 8.55391 11.6454 8.55391 11.5625C8.55391 11.4796 8.52172 11.4001 8.46444 11.3415C8.40715 11.2829 8.32945 11.25 8.24844 11.25Z" fill="white"/>
<path d="M11.9125 11.25H11.3016C11.2205 11.25 11.1428 11.2829 11.0856 11.3415C11.0283 11.4001 10.9961 11.4796 10.9961 11.5625C10.9961 11.6454 11.0283 11.7249 11.0856 11.7835C11.1428 11.8421 11.2205 11.875 11.3016 11.875H11.9125C11.9935 11.875 12.0712 11.8421 12.1285 11.7835C12.1858 11.7249 12.218 11.6454 12.218 11.5625C12.218 11.4796 12.1858 11.4001 12.1285 11.3415C12.0712 11.2829 11.9935 11.25 11.9125 11.25Z" fill="white"/>
<path d="M9.46953 8.75C9.38852 8.75 9.31082 8.78292 9.25353 8.84153C9.19625 8.90013 9.16406 8.97962 9.16406 9.0625C9.16406 9.14538 9.19625 9.22487 9.25353 9.28347C9.31082 9.34208 9.38852 9.375 9.46953 9.375H10.0805C10.1615 9.375 10.2392 9.34208 10.2965 9.28347C10.3538 9.22487 10.3859 9.14538 10.3859 9.0625C10.3859 8.97962 10.3538 8.90013 10.2965 8.84153C10.2392 8.78292 10.1615 8.75 10.0805 8.75H9.46953Z" fill="white"/>
<path d="M7.02617 7.5H7.63711C7.71812 7.5 7.79582 7.46708 7.85311 7.40847C7.9104 7.34987 7.94258 7.27038 7.94258 7.1875C7.94258 7.10462 7.9104 7.02513 7.85311 6.96653C7.79582 6.90792 7.71812 6.875 7.63711 6.875H7.02617C6.94516 6.875 6.86746 6.90792 6.81017 6.96653C6.75289 7.02513 6.7207 7.10462 6.7207 7.1875C6.7207 7.27038 6.75289 7.34987 6.81017 7.40847C6.86746 7.46708 6.94516 7.5 7.02617 7.5Z" fill="white"/>
<path d="M11.9129 7.5H12.5238C12.6048 7.5 12.6825 7.46708 12.7398 7.40847C12.7971 7.34987 12.8293 7.27038 12.8293 7.1875C12.8293 7.10462 12.7971 7.02513 12.7398 6.96653C12.6825 6.90792 12.6048 6.875 12.5238 6.875H11.9129C11.8319 6.875 11.7542 6.90792 11.6969 6.96653C11.6396 7.02513 11.6074 7.10462 11.6074 7.1875C11.6074 7.27038 11.6396 7.34987 11.6969 7.40847C11.7542 7.46708 11.8319 7.5 11.9129 7.5Z" fill="white"/>
</svg>
