<svg width="24" height="24" viewBox="0 0 24 24" fill="none" xmlns="http://www.w3.org/2000/svg">
<g clip-path="url(#clip0)">
<path d="M20.625 6H16.125V0.375C16.125 0.275544 16.0855 0.180161 16.0152 0.109835C15.9448 0.0395088 15.8495 0 15.75 0L14.25 0C14.1505 0 14.0552 0.0395088 13.9848 0.109835C13.9145 0.180161 13.875 0.275544 13.875 0.375V6H9.375C9.27554 6 9.18016 6.03951 9.10983 6.10983C9.03951 6.18016 9 6.27554 9 6.375V7.875C9 7.97446 9.03951 8.06984 9.10983 8.14017C9.18016 8.21049 9.27554 8.25 9.375 8.25H9.77775L9.981 10.9035C9.98993 11.0016 10.0371 11.0922 10.1123 11.1559C10.1875 11.2195 10.2847 11.2509 10.383 11.2434C10.4812 11.2359 10.5725 11.1901 10.6372 11.1158C10.7019 11.0416 10.7348 10.9448 10.7288 10.8465L10.53 8.25H19.4704L19.1704 12.1361C18.7638 11.9877 18.3222 11.9642 17.9021 12.0686C17.88 12.0739 17.8582 12.0806 17.8361 12.0866C17.7624 12.1075 17.6899 12.1326 17.619 12.1616C17.5931 12.1718 17.5673 12.1811 17.5417 12.1924C17.4503 12.2318 17.3617 12.2776 17.2766 12.3292C16.7958 12.0301 16.2168 11.9316 15.6641 12.0551C15.6151 12.0651 15.5685 12.0847 15.5272 12.1129C15.4859 12.1411 15.4506 12.1773 15.4235 12.2194C15.3964 12.2614 15.378 12.3085 15.3693 12.3577C15.3606 12.407 15.3619 12.4575 15.3731 12.5063C15.3843 12.5551 15.4051 12.6011 15.4343 12.6417C15.4635 12.6823 15.5006 12.7167 15.5433 12.7427C15.586 12.7688 15.6335 12.7861 15.683 12.7935C15.7324 12.8009 15.7829 12.7984 15.8314 12.786C16.042 12.7407 16.2602 12.7437 16.4696 12.7947C16.679 12.8457 16.8741 12.9433 17.0404 13.0804C17.1069 13.1336 17.1895 13.1626 17.2748 13.1626C17.36 13.1626 17.4426 13.1336 17.5091 13.0804C17.5706 13.0313 17.6359 12.9873 17.7045 12.9487C17.7259 12.9364 17.7484 12.9274 17.7701 12.9165C17.8169 12.8921 17.865 12.8702 17.9141 12.8509C17.9377 12.8419 17.9621 12.8355 17.9858 12.828C18.035 12.8118 18.0851 12.7983 18.1357 12.7875C18.1579 12.783 18.18 12.7804 18.2021 12.7766C18.2563 12.7681 18.3109 12.7627 18.3656 12.7605C18.384 12.7605 18.4031 12.7605 18.4215 12.7605C18.4803 12.7605 18.539 12.7643 18.5974 12.7717C18.6127 12.7717 18.6281 12.7751 18.6431 12.7778C18.7043 12.7877 18.7648 12.8016 18.8243 12.8194L18.8644 12.831C18.9224 12.8507 18.9792 12.8742 19.0343 12.9011C19.0496 12.9086 19.0658 12.9146 19.0807 12.9225C19.0901 12.9274 19.0984 12.9341 19.1074 12.939L18.3206 23.25H15.75C15.6505 23.25 15.5552 23.2895 15.4848 23.3598C15.4145 23.4302 15.375 23.5255 15.375 23.625C15.375 23.7245 15.4145 23.8198 15.4848 23.8902C15.5552 23.9605 15.6505 24 15.75 24H18.6683C18.763 24.0003 18.8543 23.9647 18.9238 23.9004C18.9934 23.8362 19.0361 23.7479 19.0433 23.6535L19.8341 13.3305L19.8746 12.768L20.2222 8.25H20.625C20.7245 8.25 20.8198 8.21049 20.8902 8.14017C20.9605 8.06984 21 7.97446 21 7.875V6.375C21 6.27554 20.9605 6.18016 20.8902 6.10983C20.8198 6.03951 20.7245 6 20.625 6ZM14.625 0.75H15.375V6H14.625V0.75ZM20.25 7.5H9.75V6.75H20.25V7.5Z" fill="white"/>
<path d="M14.1431 13.0819C12.5216 12.3711 10.7703 12.0042 8.99981 12.0042C7.22932 12.0042 5.47805 12.3711 3.8565 13.0819C3.60615 13.183 3.39127 13.3558 3.23887 13.5786C3.08647 13.8015 3.00337 14.0644 3 14.3344V14.3749C3.00435 14.6274 3.07879 14.8737 3.215 15.0863C3.35121 15.2989 3.54384 15.4695 3.77138 15.579C3.75777 15.635 3.75059 15.6924 3.75 15.75V16.125C3.75026 16.2877 3.80388 16.4458 3.90262 16.575C3.88025 16.6262 3.86304 16.6794 3.85125 16.734C3.79614 16.9382 3.76221 17.1476 3.75 17.3588C3.74842 17.5283 3.78428 17.696 3.855 17.85C3.76593 18.0442 3.73279 18.2594 3.75929 18.4714C3.78578 18.6833 3.87088 18.8837 4.005 19.05C3.84502 19.2198 3.75446 19.4434 3.7512 19.6766C3.74794 19.9098 3.8322 20.1359 3.98738 20.31C3.83454 20.5077 3.75111 20.7502 3.75 21C3.75065 21.1599 3.78569 21.3177 3.85275 21.4628C3.56483 21.5701 3.3238 21.7752 3.17182 22.0423C3.01984 22.3094 2.96659 22.6213 3.02138 22.9237C3.07616 23.2261 3.2355 23.4995 3.47152 23.6963C3.70754 23.893 4.00522 24.0006 4.3125 24H13.6875C13.9948 24.0006 14.2925 23.893 14.5285 23.6963C14.7645 23.4995 14.9238 23.2261 14.9786 22.9237C15.0334 22.6213 14.9802 22.3094 14.8282 22.0423C14.6762 21.7752 14.4352 21.5701 14.1473 21.4628C14.2143 21.3177 14.2494 21.1599 14.25 21C14.2492 20.7503 14.1662 20.5078 14.0138 20.31C14.1689 20.1359 14.2532 19.9098 14.2499 19.6766C14.2467 19.4434 14.1561 19.2198 13.9961 19.05C14.1302 18.8837 14.2153 18.6833 14.2418 18.4714C14.2683 18.2594 14.2352 18.0442 14.1461 17.85C14.2165 17.6959 14.2519 17.5282 14.25 17.3588C14.2378 17.1459 14.2038 16.9348 14.1488 16.7288C14.137 16.6753 14.12 16.623 14.0981 16.5728C14.1961 16.444 14.2494 16.2868 14.25 16.125V15.75C14.2494 15.6924 14.2422 15.635 14.2286 15.579C14.4562 15.4695 14.6488 15.2989 14.785 15.0863C14.9212 14.8737 14.9956 14.6274 15 14.3749V14.3344C14.9967 14.0644 14.9135 13.8014 14.761 13.5785C14.6086 13.3557 14.3936 13.1829 14.1431 13.0819ZM13.5 16.125H4.5V15.75H13.5V16.125ZM13.5 17.3588C13.5055 17.4091 13.498 17.4599 13.4783 17.5065C13.4586 17.5531 13.4274 17.5939 13.3875 17.625C13.3367 17.5897 13.3017 17.5358 13.29 17.475C13.2695 17.3953 13.223 17.3246 13.1577 17.2743C13.0925 17.2241 13.0124 17.197 12.93 17.1975H12.87C12.7872 17.1972 12.7067 17.2242 12.6409 17.2744C12.5751 17.3246 12.5278 17.3951 12.5062 17.475C12.5016 17.5051 12.4908 17.5338 12.4747 17.5596C12.4586 17.5854 12.4374 17.6077 12.4125 17.625C12.3875 17.6077 12.3664 17.5854 12.3503 17.5596C12.3342 17.5338 12.3234 17.5051 12.3187 17.475C12.2972 17.3951 12.2499 17.3246 12.1841 17.2744C12.1183 17.2242 12.0378 17.1972 11.955 17.1975H11.895C11.8126 17.197 11.7325 17.2241 11.6673 17.2743C11.602 17.3246 11.5555 17.3953 11.535 17.475C11.5233 17.5358 11.4883 17.5897 11.4375 17.625C11.3867 17.5897 11.3517 17.5358 11.34 17.475C11.3195 17.3953 11.273 17.3246 11.2077 17.2743C11.1425 17.2241 11.0624 17.197 10.98 17.1975H10.92C10.8372 17.1972 10.7567 17.2242 10.6909 17.2744C10.6251 17.3246 10.5778 17.3951 10.5562 17.475C10.5516 17.5051 10.5408 17.5338 10.5247 17.5596C10.5086 17.5854 10.4875 17.6077 10.4625 17.625C10.4375 17.6077 10.4164 17.5854 10.4003 17.5596C10.3842 17.5338 10.3734 17.5051 10.3687 17.475C10.3472 17.3951 10.2999 17.3246 10.2341 17.2744C10.1683 17.2242 10.0878 17.1972 10.005 17.1975H9.945C9.86265 17.197 9.78249 17.2241 9.71726 17.2743C9.65204 17.3246 9.60548 17.3953 9.585 17.475C9.57331 17.5358 9.53832 17.5897 9.4875 17.625C9.46255 17.6077 9.44138 17.5854 9.42527 17.5596C9.40915 17.5338 9.39843 17.5051 9.39375 17.475C9.37223 17.3951 9.32489 17.3246 9.2591 17.2744C9.1933 17.2242 9.11275 17.1972 9.03 17.1975H8.97C8.88725 17.1972 8.8067 17.2242 8.7409 17.2744C8.67511 17.3246 8.62777 17.3951 8.60625 17.475C8.60157 17.5051 8.59085 17.5338 8.57473 17.5596C8.55862 17.5854 8.53745 17.6077 8.5125 17.625C8.46168 17.5897 8.42669 17.5358 8.415 17.475C8.39452 17.3953 8.34796 17.3246 8.28274 17.2743C8.21751 17.2241 8.13735 17.197 8.055 17.1975H7.995C7.91225 17.1972 7.8317 17.2242 7.7659 17.2744C7.70011 17.3246 7.65277 17.3951 7.63125 17.475C7.62657 17.5051 7.61585 17.5338 7.59973 17.5596C7.58362 17.5854 7.56245 17.6077 7.5375 17.625C7.51255 17.6077 7.49138 17.5854 7.47527 17.5596C7.45915 17.5338 7.44843 17.5051 7.44375 17.475C7.42224 17.3951 7.37489 17.3246 7.3091 17.2744C7.2433 17.2242 7.16275 17.1972 7.08 17.1975H7.02C6.93765 17.197 6.85749 17.2241 6.79226 17.2743C6.72704 17.3246 6.68048 17.3953 6.66 17.475C6.64831 17.5358 6.61332 17.5897 6.5625 17.625C6.51168 17.5897 6.47669 17.5358 6.465 17.475C6.44452 17.3953 6.39796 17.3246 6.33274 17.2743C6.26751 17.2241 6.18735 17.197 6.105 17.1975H6.045C5.96225 17.1972 5.8817 17.2242 5.8159 17.2744C5.75011 17.3246 5.70277 17.3951 5.68125 17.475C5.67657 17.5051 5.66585 17.5338 5.64973 17.5596C5.63362 17.5854 5.61245 17.6077 5.5875 17.625C5.56255 17.6077 5.54138 17.5854 5.52527 17.5596C5.50915 17.5338 5.49843 17.5051 5.49375 17.475C5.47223 17.3951 5.42489 17.3246 5.3591 17.2744C5.2933 17.2242 5.21275 17.1972 5.13 17.1975H5.07C4.98765 17.197 4.90749 17.2241 4.84226 17.2743C4.77704 17.3246 4.73048 17.3953 4.71 17.475C4.69831 17.5358 4.66332 17.5897 4.6125 17.625C4.57263 17.5939 4.54136 17.5531 4.52168 17.5065C4.50199 17.4599 4.49453 17.4091 4.5 17.3588C4.50163 17.3184 4.50664 17.2783 4.515 17.2388C4.52625 17.1675 4.545 17.0588 4.5825 16.89C4.5825 16.8863 4.58625 16.8788 4.58625 16.875H13.4137C13.4137 16.8788 13.4175 16.8863 13.4175 16.89C13.455 17.0588 13.4738 17.1675 13.485 17.2388C13.4934 17.2783 13.4984 17.3184 13.5 17.3588ZM13.3125 19.5C13.3622 19.5 13.4099 19.5198 13.4451 19.5549C13.4802 19.5901 13.5 19.6378 13.5 19.6875C13.5 19.7373 13.4802 19.7849 13.4451 19.8201C13.4099 19.8553 13.3622 19.875 13.3125 19.875H11.625C11.5256 19.8758 11.4303 19.9147 11.3588 19.9838L10.875 20.4713L10.3912 19.9838C10.3197 19.9147 10.2244 19.8758 10.125 19.875H4.6875C4.63777 19.875 4.59008 19.8553 4.55492 19.8201C4.51975 19.7849 4.5 19.7373 4.5 19.6875C4.5 19.6378 4.51975 19.5901 4.55492 19.5549C4.59008 19.5198 4.63777 19.5 4.6875 19.5H13.3125ZM13.125 21.375H4.875C4.77554 21.375 4.68016 21.3355 4.60984 21.2652C4.53951 21.1949 4.5 21.0995 4.5 21C4.5 20.9006 4.53951 20.8052 4.60984 20.7349C4.68016 20.6645 4.77554 20.625 4.875 20.625H9.97125L10.6088 21.2663C10.6798 21.336 10.7754 21.375 10.875 21.375C10.9746 21.375 11.0702 21.336 11.1412 21.2663L11.7787 20.625H13.125C13.2245 20.625 13.3198 20.6645 13.3902 20.7349C13.4605 20.8052 13.5 20.9006 13.5 21C13.5 21.0995 13.4605 21.1949 13.3902 21.2652C13.3198 21.3355 13.2245 21.375 13.125 21.375ZM13.0837 18.75H4.91625C4.81185 18.7503 4.71123 18.711 4.63468 18.64C4.55813 18.569 4.51134 18.4716 4.50375 18.3675C4.53985 18.3719 4.57615 18.3744 4.6125 18.375C4.79049 18.3744 4.96276 18.3121 5.1 18.1988C5.23891 18.3083 5.41063 18.3678 5.5875 18.3678C5.76437 18.3678 5.93609 18.3083 6.075 18.1988C6.21391 18.3083 6.38563 18.3678 6.5625 18.3678C6.73937 18.3678 6.91109 18.3083 7.05 18.1988C7.18891 18.3083 7.36063 18.3678 7.5375 18.3678C7.71437 18.3678 7.88609 18.3083 8.025 18.1988C8.16391 18.3083 8.33563 18.3678 8.5125 18.3678C8.68937 18.3678 8.86109 18.3083 9 18.1988C9.13891 18.3083 9.31063 18.3678 9.4875 18.3678C9.66437 18.3678 9.83609 18.3083 9.975 18.1988C10.1139 18.3083 10.2856 18.3678 10.4625 18.3678C10.6394 18.3678 10.8111 18.3083 10.95 18.1988C11.0889 18.3083 11.2606 18.3678 11.4375 18.3678C11.6144 18.3678 11.7861 18.3083 11.925 18.1988C12.0639 18.3083 12.2356 18.3678 12.4125 18.3678C12.5894 18.3678 12.7611 18.3083 12.9 18.1988C13.0372 18.3121 13.2095 18.3744 13.3875 18.375C13.4239 18.3744 13.4602 18.3719 13.4963 18.3675C13.4887 18.4716 13.4419 18.569 13.3653 18.64C13.2888 18.711 13.1881 18.7503 13.0837 18.75ZM13.6875 23.25H4.3125C4.16332 23.25 4.02024 23.1908 3.91475 23.0853C3.80926 22.9798 3.75 22.8367 3.75 22.6875C3.75 22.5383 3.80926 22.3953 3.91475 22.2898C4.02024 22.1843 4.16332 22.125 4.3125 22.125H13.6875C13.8367 22.125 13.9798 22.1843 14.0852 22.2898C14.1907 22.3953 14.25 22.5383 14.25 22.6875C14.25 22.8367 14.1907 22.9798 14.0852 23.0853C13.9798 23.1908 13.8367 23.25 13.6875 23.25ZM14.25 14.3749C14.2372 14.5518 14.1553 14.7166 14.0219 14.8336C13.8886 14.9505 13.7146 15.0103 13.5375 15H4.4625C4.28542 15.0103 4.1114 14.9505 3.97807 14.8336C3.84473 14.7166 3.76281 14.5518 3.75 14.3749V14.3344C3.75343 14.2118 3.79304 14.093 3.86384 13.993C3.93463 13.8929 4.03346 13.816 4.14787 13.7719C5.68053 13.1106 7.33078 12.7651 9 12.756C10.6692 12.7656 12.3193 13.1116 13.8517 13.7734C13.966 13.8173 14.0648 13.894 14.1356 13.9938C14.2065 14.0936 14.2462 14.2121 14.25 14.3344V14.3749Z" fill="white"/>
</g>
<defs>
<clipPath id="clip0">
<rect width="24" height="24" fill="white"/>
</clipPath>
</defs>
</svg>
