<svg width="28" height="28" viewBox="0 0 28 28" fill="none" xmlns="http://www.w3.org/2000/svg">
<path d="M26.1867 12.9503L23.6182 10.3812L15.0521 1.81341C15.0518 1.81307 15.0514 1.81273 15.0511 1.81239C14.9136 1.67396 14.75 1.56406 14.5699 1.48899C14.3893 1.41374 14.1956 1.375 14 1.375C13.8044 1.375 13.6107 1.41374 13.4301 1.48899C13.25 1.56406 13.0864 1.67396 12.9489 1.8124C12.9486 1.81273 12.9482 1.81307 12.9479 1.81341L4.38181 10.3812L1.81326 12.9503C1.81292 12.9507 1.81257 12.951 1.81222 12.9514C1.67383 13.0889 1.56397 13.2525 1.48894 13.4326C1.41372 13.6132 1.375 13.8069 1.375 14.0025C1.375 14.1981 1.41372 14.3918 1.48894 14.5724C1.56383 14.7522 1.67342 14.9154 1.81145 15.0528C1.94881 15.1909 2.11206 15.3005 2.29185 15.3754C2.47243 15.4507 2.66613 15.4894 2.86176 15.4894C3.05739 15.4894 3.25108 15.4507 3.43166 15.3754C3.6122 15.3002 3.77605 15.19 3.91377 15.0511C3.9138 15.0511 3.91384 15.051 3.91387 15.051L3.95033 15.0143V25.143C3.95033 25.536 4.10642 25.913 4.38429 26.1909C4.66217 26.4688 5.03909 26.625 5.43212 26.625H22.5679C22.9609 26.625 23.3378 26.4688 23.6157 26.1909C23.8936 25.913 24.0497 25.536 24.0497 25.143V15.0143L24.0861 15.051C24.2239 15.1899 24.3878 15.3002 24.5683 15.3754C24.7489 15.4507 24.9426 15.4894 25.1382 15.4894C25.3339 15.4894 25.5276 15.4507 25.7081 15.3754C25.888 15.3005 26.0513 15.1908 26.1886 15.0527C26.3266 14.9154 26.4362 14.7521 26.5111 14.5724C26.5863 14.3918 26.625 14.1981 26.625 14.0025C26.625 13.8069 26.5863 13.6132 26.5111 13.4326C26.4361 13.2526 26.3263 13.0891 26.188 12.9516C26.1876 12.9512 26.1872 12.9508 26.1867 12.9503ZM6.91391 23.6611V12.0418L14 4.95423L21.0861 12.0418V23.6611H6.91391Z" fill="#34D1D1" stroke="#34D1D1" stroke-width="1.25"/>
</svg>
