<svg width="22" height="22" viewBox="0 0 22 22" fill="none" xmlns="http://www.w3.org/2000/svg">
<path fill-rule="evenodd" clip-rule="evenodd" d="M21.1279 2.8581C21.5513 1.58904 20.2964 0.405079 19.0541 0.901551L18.6668 1.05635L1.61407 6.35818C0.608885 6.6707 0.486317 8.04262 1.42021 8.52812L9.28093 12.6142C9.30646 12.6274 9.33223 12.6397 9.35832 12.6509C9.36948 12.6765 9.3815 12.7019 9.39454 12.7269L13.4843 20.5807C13.9701 21.5137 15.3433 21.3913 15.6561 20.387L20.9449 3.40646L21.1279 2.8581ZM3.35696 7.46132C3.22294 7.50299 3.20661 7.68608 3.33114 7.75081L9.6488 11.0349C9.70961 11.0664 9.78394 11.055 9.83234 11.0066L17.4584 3.38731C17.5745 3.2713 17.4575 3.07736 17.3007 3.12609L3.35696 7.46132ZM14.5519 18.646C14.5102 18.7799 14.3273 18.7962 14.2625 18.6718L10.9754 12.3596C10.9437 12.2988 10.9552 12.2244 11.0038 12.1759L18.6301 4.55636C18.7461 4.44037 18.9399 4.55757 18.8912 4.71425L14.5519 18.646Z" fill="white"/>
</svg>
