<svg width="26" height="26" viewBox="0 0 26 26" fill="none" xmlns="http://www.w3.org/2000/svg">
<path d="M24.5433 22.5766L19.5971 17.6304C21.083 15.6679 21.8228 13.2327 21.6707 10.7634C21.5069 8.10333 20.3209 5.60964 18.3607 3.80396C16.4006 1.99828 13.8181 1.02049 11.1536 1.07512C8.48906 1.12975 5.94886 2.21257 4.06436 4.09707C2.17986 5.98158 1.09704 8.52178 1.04241 11.1863C0.987777 13.8508 1.96557 16.4333 3.77125 18.3934C5.57693 20.3536 8.07061 21.5396 10.7307 21.7034C13.2 21.8555 15.6352 21.1157 17.5976 19.6298L22.5447 24.5768C22.5449 24.5771 22.5452 24.5773 22.5454 24.5776C22.6743 24.7073 22.8275 24.8102 22.9962 24.8805C23.1653 24.951 23.3466 24.9872 23.5298 24.9872C23.713 24.9872 23.8943 24.951 24.0634 24.8805C24.2267 24.8125 24.3755 24.7138 24.5017 24.5899C24.6376 24.4664 24.7476 24.317 24.8253 24.1505C24.9057 23.9783 24.9498 23.7915 24.9551 23.6016C24.9603 23.4116 24.9264 23.2227 24.8556 23.0464C24.785 22.8706 24.6791 22.7112 24.5446 22.5779C24.5442 22.5775 24.5438 22.5771 24.5433 22.5766ZM11.3748 18.925C9.88155 18.925 8.42184 18.4822 7.18024 17.6526C5.93865 16.823 4.97095 15.6439 4.39951 14.2643C3.82807 12.8847 3.67855 11.3666 3.96987 9.90208C4.26119 8.43753 4.98026 7.09225 6.03614 6.03636C7.09203 4.98047 8.43731 4.2614 9.90187 3.97009C11.3664 3.67877 12.8845 3.82828 14.2641 4.39972C15.6436 4.97117 16.8228 5.93887 17.6524 7.18046C18.482 8.42205 18.9248 9.88177 18.9248 11.375C18.9248 12.3665 18.7295 13.3483 18.3501 14.2643C17.9707 15.1803 17.4145 16.0126 16.7135 16.7137C16.0124 17.4148 15.1801 17.9709 14.2641 18.3503C13.3481 18.7297 12.3663 18.925 11.3748 18.925Z" fill="#818181" stroke="#818181" stroke-width="1.15"/>
</svg>
