<svg width="48" height="48" viewBox="0 0 48 48" fill="none" xmlns="http://www.w3.org/2000/svg">
<path d="M36.5433 34.5766L31.5971 29.6304C33.083 27.6679 33.8228 25.2327 33.6707 22.7634C33.5069 20.1033 32.3209 17.6096 30.3607 15.804C28.4006 13.9983 25.8181 13.0205 23.1536 13.0751C20.4891 13.1298 17.9489 14.2126 16.0644 16.0971C14.1799 17.9816 13.097 20.5218 13.0424 23.1863C12.9878 25.8508 13.9656 28.4333 15.7712 30.3934C17.5769 32.3536 20.0706 33.5396 22.7307 33.7034C25.2 33.8555 27.6352 33.1157 29.5976 31.6298L34.5447 36.5768C34.5449 36.5771 34.5452 36.5773 34.5454 36.5776C34.6743 36.7073 34.8275 36.8102 34.9962 36.8805C35.1653 36.951 35.3466 36.9872 35.5298 36.9872C35.713 36.9872 35.8943 36.951 36.0634 36.8805C36.2267 36.8125 36.3755 36.7138 36.5017 36.5899C36.6376 36.4664 36.7476 36.317 36.8253 36.1505C36.9057 35.9783 36.9498 35.7915 36.9551 35.6016C36.9603 35.4116 36.9264 35.2227 36.8556 35.0464C36.785 34.8706 36.6791 34.7112 36.5446 34.5779C36.5442 34.5775 36.5438 34.5771 36.5433 34.5766ZM23.3748 30.925C21.8816 30.925 20.4218 30.4822 19.1802 29.6526C17.9387 28.823 16.971 27.6439 16.3995 26.2643C15.8281 24.8847 15.6786 23.3666 15.9699 21.9021C16.2612 20.4375 16.9803 19.0922 18.0361 18.0364C19.092 16.9805 20.4373 16.2614 21.9019 15.9701C23.3664 15.6788 24.8845 15.8283 26.2641 16.3997C27.6436 16.9712 28.8228 17.9389 29.6524 19.1805C30.482 20.4221 30.9248 21.8818 30.9248 23.375C30.9248 24.3665 30.7295 25.3483 30.3501 26.2643C29.9707 27.1803 29.4145 28.0126 28.7135 28.7137C28.0124 29.4148 27.1801 29.9709 26.2641 30.3503C25.3481 30.7297 24.3663 30.925 23.3748 30.925Z" fill="white" stroke="white" stroke-width="1.15"/>
</svg>
