<svg width="22" height="22" viewBox="0 0 22 22" fill="none" xmlns="http://www.w3.org/2000/svg">
<path d="M20.8301 19.0404L16.6994 14.9097C17.9385 13.2432 18.5539 11.1869 18.4255 9.10203C18.2855 6.82842 17.2718 4.69702 15.5964 3.15367C13.921 1.61031 11.7137 0.774572 9.43629 0.821265C7.15886 0.867958 4.9877 1.79347 3.37697 3.40419C1.76625 5.01492 0.840737 7.18608 0.794044 9.46352C0.747351 11.7409 1.58309 13.9482 3.12644 15.6236C4.6698 17.299 6.8012 18.3127 9.0748 18.4527C11.1596 18.5811 13.2159 17.9657 14.8825 16.7266L19.0139 20.858C19.0142 20.8583 19.0144 20.8586 19.0147 20.8588C19.1319 20.9768 19.2713 21.0704 19.4247 21.1344L19.4248 21.1344C19.5786 21.1985 19.7436 21.2315 19.9103 21.2315C20.077 21.2315 20.242 21.1985 20.3958 21.1344L20.1747 20.6036L20.3958 21.1344C20.5439 21.0727 20.6789 20.9833 20.7934 20.8712C20.9165 20.759 21.0162 20.6234 21.0867 20.4724C21.1598 20.3158 21.2 20.1458 21.2047 19.973L20.6299 19.9572L21.2047 19.973C21.2094 19.8002 21.1786 19.6282 21.1142 19.4678C21.05 19.3079 20.9537 19.1629 20.8314 19.0417C20.8309 19.0412 20.8305 19.0408 20.8301 19.0404ZM9.62528 15.925C8.37926 15.925 7.16122 15.5555 6.12519 14.8633C5.08916 14.171 4.28167 13.1871 3.80484 12.0359C3.32801 10.8847 3.20325 9.61802 3.44633 8.39594C3.68942 7.17385 4.28944 6.0513 5.17051 5.17023C6.05158 4.28916 7.17413 3.68914 8.39621 3.44606C9.61829 3.20297 10.885 3.32773 12.0362 3.80456C13.1874 4.28139 14.1713 5.08888 14.8635 6.12491C15.5558 7.16094 15.9253 8.37898 15.9253 9.625C15.9253 10.4523 15.7623 11.2716 15.4457 12.0359C15.1291 12.8003 14.6651 13.4948 14.0801 14.0798C13.495 14.6648 12.8005 15.1288 12.0362 15.4454C11.2718 15.762 10.4526 15.925 9.62528 15.925Z" fill="white" stroke="white" stroke-width="1.15"/>
</svg>
