<svg width="20" height="20" viewBox="0 0 20 20" fill="none" xmlns="http://www.w3.org/2000/svg">
<path fill-rule="evenodd" clip-rule="evenodd" d="M17.4 11C17.4 10.7 17.5 10.4 17.5 10C17.5 9.6 17.5 9.3 17.4 9L19.5 7.3C19.7 7.1 19.7 6.9 19.6 6.7L17.6 3.2C17.5 3.1 17.3 3 17 3.1L14.5 4.1C14 3.7 13.4 3.4 12.8 3.1L12.4 0.5C12.5 0.2 12.2 0 12 0H7.99997C7.79997 0 7.49997 0.2 7.49997 0.4L7.09997 3.1C6.49997 3.3 5.99997 3.7 5.39997 4.1L2.99997 3.1C2.69997 3 2.49997 3.1 2.29997 3.3L0.299973 6.8C0.199973 6.9 0.299973 7.2 0.499973 7.4L2.59997 9C2.59997 9.3 2.49997 9.6 2.49997 10C2.49997 10.4 2.49997 10.7 2.59997 11L0.499973 12.7C0.299973 12.9 0.299973 13.1 0.399973 13.3L2.39997 16.8C2.49997 16.9 2.69997 17 2.99997 16.9L5.49997 15.9C5.99997 16.3 6.59997 16.6 7.19997 16.9L7.59997 19.5C7.59997 19.7 7.79997 19.9 8.09997 19.9H12.1C12.3 19.9 12.6 19.7 12.6 19.5L13 16.9C13.6 16.6 14.2 16.3 14.7 15.9L17.2 16.9C17.4 17 17.7 16.9 17.8 16.7L19.8 13.2C19.9 13 19.9 12.7 19.7 12.6L17.4 11ZM9.99997 13.5C8.09997 13.5 6.49997 11.9 6.49997 10C6.49997 8.1 8.09997 6.5 9.99997 6.5C11.9 6.5 13.5 8.1 13.5 10C13.5 11.9 11.9 13.5 9.99997 13.5Z" fill="white"/>
</svg>
