<svg width="17" height="17" viewBox="0 0 17 17" fill="none" xmlns="http://www.w3.org/2000/svg">
<mask id="path-1-inside-1" fill="white">
<path d="M10 5.0125L11.1776 4L17 9L11.1776 14L10 12.9875L14.6411 9L10 5.0125Z"/>
</mask>
<path d="M10 5.0125L11.1776 4L17 9L11.1776 14L10 12.9875L14.6411 9L10 5.0125Z" fill="white"/>
<path d="M10 5.0125L6.74025 1.22119L2.32908 5.0139L6.74163 8.80499L10 5.0125ZM11.1776 4L14.4351 0.206737L11.1756 -2.59233L7.91785 0.208692L11.1776 4ZM17 9L20.2575 12.7933L24.6747 9L20.2575 5.20674L17 9ZM11.1776 14L7.91785 17.7913L11.1756 20.5923L14.4351 17.7933L11.1776 14ZM10 12.9875L6.74163 9.19501L2.32908 12.9861L6.74025 16.7788L10 12.9875ZM14.6411 9L17.8995 12.7925L22.3137 9L17.8995 5.20751L14.6411 9ZM13.2598 8.80381L14.4374 7.79131L7.91785 0.208692L6.74025 1.22119L13.2598 8.80381ZM7.92013 7.79326L13.7425 12.7933L20.2575 5.20674L14.4351 0.206737L7.92013 7.79326ZM13.7425 5.20674L7.92013 10.2067L14.4351 17.7933L20.2575 12.7933L13.7425 5.20674ZM14.4374 10.2087L13.2598 9.19619L6.74025 16.7788L7.91785 17.7913L14.4374 10.2087ZM13.2584 16.78L17.8995 12.7925L11.3828 5.20751L6.74163 9.19501L13.2584 16.78ZM17.8995 5.20751L13.2584 1.22001L6.74163 8.80499L11.3828 12.7925L17.8995 5.20751Z" fill="white" mask="url(#path-1-inside-1)"/>
<path d="M10 1H1V16H10" stroke="white" stroke-width="2"/>
</svg>
