<svg width="40" height="41" viewBox="0 0 40 41" fill="none" xmlns="http://www.w3.org/2000/svg">
<path d="M20 40.5C31.0457 40.5 40 31.5457 40 20.5C40 9.4543 31.0457 0.5 20 0.5C8.9543 0.5 0 9.4543 0 20.5C0 31.5457 8.9543 40.5 20 40.5Z" fill="#DAF0F0"/>
<path d="M19.3211 6.8878C19.591 6.31274 20.409 6.31275 20.6789 6.8878L23.3595 12.5981L24.4911 12.0669L23.3595 12.5981C23.82 13.5791 24.7392 14.266 25.8104 14.4297L31.9638 15.3702C32.5673 15.4625 32.8136 16.1985 32.3873 16.6354L27.8102 21.3266C27.0898 22.0649 26.7627 23.1013 26.9288 24.1193L27.9915 30.636C28.0922 31.2539 27.4363 31.716 26.8884 31.4131L21.5726 28.474C20.594 27.9329 19.406 27.9329 18.4274 28.474L13.1116 31.4131C12.5637 31.716 11.9078 31.2539 12.0085 30.636L13.0712 24.1193C13.2373 23.1013 12.9102 22.0649 12.1898 21.3266L7.61266 16.6354C7.18636 16.1985 7.43274 15.4625 8.03616 15.3702L14.1896 14.4297C15.2608 14.266 16.18 13.5791 16.6405 12.5981L19.3211 6.8878Z" fill="#34D1D1" stroke="black" stroke-width="2.5"/>
</svg>
