<svg width="40" height="41" viewBox="0 0 40 41" fill="none" xmlns="http://www.w3.org/2000/svg">
<path d="M20 40.5C31.0457 40.5 40 31.5457 40 20.5C40 9.4543 31.0457 0.5 20 0.5C8.9543 0.5 0 9.4543 0 20.5C0 31.5457 8.9543 40.5 20 40.5Z" fill="#DAF0F0"/>
<path fill-rule="evenodd" clip-rule="evenodd" d="M17.9316 5.52411C18.7455 3.75385 21.2539 3.75385 22.0678 5.52411L25.2649 12.4766L32.8447 13.3781C34.7747 13.6077 35.5498 16.0006 34.1229 17.3241L28.5189 22.5225L30.0065 30.0322C30.3853 31.9443 28.3561 33.4232 26.6602 32.471L19.9997 28.7312L13.3393 32.471C11.6434 33.4232 9.61417 31.9443 9.99293 30.0322L11.4805 22.5225L5.87656 17.3241C4.44966 16.0006 5.22476 13.6077 7.15475 13.3781L14.7346 12.4766L17.9316 5.52411ZM20.5189 7.61004C20.3149 7.16644 19.6845 7.16644 19.4805 7.61004L16.8027 13.4335C16.4709 14.155 15.7893 14.6518 15.0027 14.7454L8.65003 15.5009C8.16633 15.5584 7.97178 16.156 8.3289 16.4872L13.0269 20.8452C13.6084 21.3847 13.8688 22.1884 13.7144 22.9678L12.4678 29.261C12.373 29.7395 12.8827 30.1091 13.3081 29.8703L18.8873 26.7377C19.5785 26.3496 20.421 26.3496 21.1122 26.7377L26.6914 29.8703C27.1167 30.1091 27.6265 29.7395 27.5317 29.261L26.2851 22.9678C26.1307 22.1884 26.391 21.3847 26.9726 20.8452L31.6706 16.4872C32.0276 16.156 31.8331 15.5584 31.3494 15.5009L24.9967 14.7454C24.2101 14.6518 23.5285 14.1551 23.1967 13.4335L20.5189 7.61004Z" fill="black"/>
</svg>
