<svg width="21" height="21" viewBox="0 0 21 21" fill="none" xmlns="http://www.w3.org/2000/svg">
<path fill-rule="evenodd" clip-rule="evenodd" d="M19.1802 11.62C18.5502 11.62 17.9902 11.06 17.9902 10.43C17.9902 9.79999 18.5502 9.23999 19.1802 9.23999C19.8102 9.23999 20.3702 9.79999 20.3702 10.43C20.3702 11.13 19.8802 11.62 19.1802 11.62ZM15.7502 17.5C15.2602 17.01 15.2602 16.24 15.7502 15.82C16.2402 15.33 17.0102 15.33 17.4302 15.82C17.9202 16.31 17.9202 17.08 17.4302 17.5C17.0102 17.92 16.2402 17.92 15.7502 17.5ZM15.7502 5.10999C15.2602 4.61999 15.2602 3.84999 15.7502 3.42999C16.2402 2.93999 17.0102 2.93999 17.4302 3.42999C17.9202 3.91999 17.9202 4.68999 17.4302 5.10999C17.0102 5.59999 16.2402 5.59999 15.7502 5.10999ZM10.5002 16.1C7.42023 16.1 4.90023 13.58 4.90023 10.5C4.90023 7.41999 7.42023 4.89999 10.5002 4.89999C13.5802 4.89999 16.1002 7.41999 16.1002 10.5C16.1002 13.58 13.5802 16.1 10.5002 16.1ZM6.37023 10.78C6.51023 12.95 8.33024 14.7 10.5002 14.7C12.6702 14.7 14.4902 12.95 14.6302 10.78H6.37023ZM10.4302 2.86999C9.80023 2.86999 9.24024 2.30999 9.24024 1.67999C9.24024 1.04999 9.80023 0.48999 10.4302 0.48999C11.0602 0.48999 11.6202 1.04999 11.6202 1.67999C11.6202 2.30999 11.1302 2.86999 10.4302 2.86999ZM3.43023 5.10999C2.94023 4.61999 2.94023 3.84999 3.43023 3.42999C3.92023 2.93999 4.69023 2.93999 5.11023 3.42999C5.60023 3.91999 5.60023 4.68999 5.11023 5.10999C4.62023 5.52999 3.85023 5.59999 3.43023 5.10999ZM1.68023 11.62C1.05023 11.62 0.490234 11.06 0.490234 10.43C0.490234 9.79999 1.05023 9.23999 1.68023 9.23999C2.31023 9.23999 2.87023 9.79999 2.87023 10.43C2.87023 11.13 2.38023 11.62 1.68023 11.62ZM5.11023 15.75C5.60023 16.24 5.60023 17.01 5.11023 17.43C4.62023 17.85 3.85023 17.92 3.43023 17.43C2.94023 16.94 2.94023 16.17 3.43023 15.75C3.85023 15.33 4.62023 15.33 5.11023 15.75ZM10.4302 17.99C11.0602 17.99 11.6202 18.55 11.6202 19.18C11.6202 19.81 11.0602 20.37 10.4302 20.37C9.80023 20.37 9.24024 19.81 9.24024 19.18C9.24024 18.55 9.80023 17.99 10.4302 17.99Z" fill="white"/>
</svg>
