<svg width="24" height="24" viewBox="0 0 24 24" fill="none" xmlns="http://www.w3.org/2000/svg">
<path d="M20.4284 18.8169C20.4284 19.671 20.1773 20.2345 19.7612 20.6306C19.3315 21.0397 18.7308 21.2857 17.8525 21.2857H6.14718C5.26888 21.2857 4.66821 21.0397 4.2385 20.6306C3.82242 20.2345 3.57129 19.671 3.57129 18.8169C3.57129 18.3657 3.58619 17.9267 3.61577 17.4999C3.64414 17.0906 3.7015 16.6403 3.78994 16.1476C3.8769 15.6631 3.98519 15.222 4.113 14.8226C4.23395 14.4446 4.39753 14.0726 4.60584 13.7062C4.80501 13.3558 5.02413 13.0737 5.25828 12.8496C5.46679 12.65 5.73485 12.4771 6.08013 12.3404C6.35537 12.2314 6.66817 12.1638 7.02633 12.1469C7.03501 12.152 7.04426 12.1575 7.05408 12.1633C7.10081 12.1912 7.15651 12.226 7.22184 12.2686C7.51957 12.4626 7.85479 12.6786 8.2273 12.9164C8.69278 13.2137 9.26031 13.4598 9.90429 13.668C10.5931 13.8907 11.2928 14.0044 11.9999 14.0044C12.707 14.0044 13.4066 13.8907 14.0954 13.668C14.7394 13.4598 15.3069 13.2137 15.7724 12.9164C16.1449 12.6786 16.4802 12.4626 16.7779 12.2686C16.8432 12.226 16.8989 12.1912 16.9456 12.1633C16.9555 12.1575 16.9647 12.152 16.9734 12.1469C17.3315 12.1638 17.6444 12.2314 17.9196 12.3404C18.2649 12.4771 18.5329 12.65 18.7414 12.8496C18.9756 13.0737 19.1947 13.3558 19.3939 13.7062C19.6022 14.0726 19.7658 14.4446 19.8867 14.8226C20.0145 15.222 20.1228 15.6631 20.2098 16.1476C20.2982 16.6403 20.3556 17.0906 20.384 17.4999C20.4135 17.9267 20.4284 18.3657 20.4284 18.8169ZM16.1427 6.85709C16.1427 8.01133 15.746 8.96909 14.9289 9.78615C14.1119 10.6032 13.1541 10.9999 11.9999 10.9999C10.8456 10.9999 9.88787 10.6032 9.07081 9.78615C8.25375 8.96909 7.857 8.01133 7.857 6.85709C7.857 5.70285 8.25375 4.7451 9.07081 3.92804C9.88787 3.11098 10.8456 2.71423 11.9999 2.71423C13.1541 2.71423 14.1119 3.11098 14.9289 3.92804C15.746 4.7451 16.1427 5.70285 16.1427 6.85709Z" fill="#818181" stroke="#818181" stroke-width="2"/>
</svg>
