<svg width="24" height="24" viewBox="0 0 24 24" fill="none" xmlns="http://www.w3.org/2000/svg">
<path d="M20.4294 18.8169C20.4294 19.671 20.1783 20.2345 19.7622 20.6306C19.3325 21.0397 18.7318 21.2857 17.8535 21.2857H6.14816C5.26985 21.2857 4.66919 21.0397 4.23948 20.6306C3.8234 20.2345 3.57227 19.671 3.57227 18.8169C3.57227 18.3657 3.58716 17.9267 3.61675 17.4999C3.64511 17.0906 3.70248 16.6403 3.79091 16.1476C3.87788 15.6631 3.98616 15.222 4.11398 14.8226C4.23493 14.4446 4.39851 14.0726 4.60681 13.7062C4.80598 13.3558 5.0251 13.0737 5.25926 12.8496C5.46777 12.65 5.73583 12.4771 6.08111 12.3404C6.35634 12.2314 6.66915 12.1638 7.0273 12.1469C7.03599 12.152 7.04524 12.1575 7.05506 12.1633C7.10178 12.1912 7.15748 12.226 7.22281 12.2686C7.52055 12.4626 7.85577 12.6786 8.22827 12.9164C8.69376 13.2137 9.26129 13.4598 9.90526 13.668C10.5941 13.8907 11.2937 14.0044 12.0008 14.0044C12.7079 14.0044 13.4076 13.8907 14.0964 13.668C14.7404 13.4598 15.3079 13.2137 15.7734 12.9164C16.1459 12.6786 16.4811 12.4626 16.7789 12.2686C16.8442 12.226 16.8999 12.1912 16.9466 12.1633C16.9564 12.1575 16.9657 12.152 16.9744 12.1469C17.3325 12.1638 17.6453 12.2314 17.9206 12.3404C18.2658 12.4771 18.5339 12.65 18.7424 12.8496C18.9766 13.0737 19.1957 13.3558 19.3949 13.7062C19.6032 14.0726 19.7668 14.4446 19.8877 14.8226C20.0155 15.222 20.1238 15.6631 20.2108 16.1476C20.2992 16.6403 20.3566 17.0906 20.3849 17.4999C20.4145 17.9267 20.4294 18.3657 20.4294 18.8169ZM16.1437 6.85709C16.1437 8.01133 15.747 8.96909 14.9299 9.78615C14.1128 10.6032 13.1551 10.9999 12.0008 10.9999C10.8466 10.9999 9.88884 10.6032 9.07178 9.78615C8.25472 8.96909 7.85798 8.01133 7.85798 6.85709C7.85798 5.70285 8.25472 4.7451 9.07178 3.92804C9.88884 3.11098 10.8466 2.71423 12.0008 2.71423C13.1551 2.71423 14.1128 3.11098 14.9299 3.92804C15.747 4.7451 16.1437 5.70285 16.1437 6.85709Z" fill="#34D1D1" stroke="#34D1D1" stroke-width="2"/>
</svg>
